<?xml version="1.0" standalone="no"?>
<!DOCTYPE svg PUBLIC "-//W3C//DTD SVG 1.1//EN" "http://www.w3.org/Graphics/SVG/1.1/DTD/svg11.dtd" >
<svg>
<metadata>
Created by FontForge 20090914 at Thu Mar 17 23:03:36 2022
 By www-data
Copyright 2020 The MuseoModerno Project Authors (https://github.com/Omnibus-Type/MuseoModerno)
</metadata>
<defs>
<font id="MuseoModerno-Light" horiz-adv-x="696" >
  <font-face 
    font-family="MuseoModerno Light"
    font-weight="300"
    font-stretch="normal"
    units-per-em="1000"
    panose-1="0 0 0 0 0 0 0 0 0 0"
    ascent="800"
    descent="-200"
    x-height="509"
    cap-height="700"
    bbox="-351 -360.999 1378 1109"
    underline-thickness="80"
    underline-position="-115"
    unicode-range="U+0020-U+FB06"
  />
<missing-glyph horiz-adv-x="500" 
d="M1 0v700h500v-700h-500zM226 99v70h60v-70h-60zM51 50h400v600h-400v-600zM230 215l0.000976562 63c0 21.333 5.5 38.666 16.5 51.999s23.5 25.666 37.5 36.999s26.833 24.166 38.5 38.499s17.5 34.166 17.5 59.499c0 9.33301 -2 20.833 -6 34.5
s-12.333 25.834 -25 36.501s-32 16 -58 16c-22.667 0 -40.5 -4 -53.5 -12s-22.667 -17.833 -29 -29.5s-10.5 -22.834 -12.5 -33.501s-3 -19 -3 -25v-28h-49c-0.666992 2.66699 -1.5 6.83398 -2.5 12.501s-1.5 11.834 -1.5 18.501c0 6 1.33301 16.833 4 32.5
s9 32.334 19 50.001s25.167 32.834 45.5 45.501s47.833 19 82.5 19c35.333 0 62.666 -6.33301 81.999 -19s33.333 -27.334 42 -44.001s14 -32 16 -46s3 -22.667 3 -26c0 -33.333 -7.33301 -59.833 -22 -79.5s-29.667 -36.167 -45 -49.5
c-11.333 -9.33301 -21.5 -19.166 -30.5 -29.499s-13.5 -23.833 -13.5 -40.5v-53h-53z" />
    <glyph glyph-name="f_f" unicode="ff" horiz-adv-x="725" 
d="M106 0v449h-90v61h90v76c0 45.333 12.833 80.833 38.5 106.5s61.167 38.5 106.5 38.5h116v-61h-103c-28.667 0 -50.667 -8 -66 -24s-23 -38.667 -23 -68v-68h268v76c0 45.333 12.833 80.833 38.5 106.5s61.167 38.5 106.5 38.5h117v-61h-103
c-28.667 0 -50.667 -8 -66 -24s-23 -38.667 -23 -68v-68h175v-61h-175v-449h-70v449h-268v-449h-69z" />
    <glyph glyph-name="fi" unicode="fi" horiz-adv-x="590" 
d="M106 0v449h-90v61h90v76c0 45.333 12.833 80.833 38.5 106.5s61.167 38.5 106.5 38.5h105v-61h-92c-28.667 0 -50.667 -8 -66 -24s-23 -38.667 -23 -68v-68h339v-510h-71v449h-268v-449h-69zM479 602c-13.333 0 -25 5 -35 15s-15 21.667 -15 35c0 14 5 25.833 15 35.5
s21.667 14.5 35 14.5s25 -4.83301 35 -14.5s15 -21.5 15 -35.5c0 -13.333 -5 -25 -15 -35s-21.667 -15 -35 -15z" />
    <glyph glyph-name="fl" unicode="fl" horiz-adv-x="590" 
d="M106 0v449h-90v61h90v75c0 45.333 12.833 80.833 38.5 106.5s61.167 38.5 106.5 38.5h262v-730h-70v669h-179c-28.667 0 -50.667 -8 -66 -24s-23 -38.667 -23 -68v-67h175v-61h-175v-449h-69z" />
    <glyph glyph-name="f_f_i" unicode="ffi" horiz-adv-x="928" 
d="M106 0v449h-90v61h90v76c0 45.333 12.833 80.833 38.5 106.5s61.167 38.5 106.5 38.5h116v-61h-103c-28.667 0 -50.667 -8 -66 -24s-23 -38.667 -23 -68v-68h268v76c0 44.667 12.833 80 38.5 106s61.167 39 106.5 39h106v-61h-92c-28.667 0 -50.667 -8 -66 -24
s-23 -38.667 -23 -68v-68h338v-510h-70v449h-268v-449h-70v449h-268v-449h-69zM817 602c-13.333 0 -25 5 -35 15s-15 21.667 -15 35c0 14 5 25.833 15 35.5s21.667 14.5 35 14.5s25 -4.83301 35 -14.5s15 -21.5 15 -35.5c0 -13.333 -5 -25 -15 -35s-21.667 -15 -35 -15z" />
    <glyph glyph-name="f_f_l" unicode="ffl" horiz-adv-x="929" 
d="M106 0v449h-90v61h90v76c0 45.333 12.833 80.833 38.5 106.5s61.167 38.5 106.5 38.5h116v-61h-103c-28.667 0 -50.667 -8 -66 -24s-23 -38.667 -23 -68v-68h269v76c0 44.667 12.833 80 38.5 106s61.167 39 106.5 39l263 -1v-730h-70v670h-179
c-29.333 0 -51.5 -8 -66.5 -24s-22.5 -38.667 -22.5 -68v-68h174v-61h-174v-449h-70v449h-269v-449h-69z" />
    <glyph glyph-name=".notdef" horiz-adv-x="500" 
d="M1 0v700h500v-700h-500zM226 99v70h60v-70h-60zM51 50h400v600h-400v-600zM230 215l0.000976562 63c0 21.333 5.5 38.666 16.5 51.999s23.5 25.666 37.5 36.999s26.833 24.166 38.5 38.499s17.5 34.166 17.5 59.499c0 9.33301 -2 20.833 -6 34.5
s-12.333 25.834 -25 36.501s-32 16 -58 16c-22.667 0 -40.5 -4 -53.5 -12s-22.667 -17.833 -29 -29.5s-10.5 -22.834 -12.5 -33.501s-3 -19 -3 -25v-28h-49c-0.666992 2.66699 -1.5 6.83398 -2.5 12.501s-1.5 11.834 -1.5 18.501c0 6 1.33301 16.833 4 32.5
s9 32.334 19 50.001s25.167 32.834 45.5 45.501s47.833 19 82.5 19c35.333 0 62.666 -6.33301 81.999 -19s33.333 -27.334 42 -44.001s14 -32 16 -46s3 -22.667 3 -26c0 -33.333 -7.33301 -59.833 -22 -79.5s-29.667 -36.167 -45 -49.5
c-11.333 -9.33301 -21.5 -19.166 -30.5 -29.499s-13.5 -23.833 -13.5 -40.5v-53h-53z" />
    <glyph glyph-name="space" unicode=" " horiz-adv-x="265" 
 />
    <glyph glyph-name="exclam" unicode="!" horiz-adv-x="248" 
d="M89 211v489h70v-489h-70zM124 -9c-14 0 -26.333 5.33203 -37 15.999s-16 23 -16 37c0 14.667 5.33301 27.167 16 37.5s23 15.5 37 15.5c14.667 0 27.167 -5.16699 37.5 -15.5s15.5 -22.833 15.5 -37.5c0 -9.33301 -2.5 -18.166 -7.5 -26.499s-11.5 -14.833 -19.5 -19.5
s-16.667 -7 -26 -7z" />
    <glyph glyph-name="quotedbl" unicode="&#x22;" horiz-adv-x="411" 
d="M266 419v281h70v-281h-70zM75 419v281h70v-281h-70z" />
    <glyph glyph-name="numbersign" unicode="#" horiz-adv-x="720" 
d="M153 0l27 193h-155v57h163l31 207h-159v57h166l27 186h60l-27 -186h178l27 186h61l-27 -186h157v-57h-164l-31 -207h160v-57h-167l-28 -193h-61l28 193h-178l-28 -193h-60zM248 250h179l30 207h-178z" />
    <glyph glyph-name="dollar" unicode="$" horiz-adv-x="626" 
d="M284 -119v154h54v-154h-54zM284 669v150h54v-150h-54zM74 0v64.002h305c27.333 0 50.833 6.33301 70.5 19s34.5 29.167 44.5 49.5s15 41.5 15 63.5s-4.83301 42.667 -14.5 62s-24 35 -43 47s-41.833 18 -68.5 18h-140c-40 0 -74.5 8.16699 -103.5 24.5
s-51.333 38.5 -67 66.5s-23.5 59.333 -23.5 94s7.83301 66.5 23.5 95.5s38 52.333 67 70s63.5 26.5 103.5 26.5h293v-64h-288c-26 0 -48.5 -6 -67.5 -18s-33.667 -27.5 -44 -46.5s-15.5 -38.833 -15.5 -59.5s4.83301 -40.334 14.5 -59.001s23.667 -33.834 42 -45.501
s40.833 -17.5 67.5 -17.5h141c42 0 77.5 -8.33301 106.5 -25s51 -39.167 66 -67.5s22.5 -59.5 22.5 -93.5c0 -38 -7.83301 -72.5 -23.5 -103.5s-38 -55.5 -67 -73.5s-63.833 -27 -104.5 -27h-312z" />
    <glyph glyph-name="percent" unicode="%" horiz-adv-x="909" 
d="M219 331c-29.333 0 -56.5 6.66699 -81.5 20s-45.167 31.666 -60.5 54.999s-23 51 -23 83v66c0 32 7.66699 59.667 23 83s35.5 41.666 60.5 54.999s52.167 20 81.5 20c28.667 0 55.5 -6.66699 80.5 -20s45.167 -31.666 60.5 -54.999s23 -51 23 -83v-66
c0 -32 -7.66699 -59.667 -23 -83s-35.5 -41.666 -60.5 -54.999s-51.833 -20 -80.5 -20zM219 384c18.667 0 36.167 4.33301 52.5 13s29.666 21.334 39.999 38.001s15.5 36.667 15.5 60v53c0 24 -5.16699 44.333 -15.5 61s-23.666 29.5 -39.999 38.5s-33.833 13.5 -52.5 13.5
s-36.167 -4.5 -52.5 -13.5s-29.666 -21.833 -39.999 -38.5s-15.5 -37 -15.5 -61v-53c0 -23.333 5.16699 -43.333 15.5 -60s23.666 -29.334 39.999 -38.001s33.833 -13 52.5 -13zM690 -13c-28.667 0 -55.5 6.66699 -80.5 20s-45.167 31.833 -60.5 55.5s-23 51.167 -23 82.5
v66c0 32 7.66699 59.833 23 83.5s35.5 42 60.5 55s51.833 19.5 80.5 19.5c29.333 0 56.5 -6.5 81.5 -19.5s45.167 -31.333 60.5 -55s23 -51.5 23 -83.5v-66c0 -31.333 -7.66699 -58.833 -23 -82.5s-35.5 -42.167 -60.5 -55.5s-52.167 -20 -81.5 -20zM691 40
c18 0 35.167 4.33301 51.5 13s29.666 21.334 39.999 38.001s15.5 36.667 15.5 60v54c0 24 -5.16699 44.167 -15.5 60.5s-23.666 29 -39.999 38s-33.5 13.5 -51.5 13.5c-18.667 0 -36.167 -4.5 -52.5 -13.5s-29.666 -21.667 -39.999 -38s-15.5 -36.5 -15.5 -60.5v-54
c0 -23.333 5.16699 -43.333 15.5 -60s23.666 -29.334 39.999 -38.001s33.833 -13 52.5 -13zM178 0l488 700h61l-488 -700h-61z" />
    <glyph glyph-name="ampersand" unicode="&#x26;" horiz-adv-x="831" 
d="M671 -216c-26.667 0 -50.9971 5.66895 -72.9971 17.002s-39.5 27.5 -52.5 48.5s-19.5 45.5 -19.5 73.5s7.33301 52.5 22 73.5s33.667 37.667 57 50s48 19.833 74 22.5c-2.66699 2 -8.16699 6.83301 -16.5 14.5s-22.5 19.5 -42.5 35.5l-62 51
c-21.333 -40 -45.5 -73.667 -72.5 -101s-57.167 -47.833 -90.5 -61.5s-71.333 -20.5 -114 -20.5c-48 0 -90.5 9.83301 -127.5 29.5s-65.667 47 -86 82s-30.5 74.833 -30.5 119.5c0 31.333 6.16699 61.833 18.5 91.5s31.5 57.167 57.5 82.5s59 46.333 99 63
c-11.333 9.33301 -22.5 20.166 -33.5 32.499s-20.333 26.166 -28 41.499s-11.5 31.333 -11.5 48c0 24.667 6.16699 47.167 18.5 67.5s29.666 36.833 51.999 49.5s48.166 19 77.499 19c28 0 52.833 -5.66699 74.5 -17s38.5 -27 50.5 -47s18 -43 18 -69
c0 -30 -9.66699 -56.5 -29 -79.5s-46.666 -42.167 -81.999 -57.5l216 -176l5 12c18 40 34.333 72.667 49 98s28.667 44.666 42 57.999s28.166 22.5 44.499 27.5s35.5 7.5 57.5 7.5h41v-57h-37c-16 0 -29.833 -2.16699 -41.5 -6.5s-22.5 -12.666 -32.5 -24.999
s-20.833 -29.833 -32.5 -52.5s-25.5 -52.667 -41.5 -90l-5 -12l71 -58c42.667 -32.667 76.167 -62.167 100.5 -88.5s41.5 -51.166 51.5 -74.499s15 -47 15 -71c0 -28 -6.16699 -53.333 -18.5 -76s-29.833 -40.834 -52.5 -54.501s-49.334 -20.5 -80.001 -20.5z
M287.003 50.002c32.667 0 62.001 5.49805 88.001 16.498s49.833 28.333 71.5 52s42.5 54.167 62.5 91.5l-251 206c-34.667 -14 -63.167 -31.167 -85.5 -51.5s-38.833 -42.666 -49.5 -66.999s-16 -49.166 -16 -74.499c0 -32 7.5 -61 22.5 -87s36.167 -46.833 63.5 -62.5
s58.666 -23.5 93.999 -23.5zM673.004 -160c24.667 0 45.001 8.5 61.001 25.5s24 39.833 24 68.5c0 14.667 -2.66699 29.5 -8 44.5s-15.333 29.5 -30 43.5c-24 -1.33301 -45.833 -6 -65.5 -14s-35.334 -19.333 -47.001 -34s-17.5 -33 -17.5 -55s7.66699 -40.667 23 -56
s35.333 -23 60 -23zM274.005 480c16 7.33301 31 15.8369 45 25.5039s25.333 20.667 34 33s13 25.833 13 40.5c0 21.333 -7.16699 39.5 -21.5 54.5s-34.833 22.5 -61.5 22.5c-17.333 0 -31.833 -3.83301 -43.5 -11.5s-20.667 -17.334 -27 -29.001s-9.5 -23.834 -9.5 -36.501
c0 -14.667 3.83301 -27.834 11.5 -39.501s17 -22.334 28 -32.001z" />
    <glyph glyph-name="quotesingle" unicode="'" horiz-adv-x="220" 
d="M75 419v281h70v-281h-70z" />
    <glyph glyph-name="parenleft" unicode="(" horiz-adv-x="330" 
d="M250 -180c-42.667 51.333 -78.667 114.833 -108 190.5s-44 163.834 -44 264.501s14.667 189 44 265s65.333 139.333 108 190h80c-45.333 -50.667 -83.333 -114 -114 -190s-46 -164.333 -46 -265s15.333 -188.834 46 -264.501s68.667 -139.167 114 -190.5h-80z" />
    <glyph glyph-name="parenright" unicode=")" horiz-adv-x="330" 
d="M0 -180c45.333 51.333 83.333 114.833 114 190.5s46 163.834 46 264.501s-15.333 189 -46 265s-68.667 139.333 -114 190h80c42.667 -50.667 78.667 -114 108 -190s44 -164.333 44 -265s-14.667 -188.834 -44 -264.501s-65.333 -139.167 -108 -190.5h-80z" />
    <glyph glyph-name="asterisk" unicode="*" horiz-adv-x="454" 
d="M201 328v141l-123 -70l-26 46l122 70l-122 70l26 46l123 -71v142h52v-142l123 71l26 -46l-122 -70l122 -70l-26 -46l-123 70v-141h-52z" />
    <glyph glyph-name="plus" unicode="+" horiz-adv-x="590" 
d="M262 126v190h-191v63h191v190h67v-190h190v-63h-190v-190h-67z" />
    <glyph glyph-name="comma" unicode="," horiz-adv-x="180" 
d="M34 -146l41 140c-12 3.33301 -21.333 9.83301 -28 19.5s-10 20.167 -10 31.5c0 14 5.33301 26.167 16 36.5s23 15.5 37 15.5c16 0 28.833 -5.33301 38.5 -16s14.5 -23.667 14.5 -39c0 -10 -1 -19.5 -3 -28.5s-4.66699 -19.167 -8 -30.5l-38 -129h-60z" />
    <glyph glyph-name="hyphen" unicode="-" horiz-adv-x="363" 
d="M40 232v64h283v-64h-283z" />
    <glyph glyph-name="period" unicode="." horiz-adv-x="180" 
d="M90 -9c-14 0 -26.333 5.33203 -37 15.999s-16 23 -16 37c0 14.667 5.33301 27.167 16 37.5s23 15.5 37 15.5c14.667 0 27.167 -5.16699 37.5 -15.5s15.5 -22.833 15.5 -37.5c0 -9.33301 -2.5 -18.166 -7.5 -26.499s-11.5 -14.833 -19.5 -19.5s-16.667 -7 -26 -7z" />
    <glyph glyph-name="slash" unicode="/" horiz-adv-x="364" 
d="M-22 -100l316 830h67l-316 -830h-67z" />
    <glyph glyph-name="zero" unicode="0" horiz-adv-x="647" 
d="M325 -13c-47.333 0 -90 10.5 -128 31.5s-67.833 49.5 -89.5 85.5s-32.5 76.333 -32.5 121v249c0 44.667 10.833 85.167 32.5 121.5s51.5 65 89.5 86s80.667 31.5 128 31.5c46.667 0 88.667 -10.5 126 -31.5s66.833 -49.667 88.5 -86s32.5 -76.833 32.5 -121.5v-249
c0 -44.667 -10.833 -85 -32.5 -121s-51.167 -64.5 -88.5 -85.5s-79.333 -31.5 -126 -31.5zM325 51c32 0 61.167 7.33301 87.5 22s47.5 34.5 63.5 59.5s24 52.5 24 82.5v269c0 30.667 -8 58.334 -24 83.001s-37.167 44.334 -63.5 59.001s-55.5 22 -87.5 22
c-32.667 0 -62.5 -7.33301 -89.5 -22s-48.5 -34.334 -64.5 -59.001s-24 -52.334 -24 -83.001v-269c0 -30 8 -57.5 24 -82.5s37.5 -44.833 64.5 -59.5s56.833 -22 89.5 -22z" />
    <glyph glyph-name="one" unicode="1" horiz-adv-x="447" 
d="M57 0v64h145v572h-142v64h215v-636h131v-64h-349z" />
    <glyph glyph-name="two" unicode="2" horiz-adv-x="547" 
d="M156 0c-23.333 0 -43.499 4.66602 -60.499 13.999s-30 22 -39 38s-13.5 33.333 -13.5 52c0 18 4.83301 36 14.5 54s23.167 33.333 40.5 46l234 166c26.667 18.667 46.667 40 60 64s20 48 20 72s-6 45.833 -18 65.5s-29.667 35.334 -53 47.001s-52.333 17.5 -87 17.5h-177
v64h185c47.333 0 87.5 -8.83301 120.5 -26.5s58 -41.167 75 -70.5s25.5 -61.333 25.5 -96c0 -36 -8.66699 -70 -26 -102s-44 -60.667 -80 -86l-234 -163c-8.66699 -6.66699 -15.5 -14.167 -20.5 -22.5s-7.5 -16.833 -7.5 -25.5c0 -12 4.66699 -22.333 14 -31
s22.666 -13 39.999 -13h329v-64h-342z" />
    <glyph glyph-name="three" unicode="3" horiz-adv-x="547" 
d="M56 0l0.000976562 64.002h232c27.333 0 50.666 6.16699 69.999 18.5s34 28.5 44 48.5s15 41 15 63c0 22.667 -5.33301 44.167 -16 64.5s-26 36.833 -46 49.5s-44.667 19 -74 19h-187v64h193c28.667 0 52.5 5.83301 71.5 17.5s33.667 26.834 44 45.501
s15.5 38.334 15.5 59.001c0 21.333 -5.16699 41.166 -15.5 59.499s-25.166 33.5 -44.499 45.5s-43 18 -71 18h-231v64h243c38.667 0 72.167 -8.83301 100.5 -26.5s50.333 -40.334 66 -68.001s23.5 -57.834 23.5 -90.501c0 -36.667 -9.5 -68.834 -28.5 -96.501
s-45.5 -48.167 -79.5 -61.5c24 -9.33301 44 -22.333 60 -39s28 -35.667 36 -57s12 -43.333 12 -66c0 -34 -7.66699 -65.833 -23 -95.5s-37.333 -53.667 -66 -72s-62.334 -27.5 -101.001 -27.5h-243z" />
    <glyph glyph-name="four" unicode="4" horiz-adv-x="643" 
d="M419 0l0.000976562 165.002h-256c-22 0 -41.333 5.16699 -58 15.5s-29.667 24 -39 41s-14 35.167 -14 54.5c0 11.333 1.33301 22.666 4 33.999s6.66699 21.666 12 30.999l202 359h81l-217 -383c-3.33301 -6 -5.83301 -12 -7.5 -18s-2.5 -12.667 -2.5 -20
c0 -12.667 4.16699 -24.167 12.5 -34.5s20.166 -15.5 35.499 -15.5h247v262h73v-262h99v-64h-99v-165h-73z" />
    <glyph glyph-name="five" unicode="5" horiz-adv-x="559" 
d="M65 0l0.000976562 63.998h211c33.333 0 61.666 7.5 84.999 22.5s41 34.333 53 58s18 48.834 18 75.501c0 26 -5.83301 50.333 -17.5 73s-28.5 41 -50.5 55s-49.333 21 -82 21h-202v331h379v-64h-309v-204h143c43.333 0 80.833 -10 112.5 -30s56.167 -46.167 73.5 -78.5
s26 -67.166 26 -104.499c0 -38 -9 -73.667 -27 -107s-43.333 -60.333 -76 -81s-71.667 -31 -117 -31h-220z" />
    <glyph glyph-name="six" unicode="6" horiz-adv-x="615" 
d="M309 -13c-46.667 0 -89.333 9.33203 -128 27.999s-69.5 45.334 -92.5 80.001s-34.5 75.667 -34.5 123c0 42.667 8.83301 83.834 26.5 123.501s41.5 82.5 71.5 128.5l154 229h83l-200 -302c18 17.333 38.833 30.166 62.5 38.499s47.5 12.5 71.5 12.5
c50.667 0 93.667 -10.667 129 -32s62.333 -49.5 81 -84.5s28 -72.833 28 -113.5c0 -47.333 -11.333 -88.5 -34 -123.5s-53 -61.667 -91 -80s-80.333 -27.5 -127 -27.5zM309.001 49.999c32.667 0 62.666 6.66699 89.999 20s49.166 32.666 65.499 57.999s24.5 56 24.5 92
c0 28.667 -6.66699 55.5 -20 80.5s-33 45.5 -59 61.5s-59 24 -99 24c-32.667 0 -63 -6.66699 -91 -20s-50.5 -32.5 -67.5 -57.5s-25.5 -55.167 -25.5 -90.5c0 -34.667 8.33301 -64.667 25 -90s38.834 -44.666 66.501 -57.999s57.834 -20 90.501 -20z" />
    <glyph glyph-name="seven" unicode="7" horiz-adv-x="516" 
d="M101 0l286.001 564.999c8 14.667 12 27.667 12 39c0 9.33301 -3.33301 17 -10 23s-17.667 9 -33 9h-331v64h342c22.667 0 41.667 -4.16699 57 -12.5s27 -19.5 35 -33.5s12 -29.333 12 -46c0 -10.667 -1.33301 -21.167 -4 -31.5s-6.33398 -20.166 -11.001 -29.499
l-273 -547h-82z" />
    <glyph glyph-name="eight" unicode="8" horiz-adv-x="637" 
d="M319 -13c-56.667 0 -104.502 9.83301 -143.502 29.5s-68.333 45.334 -88 77.001s-29.5 65.834 -29.5 102.501c0 22.667 4.16699 45 12.5 67s21.833 42.333 40.5 61s43.334 34 74.001 46c-38 16 -65.333 37.5 -82 64.5s-25 55.167 -25 84.5
c0 33.333 9.16699 64.833 27.5 94.5s45.5 53.5 81.5 71.5s80 27 132 27s95.833 -9 131.5 -27s62.834 -41.833 81.501 -71.5s28 -61.167 28 -94.5c0 -29.333 -8.66699 -57.5 -26 -84.5s-44.333 -48.5 -81 -64.5c30 -12 54.333 -27.333 73 -46s32.167 -39 40.5 -61
s12.5 -44.333 12.5 -67c0 -36.667 -9.83301 -70.834 -29.5 -102.501s-49 -57.334 -88 -77.001s-86.5 -29.5 -142.5 -29.5zM318.998 52c41.333 0 76 6.83301 104 20.5s49 31.667 63 54s21 45.5 21 69.5c0 40.667 -16.167 74.334 -48.5 101.001s-78.833 40 -139.5 40
c-61.333 0 -108 -13.333 -140 -40s-48 -60.334 -48 -101.001c0 -24 6.83301 -47.167 20.5 -69.5s34.5 -40.333 62.5 -54s63 -20.5 105 -20.5zM318.998 400c54.667 0 96.333 11.167 125 33.5s43 52.5 43 90.5c0 21.333 -6.33301 41.5 -19 60.5s-31.5 34.333 -56.5 46
s-55.833 17.5 -92.5 17.5s-67.667 -5.83301 -93 -17.5s-44.333 -27 -57 -46s-19 -39.167 -19 -60.5c0 -38 14.333 -68.167 43 -90.5s70.667 -33.5 126 -33.5z" />
    <glyph glyph-name="nine" unicode="9" horiz-adv-x="615" 
d="M221 0l205.003 310.002c-18 -18.667 -38.333 -31.834 -61 -39.501s-46.334 -11.5 -71.001 -11.5c-50.667 0 -93.834 10.5 -129.501 31.5s-63 48.333 -82 82s-28.5 70.167 -28.5 109.5c0 40 9.83301 77.5 29.5 112.5s48.167 63.5 85.5 85.5s83 33 137 33
c47.333 0 90.166 -9.33301 128.499 -28s69 -45.334 92 -80.001s34.5 -76 34.5 -124c0 -28 -4 -54.833 -12 -80.5s-19.167 -51.667 -33.5 -78s-31.833 -54.833 -52.5 -85.5l-159 -237h-83zM306.003 321.002c33.333 0 63.668 6.66699 91.001 20s49.5 32 66.5 56
s25.5 52 25.5 84c0 35.333 -8.33301 65.5 -25 90.5s-38.834 44.167 -66.501 57.5s-58.167 20 -91.5 20c-39.333 0 -72.333 -7.83301 -99 -23.5s-46.667 -36.167 -60 -61.5s-20 -52.333 -20 -81c0 -28 6.5 -54.333 19.5 -79s32.667 -44.667 59 -60s59.833 -23 100.5 -23z" />
    <glyph glyph-name="colon" unicode=":" horiz-adv-x="180" 
d="M90 413c-14 0 -26.333 5.33203 -37 15.999s-16 23 -16 37c0 14.667 5.33301 27.167 16 37.5s23 15.5 37 15.5c14.667 0 27.167 -5.16699 37.5 -15.5s15.5 -22.833 15.5 -37.5c0 -9.33301 -2.5 -18.166 -7.5 -26.499s-11.5 -14.833 -19.5 -19.5s-16.667 -7 -26 -7z
M90 -9.00098c-14 0 -26.333 5.33203 -37 15.999s-16 23 -16 37c0 14.667 5.33301 27.167 16 37.5s23 15.5 37 15.5c14.667 0 27.167 -5.16699 37.5 -15.5s15.5 -22.833 15.5 -37.5c0 -9.33301 -2.5 -18.166 -7.5 -26.499s-11.5 -14.833 -19.5 -19.5s-16.667 -7 -26 -7z" />
    <glyph glyph-name="semicolon" unicode=";" horiz-adv-x="180" 
d="M90 413c-14 0 -26.333 5.33301 -37 16s-16 23 -16 37c0 14.667 5.33301 27.167 16 37.5s23 15.5 37 15.5c14.667 0 27.167 -5.16699 37.5 -15.5s15.5 -22.833 15.5 -37.5c0 -14 -5.16699 -26.333 -15.5 -37s-22.833 -16 -37.5 -16zM34 -146l41 140
c-12 3.33301 -21.333 9.83301 -28 19.5s-10 20.167 -10 31.5c0 14 5.33301 26.167 16 36.5s23 15.5 37 15.5c16 0 28.833 -5.33301 38.5 -16s14.5 -23.667 14.5 -39c0 -10 -1 -19.5 -3 -28.5s-4.66699 -19.167 -8 -30.5l-38 -129h-60z" />
    <glyph glyph-name="less" unicode="&#x3c;" horiz-adv-x="564" 
d="M514 108l-464 207v71l464 208v-67l-393 -176l393 -176v-67z" />
    <glyph glyph-name="equal" unicode="=" horiz-adv-x="590" 
d="M71 426v63h448v-63h-448zM71 208v63h448v-63h-448z" />
    <glyph glyph-name="greater" unicode="&#x3e;" horiz-adv-x="564" 
d="M50 108v67l393 176l-393 176v67l464 -208v-71z" />
    <glyph glyph-name="question" unicode="?" horiz-adv-x="414" 
d="M111 228v62c42 0 77.333 8.33301 106 25s50.167 38.334 64.5 65.001s21.5 55 21.5 85s-7.16699 58.167 -21.5 84.5s-35.833 47.833 -64.5 64.5s-64 25 -106 25h-54v61h54c55.333 0 102.666 -11.167 141.999 -33.5s69.5 -51.333 90.5 -87s31.5 -74.5 31.5 -116.5
c0 -40.667 -10.5 -78.834 -31.5 -114.501s-51.167 -64.667 -90.5 -87s-86.666 -33.5 -141.999 -33.5zM135 -9c-14 0 -26.333 5.33203 -37 15.999s-16 23 -16 37c0 14.667 5.33301 27.167 16 37.5s23 15.5 37 15.5c14.667 0 27.167 -5.16699 37.5 -15.5
s15.5 -22.833 15.5 -37.5c0 -9.33301 -2.33301 -18.166 -7 -26.499s-11 -14.833 -19 -19.5s-17 -7 -27 -7z" />
    <glyph glyph-name="at" unicode="@" horiz-adv-x="1056" 
d="M557 -218c-76 0.666992 -144.826 13.167 -206.493 37.5s-114.667 58.166 -159 101.499s-78.333 93.166 -102 149.499s-35.5 116.5 -35.5 180.5c0 65.333 12.167 126.333 36.5 183s58.333 106.5 102 149.5s94.167 76.5 151.5 100.5s118.666 36 183.999 36
s126.666 -12 183.999 -36s107.833 -57.5 151.5 -100.5s77.667 -92.833 102 -149.5s36.5 -117.667 36.5 -183c0 -37.333 -5.83301 -72 -17.5 -104s-29.834 -57.667 -54.501 -77s-56.334 -29 -95.001 -29c-34 0 -63.167 9 -87.5 27s-42.166 42.333 -53.499 73
c-16.667 -30 -39.334 -54.167 -68.001 -72.5s-62 -27.5 -100 -27.5c-38.667 0 -74 9.5 -106 28.5s-57.5 44.333 -76.5 76s-28.5 66.834 -28.5 105.501c0 39.333 9.5 75 28.5 107s44.5 57.5 76.5 76.5s67.333 28.5 106 28.5c39.333 0 75 -9.5 107 -28.5
s57.667 -44.5 77 -76.5s29 -67.667 29 -107v-43c0 -20.667 4.33301 -39 13 -55s20.167 -28.333 34.5 -37s29.833 -13 46.5 -13c26 0 46.667 7.16699 62 21.5s26.166 32.833 32.499 55.5s9.5 46.334 9.5 71.001c0 56 -10.5 108.5 -31.5 157.5s-50.167 92 -87.5 129
s-80.833 66.167 -130.5 87.5s-102.834 32 -159.501 32s-109.667 -10.667 -159 -32s-92.833 -50.5 -130.5 -87.5s-67 -80 -88 -129s-31.5 -101.5 -31.5 -157.5c0 -54.667 10.167 -106.334 30.5 -155.001s49.666 -91.667 87.999 -129s84.5 -66.666 138.5 -87.999
s114.333 -32.333 181 -33h27v-64h-27zM526.007 103c29.333 0 55 7 77 21s39.333 32.333 52 55s19 46.667 19 72c0 26 -6.33301 50.333 -19 73s-30 41.167 -52 55.5s-47.667 21.5 -77 21.5c-28.667 0 -54 -7.16699 -76 -21.5s-39.167 -32.833 -51.5 -55.5
s-18.5 -47 -18.5 -73c0 -25.333 6.16699 -49.333 18.5 -72s29.5 -41 51.5 -55s47.333 -21 76 -21z" />
    <glyph glyph-name="A" unicode="A" horiz-adv-x="685" 
d="M3 0l244 639c10 26 22.833 44.833 38.5 56.5s34.167 17.5 55.5 17.5c22 0 41 -5.66699 57 -17s28.667 -30 38 -56l246 -640h-79l-70 184h-384l-70 -184h-76zM171 248h340l-136 367c-4 10.667 -8.5 19 -13.5 25s-11.5 9 -19.5 9c-8.66699 0 -15.167 -3 -19.5 -9
s-8.83301 -14.333 -13.5 -25z" />
    <glyph glyph-name="B" unicode="B" horiz-adv-x="692" 
d="M79 0l-0.000976562 699.999h373c36.667 0 68.334 -8 95.001 -24s47.5 -37.167 62.5 -63.5s22.5 -55.833 22.5 -88.5c0 -23.333 -5.16699 -46.166 -15.5 -68.499s-24.5 -41.833 -42.5 -58.5s-39.333 -28.667 -64 -36c28 -6 52.5 -17.667 73.5 -35s37.167 -38 48.5 -62
s17 -49.667 17 -77c0 -33.333 -7.5 -64.333 -22.5 -93s-37 -51.5 -66 -68.5s-63.833 -25.5 -104.5 -25.5h-377zM150.999 64.999l292 0.000976562c28.667 0 53 6.16699 73 18.5s35.167 28.666 45.5 48.999s15.5 41.833 15.5 64.5c0 22 -5.5 42.833 -16.5 62.5
s-26.667 35.5 -47 47.5s-45.5 18 -75.5 18h-287v-260zM150.999 388h273.001c27.333 0 51.166 6 71.499 18s36 27.5 47 46.5s16.5 39.5 16.5 61.5c0 21.333 -5 41.333 -15 60s-24.5 33.667 -43.5 45s-41.5 17 -67.5 17h-282v-248z" />
    <glyph glyph-name="C" unicode="C" horiz-adv-x="503" 
d="M388 0c-53.333 0.666992 -101.833 10.166 -145.5 28.499s-81.334 43.5 -113.001 75.5s-56.167 69.167 -73.5 111.5s-26 87.5 -26 135.5s8.66699 93 26 135s41.833 78.833 73.5 110.5s69.334 56.834 113.001 75.501s92.167 28 145.5 28h81v-64h-78
c-40.667 -0.666992 -78.5 -8.16699 -113.5 -22.5s-65.5 -34.333 -91.5 -60s-46.167 -55.834 -60.5 -90.501s-21.5 -72 -21.5 -112c0 -41.333 7.16699 -79.166 21.5 -113.499s34.5 -64.5 60.5 -90.5s56.5 -46.167 91.5 -60.5s72.833 -21.5 113.5 -21.5h78v-65h-81z" />
    <glyph glyph-name="D" unicode="D" horiz-adv-x="710" 
d="M79 0v700h219c73.333 0 137.333 -15 192 -45s97 -71.167 127 -123.5s45 -112.5 45 -180.5s-15 -128.5 -45 -181.5s-72.333 -94.5 -127 -124.5s-118.667 -45 -192 -45h-219zM151 64l148 -0.000976562c55.333 0 105 11.5 149 34.5s78.5 56 103.5 99s37.5 94.167 37.5 153.5
c0 58.667 -12.5 109.334 -37.5 152.001s-59.5 75.5 -103.5 98.5s-93.667 34.5 -149 34.5h-148v-572z" />
    <glyph glyph-name="E" unicode="E" horiz-adv-x="558" 
d="M242 0c-38.667 0 -72.332 8.99609 -100.999 26.9961s-50.834 41.833 -66.501 71.5s-23.5 61.167 -23.5 94.5s8.5 64.833 25.5 94.5s41.833 52.167 74.5 67.5c-32.667 16.667 -56.834 38.834 -72.501 66.501s-23.5 56.834 -23.5 87.501c0 35.333 8.33301 67.333 25 96
s39 51.5 67 68.5s59.333 25.5 94 25.5h271v-64h-263c-23.333 0 -44.166 -5.5 -62.499 -16.5s-32.833 -26.167 -43.5 -45.5s-16 -40.666 -16 -63.999c0 -21.333 5.66699 -41.333 17 -60s26.333 -33.5 45 -44.5s40 -16.5 64 -16.5h222v-64h-216
c-28.667 0 -53.167 -6.33301 -73.5 -19s-35.666 -29 -45.999 -49s-15.5 -41.333 -15.5 -64c0 -22 5 -42.667 15 -62s24.667 -35.166 44 -47.499s42.666 -18.5 69.999 -18.5h259v-64h-270z" />
    <glyph glyph-name="F" unicode="F" horiz-adv-x="527" 
d="M74 0v528.999c0.666992 33.333 8.16699 62.833 22.5 88.5s34.333 45.834 60 60.501s55.5 22 89.5 22h246v-64h-239c-32.667 0 -58.667 -10.167 -78 -30.5s-29 -45.833 -29 -76.5v-157h309v-64h-309v-308h-72z" />
    <glyph glyph-name="G" unicode="G" horiz-adv-x="835" 
d="M606 -222c-30.667 0 -58.499 6.50098 -83.499 19.501s-44.667 32 -59 57s-21.5 55.5 -21.5 91.5c0 8 0.333008 16.5 1 25.5s1.66699 17.833 3 26.5c-54.667 -4.66699 -106 0.333008 -154 15s-90.333 38 -127 70s-65.334 70.833 -86.001 116.5s-31 97.167 -31 154.5
c0 49.333 8.5 95.666 25.5 138.999s41.167 81.5 72.5 114.5s69 58.833 113 77.5s93 28 147 28c54.667 0 104 -9.16699 148 -27.5s81.667 -43.833 113 -76.5s55.333 -70.5 72 -113.5s25 -88.833 25 -137.5v-405c0 -36.667 -6.5 -68 -19.5 -94s-31.5 -46 -55.5 -60
s-51.667 -21 -83 -21zM601.001 -154.999c25.333 0 46.833 8.66699 64.5 26s26.5 43.666 26.5 78.999v270c-40 -23.333 -72 -47.5 -96 -72.5s-42.167 -49.5 -54.5 -73.5s-20.5 -46.333 -24.5 -67s-6 -38.667 -6 -54c0 -23.333 4.16699 -43.166 12.5 -59.499
s19.5 -28.5 33.5 -36.5s28.667 -12 44 -12zM406.001 60.001c12 0 22.667 0.501953 32 1.50195s19.666 2.5 30.999 4.5c9.33301 25.333 22.833 51.333 40.5 78s41.334 52.834 71.001 78.501s66.834 50.167 111.501 73.5v62c0 41.333 -7.16699 79.666 -21.5 114.999
s-34.333 66.166 -60 92.499s-55.834 46.666 -90.501 60.999s-72.667 21.5 -114 21.5c-40.667 0 -78.5 -7.33301 -113.5 -22s-65.333 -35.167 -91 -61.5s-45.667 -57.5 -60 -93.5s-21.5 -75 -21.5 -117s7.16699 -81 21.5 -117s34.333 -67.167 60 -93.5s56 -46.833 91 -61.5
s72.833 -22 113.5 -22z" />
    <glyph glyph-name="H" unicode="H" horiz-adv-x="703" 
d="M79 0v699h72v-311h401v311h72v-699h-72v324h-401v-324h-72z" />
    <glyph glyph-name="I" unicode="I" horiz-adv-x="454" 
d="M52 0v64h139v572h-139v64h350v-64h-139v-572h139v-64h-350z" />
    <glyph glyph-name="J" unicode="J" horiz-adv-x="405" 
d="M171 -217c-28.667 0 -55.0029 5.83496 -79.0029 17.502s-42.833 29 -56.5 52s-20.5 51.167 -20.5 84.5c0 31.333 6.33301 65.666 19 102.999s36.334 76.666 71.001 117.999s84.334 83.333 149.001 126v352h-156v64h228v-747c0 -36.667 -6.66699 -67.667 -20 -93
s-31.666 -44.5 -54.999 -57.5s-50 -19.5 -80 -19.5zM166.997 -151.998c15.333 0 29.666 3.66797 42.999 11.001s24 18.5 32 33.5s12 34.167 12 57.5v258c-50.667 -36.667 -88.167 -71.667 -112.5 -105s-40.166 -63.5 -47.499 -90.5s-11 -49.833 -11 -68.5
c0 -32.667 8.5 -56.834 25.5 -72.501s36.5 -23.5 58.5 -23.5z" />
    <glyph glyph-name="K" unicode="K" horiz-adv-x="679" 
d="M79 0l0.00292969 700.001h72v-328h206c31.333 0 59.666 5.83301 84.999 17.5s45.5 28.167 60.5 49.5s22.5 47 22.5 77v184h73v-183c0 -44.667 -12 -83.334 -36 -116.001s-56 -56.667 -96 -72l94 -224c6 -14.667 13 -25 21 -31s19 -9 33 -9h42v-65h-52
c-27.333 0 -49.833 6.16699 -67.5 18.5s-31.834 30.5 -42.501 54.5l-100 239c-8.66699 -1.33301 -17.334 -2.33301 -26.001 -3s-17.667 -1 -27 -1h-190v-308h-72z" />
    <glyph glyph-name="L" unicode="L" horiz-adv-x="472" 
d="M247 0c-35.333 0 -66 7.49902 -92 22.499s-46 35.833 -60 62.5s-21 57 -21 91v523h72v-533c0 -29.333 9.16699 -53.666 27.5 -72.999s43.5 -29 75.5 -29h188v-64h-190z" />
    <glyph glyph-name="M" unicode="M" horiz-adv-x="1090" 
d="M546 -12c-34 0 -64.6641 7.83301 -91.9971 23.5s-48.833 37.667 -64.5 66s-23.5 60.833 -23.5 97.5v361c0 21.333 -5 40.5 -15 57.5s-23.167 30.333 -39.5 40s-34.5 14.5 -54.5 14.5s-38.333 -4.83301 -55 -14.5s-30 -23 -40 -40s-15 -36.167 -15 -57.5v-536h-72v525
c0 36.667 7.66699 69 23 97s36.666 50.167 63.999 66.5s59 24.5 95 24.5c35.333 0 66.666 -8.16699 93.999 -24.5s48.833 -38.5 64.5 -66.5s23.5 -60.333 23.5 -97v-361c0 -21.333 5 -40.5 15 -57.5s23 -30.333 39 -40s33.667 -14.5 53 -14.5s37 4.83301 53 14.5
s28.833 23 38.5 40s14.5 36.167 14.5 57.5v361c0 36.667 7.66699 69 23 97s36.833 50.167 64.5 66.5s59.167 24.5 94.5 24.5c36 0 67.5 -8.16699 94.5 -24.5s48.167 -38.5 63.5 -66.5s23 -60.333 23 -97v-525h-72v536c0 21.333 -4.83301 40.5 -14.5 57.5
s-22.667 30.333 -39 40s-34.833 14.5 -55.5 14.5c-20 0 -38.5 -4.83301 -55.5 -14.5s-30.333 -23 -40 -40s-14.5 -36.167 -14.5 -57.5v-361c0 -36.667 -7.66699 -69.167 -23 -97.5s-36.333 -50.333 -63 -66s-57.334 -23.5 -92.001 -23.5z" />
    <glyph glyph-name="N" unicode="N" horiz-adv-x="798" 
d="M546 -13c-34.667 0 -65.665 8.16699 -92.998 24.5s-48.666 38.666 -63.999 66.999s-23 60.5 -23 96.5v361c0 21.333 -5 40.5 -15 57.5s-23.167 30.333 -39.5 40s-34.5 14.5 -54.5 14.5s-38.333 -4.83301 -55 -14.5s-30 -23 -40 -40s-15 -36.167 -15 -57.5v-536h-72v525
c0 36.667 7.66699 69 23 97s36.666 50.167 63.999 66.5s59 24.5 95 24.5c35.333 0 66.666 -8.16699 93.999 -24.5s48.833 -38.5 64.5 -66.5s23.5 -60.333 23.5 -97v-361c0 -22 5 -41.333 15 -58s23 -29.834 39 -39.501s33.667 -14.5 53 -14.5s37 4.83301 53 14.5
s28.667 22.834 38 39.501s14 36 14 58v536h72v-525c0 -36 -7.33301 -68.167 -22 -96.5s-35.334 -50.666 -62.001 -66.999s-57.667 -24.5 -93 -24.5z" />
    <glyph glyph-name="O" unicode="O" horiz-adv-x="820" 
d="M410 -13c-54.667 0 -104.334 9.33301 -149.001 28s-82.834 44.667 -114.501 78s-56 72 -73 116s-25.5 91 -25.5 141s8.5 97 25.5 141s41.333 82.667 73 116s69.834 59.333 114.501 78s94.334 28 149.001 28c55.333 0 105.166 -9.33301 149.499 -28
s82.333 -44.667 114 -78s56 -72 73 -116s25.5 -91 25.5 -141s-8.5 -97 -25.5 -141s-41.333 -82.667 -73 -116s-69.667 -59.333 -114 -78s-94.166 -28 -149.499 -28zM410 52c42 0 80.667 7.33301 116 22s66 35.5 92 62.5s46.167 58.667 60.5 95s21.5 75.833 21.5 118.5
c0 43.333 -7.16699 83 -21.5 119s-34.5 67.5 -60.5 94.5s-56.667 48 -92 63s-74 22.5 -116 22.5c-41.333 0 -79.666 -7.5 -114.999 -22.5s-66.166 -36 -92.499 -63s-46.666 -58.667 -60.999 -95s-21.5 -75.833 -21.5 -118.5s7.16699 -82.167 21.5 -118.5
s34.666 -68 60.999 -95s57.166 -47.833 92.499 -62.5s73.666 -22 114.999 -22z" />
    <glyph glyph-name="P" unicode="P" horiz-adv-x="654" 
d="M79 0v699.998h296c42.667 0 81.667 -9.66699 117 -29s63.5 -46.166 84.5 -80.499s31.5 -74.166 31.5 -119.499c0 -44 -10.167 -83.333 -30.5 -118s-48.333 -61.667 -84 -81s-76.5 -29 -122.5 -29h-220v-243h-72zM151 306.998l212.002 0.000976562c32 0 61 6.5 87 19.5
s46.833 31.667 62.5 56s23.5 53.833 23.5 88.5s-7.83301 64.167 -23.5 88.5s-36.334 43.166 -62.001 56.499s-53.834 20 -84.501 20h-215v-329z" />
    <glyph glyph-name="Q" unicode="Q" horiz-adv-x="820" 
d="M375 -203v207h71v-207h-71zM410 -13c-54.667 0 -104.334 9.33301 -149.001 28s-82.834 44.667 -114.501 78s-56 72 -73 116s-25.5 91 -25.5 141s8.5 97 25.5 141s41.333 82.667 73 116s69.834 59.333 114.501 78s94.334 28 149.001 28
c55.333 0 105.166 -9.33301 149.499 -28s82.333 -44.667 114 -78s56 -72 73 -116s25.5 -91 25.5 -141s-8.5 -97 -25.5 -141s-41.333 -82.667 -73 -116s-69.667 -59.333 -114 -78s-94.166 -28 -149.499 -28zM410 52c42 0 80.667 7.33301 116 22s66 35.5 92 62.5
s46.167 58.667 60.5 95s21.5 75.833 21.5 118.5c0 43.333 -7.16699 83 -21.5 119s-34.5 67.5 -60.5 94.5s-56.667 48 -92 63s-74 22.5 -116 22.5c-41.333 0 -79.666 -7.5 -114.999 -22.5s-66.166 -36 -92.499 -63s-46.666 -58.667 -60.999 -95s-21.5 -75.833 -21.5 -118.5
s7.16699 -82.167 21.5 -118.5s34.666 -68 60.999 -95s57.166 -47.833 92.499 -62.5s73.666 -22 114.999 -22z" />
    <glyph glyph-name="R" unicode="R" horiz-adv-x="675" 
d="M79 0v699.999h304c42.667 0 81.667 -9.33301 117 -28s63.5 -44.667 84.5 -78s31.5 -72 31.5 -116c0 -47.333 -12.333 -88.666 -37 -123.999s-57.667 -61.333 -99 -78l79 -171c6.66699 -14 14 -24.167 22 -30.5s19 -9.5 33 -9.5h42v-65h-52c-25.333 -0 -47 6.33301 -65 19
s-33 30.667 -45 54l-86 186l-24.5 -2c-8.33301 -0.666992 -16.5 -1 -24.5 -1h-208v-256h-72zM151 319.999h220.002c32 0 61 6.16699 87 18.5s46.833 30.333 62.5 54s23.5 52.167 23.5 85.5c0 32.667 -7.83301 61 -23.5 85s-36.334 42.167 -62.001 54.5
s-53.834 18.5 -84.501 18.5h-223v-316z" />
    <glyph glyph-name="S" unicode="S" horiz-adv-x="628" 
d="M74 0v64.002h305c27.333 0 50.833 6.33301 70.5 19s34.5 29.167 44.5 49.5s15 41.5 15 63.5s-4.83301 42.667 -14.5 62s-24 35 -43 47s-41.833 18 -68.5 18h-140c-40 0 -74.5 8.16699 -103.5 24.5s-51.333 38.5 -67 66.5s-23.5 59.333 -23.5 94s7.83301 66.5 23.5 95.5
s38 52.333 67 70s63.5 26.5 103.5 26.5h293v-64h-288c-26 0 -48.5 -6 -67.5 -18s-33.667 -27.5 -44 -46.5s-15.5 -38.833 -15.5 -59.5s4.83301 -40.334 14.5 -59.001s23.667 -33.834 42 -45.501s40.833 -17.5 67.5 -17.5h141c42 0 77.5 -8.33301 106.5 -25
s51 -39.167 66 -67.5s22.5 -59.5 22.5 -93.5c0 -38 -7.83301 -72.5 -23.5 -103.5s-38 -55.5 -67 -73.5s-63.833 -27 -104.5 -27h-312z" />
    <glyph glyph-name="T" unicode="T" horiz-adv-x="570" 
d="M422 0c-35.333 0 -65.999 7.49902 -91.999 22.499s-46 35.833 -60 62.5s-21 57 -21 91v460h-222v64h516v-64h-222v-470c0 -29.333 9.16699 -53.666 27.5 -72.999s43.166 -29 74.499 -29h44v-64h-45z" />
    <glyph glyph-name="U" unicode="U" 
d="M348 -13c-52.667 0 -99.333 11.5 -140 34.5s-72.667 55.5 -96 97.5s-35 92 -35 150v431h72v-441c0 -38 8.16699 -72.5 24.5 -103.5s39.333 -56 69 -75s64.834 -28.5 105.501 -28.5c41.333 0 76.833 9.33301 106.5 28s52.5 43.667 68.5 75s24 66 24 104v441h72v-431
c0 -58 -11.667 -108 -35 -150s-55.333 -74.5 -96 -97.5s-87.334 -34.5 -140.001 -34.5z" />
    <glyph glyph-name="V" unicode="V" horiz-adv-x="669" 
d="M334 -13c-20.667 0 -38.501 6 -53.501 18s-27.5 30.667 -37.5 56l-240 639h79l220 -610c4 -10.667 8.16699 -19.167 12.5 -25.5s10.833 -9.5 19.5 -9.5c8 0 14.333 3.16699 19 9.5s9 14.833 13 25.5l224 610h76l-241 -639c-9.33301 -25.333 -21.666 -44 -36.999 -56
s-33.333 -18 -54 -18z" />
    <glyph glyph-name="W" unicode="W" horiz-adv-x="1126" 
d="M337 -13c-51.333 0 -96.665 10.666 -135.998 31.999s-70.166 52 -92.499 92s-33.5 87.333 -33.5 142v447h72v-453c0 -35.333 7.66699 -67.833 23 -97.5s37.333 -53.334 66 -71.001s62.334 -26.5 101.001 -26.5c39.333 0 73.166 8.83301 101.499 26.5
s50.166 41.334 65.499 71.001s23 62.167 23 97.5v453h72v-453c0 -35.333 7.83301 -67.833 23.5 -97.5s37.667 -53.334 66 -71.001s61.833 -26.5 100.5 -26.5c39.333 0 73.166 8.83301 101.499 26.5s50.166 41.334 65.499 71.001s23 62.167 23 97.5v453h72v-447
c0 -54.667 -11.167 -102 -33.5 -142s-53.166 -70.667 -92.499 -92s-84.666 -32 -135.999 -32c-32 0 -63.167 5.16699 -93.5 15.5s-56.833 26.333 -79.5 48s-40.334 48.834 -53.001 81.501c-12 -32.667 -29.667 -59.667 -53 -81s-49.833 -37.333 -79.5 -48
s-60.834 -16 -93.501 -16z" />
    <glyph glyph-name="X" unicode="X" horiz-adv-x="673" 
d="M59 0l225 333c-36.667 6.66699 -70.5 20.5 -101.5 41.5s-55.667 48.667 -74 83s-27.5 74.5 -27.5 120.5v122h73v-133c0 -30 7.5 -58.167 22.5 -84.5s35.5 -47.833 61.5 -64.5s56 -25.667 90 -27l207 309h83l-213 -314c47.333 -4.66699 87 -17.834 119 -39.501
s56 -49.334 72 -83.001s24 -71.167 24 -112.5v-151h-72v157c0 48.667 -16.333 88.834 -49 120.501s-78.667 47.834 -138 48.501l-219 -326h-83z" />
    <glyph glyph-name="Y" unicode="Y" 
d="M311 0v206.999c-50.667 5.33301 -93.5 20.833 -128.5 46.5s-61.333 58.834 -79 99.501s-26.5 85.334 -26.5 134.001v212h72v-219c0 -37.333 7.66699 -72 23 -104s38 -57.833 68 -77.5s66 -29.5 108 -29.5c42.667 0 78.667 9.83301 108 29.5s51.833 45.5 67.5 77.5
s23.5 66.667 23.5 104v219h72v-212c0 -48.667 -9 -93.334 -27 -134.001s-44.5 -74 -79.5 -100s-78.167 -41.333 -129.5 -46v-207h-72z" />
    <glyph glyph-name="Z" unicode="Z" horiz-adv-x="614" 
d="M189 0c-42 0 -75.167 13.001 -99.5 39.001s-36.5 57 -36.5 93c0 25.333 5.5 46.666 16.5 63.999s28.5 35.333 52.5 54l318 252c16.667 12 28 23.167 34 33.5s9 22.833 9 37.5c0 10 -2.66699 19.833 -8 29.5s-12.666 17.667 -21.999 24s-20 9.5 -32 9.5h-344l1 64h346
c28.667 0 53 -6 73 -18s35.333 -27.667 46 -47s16 -40.666 16 -63.999c0 -26.667 -6 -49.5 -18 -68.5s-29.667 -37.167 -53 -54.5l-314 -250c-12 -8.66699 -21.333 -16.334 -28 -23.001s-11.5 -13.5 -14.5 -20.5s-4.5 -15.833 -4.5 -26.5c0 -9.33301 2.83301 -19 8.5 -29
s13.667 -18.333 24 -25s22.166 -10 35.499 -10h362v-64h-368z" />
    <glyph glyph-name="bracketleft" unicode="[" horiz-adv-x="320" 
d="M79 -180v910h224v-64h-156v-782h156v-64h-224z" />
    <glyph glyph-name="backslash" unicode="\" horiz-adv-x="322" 
d="M285 -100l-302 830h67l302 -830h-67z" />
    <glyph glyph-name="bracketright" unicode="]" horiz-adv-x="320" 
d="M17 -180v64h156v782h-156v64h224v-910h-224z" />
    <glyph glyph-name="asciicircum" unicode="^" horiz-adv-x="570" 
d="M71 376l181 354h65l181 -354h-65l-149 292l-150 -292h-63z" />
    <glyph glyph-name="underscore" unicode="_" horiz-adv-x="500" 
d="M0 -94v53h500v-53h-500z" />
    <glyph glyph-name="grave" unicode="`" horiz-adv-x="205" 
d="M92 757l-96 123h68l96 -123h-68z" />
    <glyph glyph-name="a" unicode="a" horiz-adv-x="649" 
d="M295 -13c-51.333 0 -95.334 12 -132.001 36s-64.667 56.167 -84 96.5s-29 85.5 -29 135.5c0 50.667 10.667 96.167 32 136.5s51.833 72.166 91.5 95.499s86.834 35 141.501 35c52.667 0 98.167 -11.667 136.5 -35s68 -54.666 89 -93.999s31.5 -83.666 31.5 -132.999v-260
h-69v114h-3c-9.33301 -20 -23.333 -39.833 -42 -59.5s-41.5 -35.834 -68.5 -48.501s-58.5 -19 -94.5 -19zM309.999 47c37.333 0 70.332 9.16504 98.999 27.498s51.334 43.333 68.001 75s24.667 67.5 24 107.5c0 39.333 -7.66699 74.333 -23 105s-37 55 -65 73
s-61.333 27 -100 27c-40 0 -74.333 -9.16699 -103 -27.5s-50.667 -43.333 -66 -75s-23 -67.5 -23 -107.5c0 -37.333 7.33301 -71.666 22 -102.999s36.167 -56.166 64.5 -74.499s62.5 -27.5 102.5 -27.5z" />
    <glyph glyph-name="b" unicode="b" horiz-adv-x="642" 
d="M333 -13c-46.667 0 -89.6689 10.332 -129.002 30.999s-70.666 51 -93.999 91s-35 88.333 -35 145v476h70v-325h2c11.333 22.667 27 42.834 47 60.501s42.667 31.5 68 41.5s52 15 80 15c46 0 87.833 -10.667 125.5 -32s67.834 -51.5 90.501 -90.5s34 -85.833 34 -140.5
c0 -42.667 -6.66699 -80.834 -20 -114.501s-31.833 -62.167 -55.5 -85.5s-51.167 -41.166 -82.5 -53.499s-65 -18.5 -101 -18.5zM331.998 47.999c34 0 65.332 8.16699 93.999 24.5s51.667 40 69 71s26 68.167 26 111.5c0 42 -8.66699 78.5 -26 109.5
s-40.166 54.833 -68.499 71.5s-59.166 25 -92.499 25s-64.333 -8.16699 -93 -24.5s-51.667 -39.833 -69 -70.5s-26 -68 -26 -112s8.5 -81.333 25.5 -112s39.667 -54 68 -70s59.166 -24 92.499 -24z" />
    <glyph glyph-name="c" unicode="c" horiz-adv-x="416" 
d="M325 0c-52.667 0 -99.667 11.333 -141 34s-74 53.167 -98 91.5s-36 81.5 -36 129.5s12 91.167 36 129.5s56.667 68.833 98 91.5s88.333 34 141 34h58v-61h-63c-36.667 0 -70 -8.5 -100 -25.5s-54 -40.167 -72 -69.5s-27 -62.333 -27 -99s9 -69.667 27 -99
s42 -52.5 72 -69.5s63.333 -25.5 100 -25.5h63v-61h-58z" />
    <glyph glyph-name="d" unicode="d" horiz-adv-x="642" 
d="M309 -13c-35.333 0 -68.833 6.16797 -100.5 18.501s-59.334 30.166 -83.001 53.499s-42.167 51.833 -55.5 85.5s-20 71.834 -20 114.501c0 54.667 11.333 101.5 34 140.5s52.834 69.167 90.501 90.5s79.5 32 125.5 32c28 0 54.667 -5 80 -15s48 -23.833 68 -41.5
s35.667 -37.834 47 -60.501h2v325h70v-476c0 -56.667 -11.667 -105 -35 -145s-54.5 -70.333 -93.5 -91s-82.167 -31 -129.5 -31zM310 48.001c33.333 0 64.1641 8 92.4971 24s51 39.333 68 70s25.5 68 25.5 112s-8.66699 81.333 -26 112s-40.166 54.167 -68.499 70.5
s-59.5 24.5 -93.5 24.5c-33.333 0 -64.166 -8.33301 -92.499 -25s-51.166 -40.5 -68.499 -71.5s-26 -67.5 -26 -109.5c0 -43.333 8.66699 -80.5 26 -111.5s40.5 -54.667 69.5 -71s60.167 -24.5 93.5 -24.5z" />
    <glyph glyph-name="e" unicode="e" horiz-adv-x="573" 
d="M336 0c-54.667 0 -103.5 10.167 -146.5 30.5s-77 49.5 -102 87.5s-37.5 83.667 -37.5 137c0 49.333 10 94.166 30 134.499s48.167 72.5 84.5 96.5s78.833 36 127.5 36c50 0 92.333 -11 127 -33s61 -51.667 79 -89s27 -79.333 27 -126c0 -6.66699 -0.333008 -14 -1 -22
s-1.66699 -15 -3 -21h-397c2 -37.333 12.667 -68.666 32 -93.999s44.5 -44.333 75.5 -57s64.5 -19 100.5 -19h129v-61h-125zM124 281l330.001 0.00292969c0 13.333 -1.33301 28.166 -4 44.499s-7.5 32.5 -14.5 48.5s-16.667 30.667 -29 44s-28 24.166 -47 32.499
s-42.167 12.5 -69.5 12.5c-25.333 0 -48.333 -5.33301 -69 -16s-38 -24.834 -52 -42.501s-24.833 -37.167 -32.5 -58.5s-11.834 -43 -12.501 -65z" />
    <glyph glyph-name="f" unicode="f" horiz-adv-x="387" 
d="M106 0v449h-90v61h90v75c0 45.333 12.833 80.833 38.5 106.5s61.167 38.5 106.5 38.5h116v-61h-103c-28.667 0 -50.667 -8 -66 -24s-23 -38.667 -23 -68v-67h173v-61h-173v-449h-69z" />
    <glyph glyph-name="g" unicode="g" horiz-adv-x="644" 
d="M155 -203v61.001h243c32.667 0 57.667 9.33301 75 28s26 44 26 76v146h-2c-12 -19.333 -27.333 -38 -46 -56s-40.834 -32.667 -66.501 -44s-55.167 -17 -88.5 -17c-49.333 0 -92.5 11.5 -129.5 34.5s-65.667 54.5 -86 94.5s-30.5 85.667 -30.5 137
c0 50 10.333 94.833 31 134.5s50.334 71.167 89.001 94.5s85 35 139 35c51.333 0 96.5 -11.333 135.5 -34s69.5 -53.834 91.5 -93.501s33 -85.5 33 -137.5v-302c0 -48 -14 -86.167 -42 -114.5s-66.333 -42.5 -115 -42.5h-257zM307 52.001c37.333 0 70.334 9 99.001 27
s51.167 42.167 67.5 72.5s24.5 65.166 24.5 104.499s-7.83301 74.333 -23.5 105s-37.834 55 -66.501 73s-62 27 -100 27c-38.667 0 -72.167 -9.16699 -100.5 -27.5s-49.833 -43 -64.5 -74s-22 -66.5 -22 -106.5c0 -37.333 7.33301 -71.166 22 -101.499s36 -54.5 64 -72.5
s61.333 -27 100 -27z" />
    <glyph glyph-name="h" unicode="h" horiz-adv-x="632" 
d="M77 0v730.001h70v-301c20 31.333 46.167 54.833 78.5 70.5s66.5 23.5 102.5 23.5c42.667 0 81.167 -9.16699 115.5 -27.5s61.5 -44.333 81.5 -78s30 -73.834 30 -120.501l-1 -297h-69v294c0 35.333 -8.16699 65.5 -24.5 90.5s-37.333 44.167 -63 57.5
s-53.167 20 -82.5 20c-28 0 -55 -6.5 -81 -19.5s-47 -31.833 -63 -56.5s-24 -54.667 -24 -90v-296h-70z" />
    <glyph glyph-name="i" unicode="i" horiz-adv-x="224" 
d="M77 0v510h70v-510h-70zM112 602c-13.333 0 -25 5 -35 15s-15 21.667 -15 35c0 14 5 25.833 15 35.5s21.667 14.5 35 14.5c14 0 25.833 -4.83301 35.5 -14.5s14.5 -21.5 14.5 -35.5c0 -13.333 -4.83301 -25 -14.5 -35s-21.5 -15 -35.5 -15z" />
    <glyph glyph-name="j" unicode="j" horiz-adv-x="224" 
d="M-78 -147l1 61h65c30 0 52.333 8 67 24s22 38.667 22 68v504h70v-512c0 -44.667 -12.833 -80 -38.5 -106s-61.167 -39 -106.5 -39h-80zM111 602c-13.333 0 -25 5 -35 15s-15 21.667 -15 35c0 14 5 25.833 15 35.5s21.667 14.5 35 14.5c14 0 25.833 -4.83301 35.5 -14.5
s14.5 -21.5 14.5 -35.5c0 -13.333 -4.83301 -25 -14.5 -35s-21.5 -15 -35.5 -15z" />
    <glyph glyph-name="k" unicode="k" horiz-adv-x="611" 
d="M77 0v730.001h70v-443h169l139 223h79l-148 -233c50.667 -12.667 90 -38.334 118 -77.001s42 -84.667 42 -138v-62h-69v62c0 31.333 -7 59.333 -21 84s-33.167 44.167 -57.5 58.5s-52.833 21.5 -85.5 21.5h-166v-226h-70z" />
    <glyph glyph-name="l" unicode="l" horiz-adv-x="224" 
d="M77 0v730h70v-730h-70z" />
    <glyph glyph-name="m" unicode="m" horiz-adv-x="972" 
d="M77 0l-0.00292969 308c0 39.333 8.83301 75.166 26.5 107.499s42.834 58.166 75.501 77.499s71.667 29 117 29c23.333 0 47.166 -3.5 71.499 -10.5s47 -19 68 -36s37.5 -40.5 49.5 -70.5h1c12 30 28.667 53.5 50 70.5s44.333 29 69 36s48.334 10.5 71.001 10.5
c46 0 85.333 -9.66699 118 -29s57.667 -45.166 75 -77.499s26 -68.166 26 -107.499v-308h-69v308c0 30 -6.66699 56.333 -20 79s-31.166 40.834 -53.499 54.501s-47.833 20.5 -76.5 20.5c-29.333 0 -55.666 -6.83301 -78.999 -20.5s-41.833 -32.167 -55.5 -55.5
s-20.5 -49.333 -20.5 -78v-308h-70v308c0 28.667 -7 54.667 -21 78s-32.5 41.833 -55.5 55.5s-49.167 20.5 -78.5 20.5c-28 0 -53.5 -6.83301 -76.5 -20.5s-41 -31.834 -54 -54.501s-19.5 -49 -19.5 -79v-308h-69z" />
    <glyph glyph-name="n" unicode="n" horiz-adv-x="620" 
d="M77 0v297c0 46.667 10.5 86.834 31.5 120.501s49.167 59.667 84.5 78s74.333 27.5 117 27.5c43.333 0 82.5 -9.16699 117.5 -27.5s63 -44.333 84 -78s31.5 -73.834 31.5 -120.501v-297h-70v294c0 35.333 -7.66699 65.5 -23 90.5s-35.5 44.167 -60.5 57.5
s-51.833 20 -80.5 20c-28 0 -54.333 -6.5 -79 -19.5s-44.667 -32 -60 -57s-23 -55.5 -23 -91.5v-294h-70z" />
    <glyph glyph-name="o" unicode="o" horiz-adv-x="630" 
d="M315 -13c-51.333 0 -97 11.832 -137 35.499s-71.333 55.834 -94 96.501s-34 86 -34 136s11.333 95.333 34 136s54 72.834 94 96.501s85.667 35.5 137 35.5s96.833 -11.833 136.5 -35.5s71 -55.667 94 -96s34.5 -85.833 34.5 -136.5c0 -50 -11.5 -95.333 -34.5 -136
s-54.333 -72.834 -94 -96.501s-85.167 -35.5 -136.5 -35.5zM315 47.999c38 0 71.667 9.16699 101 27.5s52.166 43.166 68.499 74.499s24.5 66.333 24.5 105s-8.16699 73.667 -24.5 105s-39.166 56.166 -68.499 74.499s-63 27.5 -101 27.5
c-38.667 0 -72.5 -9.16699 -101.5 -27.5s-51.667 -43.166 -68 -74.499s-24.5 -66.333 -24.5 -105s8.16699 -73.667 24.5 -105s39 -56.166 68 -74.499s62.833 -27.5 101.5 -27.5z" />
    <glyph glyph-name="p" unicode="p" horiz-adv-x="642" 
d="M333 523c36 0 69.6689 -6.16992 101.002 -18.5029s58.833 -30.166 82.5 -53.499s42.167 -51.833 55.5 -85.5s20 -71.834 20 -114.501c0 -54 -11.333 -100.667 -34 -140s-52.834 -69.666 -90.501 -90.999s-79.5 -32 -125.5 -32c-28 0 -54.667 5 -80 15
s-48 23.833 -68 41.5s-35.667 37.834 -47 60.501h-2v-325h-70v476c0 57.333 11.667 105.833 35 145.5s54.666 69.834 93.999 90.501s82.333 31 129 31zM332.002 461.997c-33.333 0 -64.165 -8 -92.498 -24s-51 -39.333 -68 -70s-25.5 -68 -25.5 -112
c0 -43.333 8.66699 -80.5 26 -111.5s40.333 -54.667 69 -71s59.667 -24.5 93 -24.5s64.166 8.33301 92.499 25s51.166 40.5 68.499 71.5s26 67.5 26 109.5c0 43.333 -8.66699 80.5 -26 111.5s-40.333 54.667 -69 71s-60 24.5 -94 24.5z" />
    <glyph glyph-name="q" unicode="q" horiz-adv-x="630" 
d="M280 -203v204h70v-204h-70zM315 -13c-51.333 0 -97 11.832 -137 35.499s-71.333 55.834 -94 96.501s-34 86 -34 136s11.333 95.333 34 136s54 72.834 94 96.501s85.667 35.5 137 35.5s96.833 -11.833 136.5 -35.5s71 -55.667 94 -96s34.5 -85.833 34.5 -136.5
c0 -50 -11.5 -95.333 -34.5 -136s-54.333 -72.834 -94 -96.501s-85.167 -35.5 -136.5 -35.5zM315 47.999c38 0 71.667 9.16699 101 27.5s52.166 43.166 68.499 74.499s24.5 66.333 24.5 105s-8.16699 73.667 -24.5 105s-39.166 56.166 -68.499 74.499s-63 27.5 -101 27.5
c-38.667 0 -72.5 -9.16699 -101.5 -27.5s-51.667 -43.166 -68 -74.499s-24.5 -66.333 -24.5 -105s8.16699 -73.667 24.5 -105s39 -56.166 68 -74.499s62.833 -27.5 101.5 -27.5z" />
    <glyph glyph-name="r" unicode="r" horiz-adv-x="321" 
d="M75 0v365c0 45.333 12.833 80.833 38.5 106.5s61.167 38.5 106.5 38.5h88v-61h-74c-29.333 0 -51.5 -8 -66.5 -24s-22.5 -38.667 -22.5 -68v-357h-70z" />
    <glyph glyph-name="s" unicode="s" horiz-adv-x="522" 
d="M66 0l0.00292969 61h240c20.667 0 38 4.33301 52 13s24.833 20 32.5 34s11.5 28.333 11.5 43s-3.33301 28.167 -10 40.5s-16.334 22.5 -29.001 30.5s-28.667 12 -48 12h-107c-32.667 0 -60.834 5.5 -84.501 16.5s-41.667 26.833 -54 47.5s-18.5 44.667 -18.5 72
c0 24.667 6 47.667 18 69s29 38.5 51 51.5s47.667 19.5 77 19.5h231v-61h-224c-26 0 -46.333 -7.83301 -61 -23.5s-22 -33.5 -22 -53.5c0 -19.333 7.33301 -36.666 22 -51.999s36.667 -23 66 -23h100c36 0 66.167 -6 90.5 -18s42.666 -28.667 54.999 -50
s18.5 -46.333 18.5 -75c0 -26 -6.66699 -50.833 -20 -74.5s-31.5 -42.834 -54.5 -57.501s-49.833 -22 -80.5 -22h-252z" />
    <glyph glyph-name="t" unicode="t" horiz-adv-x="401" 
d="M250 0c-45.333 0 -80.833 13 -106.5 39s-38.5 61.333 -38.5 106v493h70v-485c0 -29.333 7.5 -52 22.5 -68s37.167 -24 66.5 -24h98v-61h-112zM16 449v61h348v-61h-348z" />
    <glyph glyph-name="u" unicode="u" horiz-adv-x="621" 
d="M310 -13c-42.667 0 -81.668 9.16602 -117.001 27.499s-63.5 44.5 -84.5 78.5s-31.5 74 -31.5 120v297h70v-294c0 -35.333 7.83301 -65.666 23.5 -90.999s35.834 -44.5 60.501 -57.5s51 -19.5 79 -19.5c28.667 0 55.5 6.66699 80.5 20s45.167 32.5 60.5 57.5
s23 55.167 23 90.5v294h70v-297c0 -46 -10.5 -86 -31.5 -120s-49 -60.167 -84 -78.5s-74.5 -27.5 -118.5 -27.5z" />
    <glyph glyph-name="v" unicode="v" horiz-adv-x="578" 
d="M289 -12c-20 0 -37.501 5.83203 -52.501 17.499s-27.167 28.834 -36.5 51.501l-175 452h78l161 -428c4 -8.66699 8 -15 12 -19s8.66699 -6 14 -6c4.66699 0 8.83398 2 12.501 6s7.16699 10.333 10.5 19l163 428h77l-177 -453c-8.66699 -22.667 -20.5 -39.667 -35.5 -51
s-32.167 -17 -51.5 -17z" />
    <glyph glyph-name="w" unicode="w" horiz-adv-x="975" 
d="M238 -13c-29.333 0 -56.3379 6 -81.0049 18s-44.167 30.667 -58.5 56s-21.5 58.333 -21.5 99v350h70v-364c0 -22.667 4.33301 -41.167 13 -55.5s19.834 -25 33.501 -32s28.5 -10.5 44.5 -10.5c15.333 0 30 3.5 44 10.5s25.333 17.833 34 32.5s13 33 13 55v210
c0 38.667 7.16699 70.334 21.5 95.001s33.5 42.834 57.5 54.501s50.333 17.5 79 17.5s55 -5.83301 79 -17.5s43.167 -29.834 57.5 -54.501s21.5 -56.334 21.5 -95.001v-210c0 -22 4.33301 -40.333 13 -55s20.167 -25.5 34.5 -32.5s29.5 -10.5 45.5 -10.5
c15.333 0 29.833 3.5 43.5 10.5s24.834 17.833 33.501 32.5s13 33 13 55v364h70v-350c0 -40.667 -7.16699 -73.667 -21.5 -99s-33.666 -44 -57.999 -56s-51.166 -18 -80.499 -18c-30 0 -57.333 6 -82 18s-44.334 30.667 -59.001 56s-22 58.333 -22 99v206
c0 23.333 -4.16699 42 -12.5 56s-19.166 24.167 -32.499 30.5s-27.666 9.5 -42.999 9.5c-14.667 0 -28.667 -3.16699 -42 -9.5s-24.333 -16.5 -33 -30.5s-13 -32.667 -13 -56v-206c0 -40.667 -7.33301 -73.667 -22 -99s-34 -44 -58 -56s-51 -18 -81 -18z" />
    <glyph glyph-name="x" unicode="x" horiz-adv-x="599" 
d="M49 0l186.001 241.999c-34 8 -64.167 22.167 -90.5 42.5s-47 44.833 -62 73.5s-22.5 59.334 -22.5 92.001v59h69v-59c0 -28.667 7.83301 -54.5 23.5 -77.5s36.167 -41.667 61.5 -56s52.666 -22.833 81.999 -25.5l166 218h79l-176 -229
c36 -9.33301 67.667 -24.666 95 -45.999s48.5 -46.833 63.5 -76.5s22.5 -62.167 22.5 -97.5v-60h-70v60c0 30.667 -7.33301 58.167 -22 82.5s-35 44.166 -61 59.499s-55.667 24.333 -89 27l-175 -229h-80z" />
    <glyph glyph-name="y" unicode="y" horiz-adv-x="621" 
d="M276 -203l-0.000976562 193c-37.333 4.66699 -71 16.5 -101 35.5s-53.833 44.5 -71.5 76.5s-26.5 69 -26.5 111v297h70v-294c0 -35.333 7.83301 -65.666 23.5 -90.999s35.834 -44.5 60.501 -57.5s51 -19.5 79 -19.5c28.667 0 55.5 6.66699 80.5 20s45.333 32.5 61 57.5
s23.5 55.167 23.5 90.5v294h69v-297c0 -42.667 -8.83301 -79.834 -26.5 -111.501s-41.5 -57 -71.5 -76s-63.333 -30.5 -100 -34.5v-194h-70z" />
    <glyph glyph-name="z" unicode="z" horiz-adv-x="513" 
d="M143 0c-20 0 -37.833 4.83301 -53.5 14.5s-28.167 22.167 -37.5 37.5s-14 32.333 -14 51c0 21.333 5 40 15 56s25.667 30.333 47 43l248 154c14 8 22.833 16 26.5 24s5.5 16.667 5.5 26c0 11.333 -4.16699 21.333 -12.5 30s-19.833 13 -34.5 13h-270v61h292
c20 0 37.667 -4.83301 53 -14.5s27.5 -22.167 36.5 -37.5s13.5 -32.333 13.5 -51c0 -21.333 -4.83301 -40 -14.5 -56s-25.167 -30.333 -46.5 -43l-247 -154c-14 -8 -23.167 -16 -27.5 -24s-6.5 -16.667 -6.5 -26c0 -11.333 4.5 -21.333 13.5 -30s20.833 -13 35.5 -13h285
v-61h-307z" />
    <glyph glyph-name="braceleft" unicode="{" horiz-adv-x="360" 
d="M257 -180c-38 0 -67.6631 11.332 -88.9961 33.999s-32 54 -32 94v234c0 12 -2.83301 23.333 -8.5 34s-13.5 19.5 -23.5 26.5s-21.333 10.5 -34 10.5h-35v64h35c19.333 0 35.166 7.16699 47.499 21.5s18.5 30.5 18.5 48.5v221c0 38.667 10.667 68.667 32 90s51 32 89 32
h86v-64h-78c-17.333 0 -31.666 -5.66699 -42.999 -17s-17 -26.333 -17 -45v-214c0 -11.333 -2.33301 -24 -7 -38s-11.834 -27.167 -21.501 -39.5s-21.834 -21.5 -36.501 -27.5c15.333 -6.66699 27.666 -16.167 36.999 -28.5s16.333 -25.333 21 -39s7 -26.5 7 -38.5v-229
c0 -19.333 5.66699 -35.166 17 -47.499s25.666 -18.5 42.999 -18.5h78v-64h-86z" />
    <glyph glyph-name="bar" unicode="|" horiz-adv-x="226" 
d="M79 -180v910h68v-910h-68z" />
    <glyph glyph-name="braceright" unicode="}" horiz-adv-x="360" 
d="M17 -180l0.00292969 64.001h78c18 0 32.5 6.16699 43.5 18.5s16.5 28.166 16.5 47.499v229c0 12 2.16699 24.833 6.5 38.5s11.5 26.667 21.5 39s22.333 21.833 37 28.5c-14.667 6 -26.834 15.167 -36.501 27.5s-16.834 25.5 -21.501 39.5s-7 26.667 -7 38v214
c0 18.667 -5.5 33.667 -16.5 45s-25.5 17 -43.5 17h-78v64h86c38 0 67.667 -10.667 89 -32s32 -51.333 32 -90v-221c0 -18 6.16699 -34.167 18.5 -48.5s28.166 -21.5 47.499 -21.5h35v-64h-35c-12.667 0 -24 -3.5 -34 -10.5s-17.833 -15.833 -23.5 -26.5s-8.5 -22 -8.5 -34
v-234c0 -40 -10.667 -71.333 -32 -94s-51 -34 -89 -34h-86z" />
    <glyph glyph-name="asciitilde" unicode="~" horiz-adv-x="576" 
d="M377 287c-21.333 0 -40.6729 3.33398 -58.0059 10.001s-33.666 14.5 -48.999 23.5s-30.5 16.833 -45.5 23.5s-30.5 10 -46.5 10c-18 0 -34.833 -4 -50.5 -12s-33.5 -21 -53.5 -39l-35 44c23.333 22 46 38.833 68 50.5s45 17.5 69 17.5
c20.667 0 39.334 -3.33301 56.001 -10s32.834 -14.5 48.501 -23.5s31.334 -16.833 47.001 -23.5s32.5 -10 50.5 -10c16.667 0 32.167 3.33301 46.5 10s28 15.167 41 25.5s25.833 21.166 38.5 32.499l34 -44c-31.333 -29.333 -59.166 -50.833 -83.499 -64.5
s-50.166 -20.5 -77.499 -20.5z" />
    <glyph glyph-name="uni00A0" unicode="&#xa0;" horiz-adv-x="265" 
 />
    <glyph glyph-name="exclamdown" unicode="&#xa1;" horiz-adv-x="248" 
d="M89 -191v482h70v-482h-70zM124 519c9.33301 0 18 -2.33301 26 -7s14.5 -11 19.5 -19s7.5 -17 7.5 -27c0 -14 -5.16699 -26.333 -15.5 -37s-22.833 -16 -37.5 -16c-14 0 -26.333 5.33301 -37 16s-16 23 -16 37c0 14.667 5.33301 27.167 16 37.5s23 15.5 37 15.5z" />
    <glyph glyph-name="cent" unicode="&#xa2;" horiz-adv-x="409" 
d="M235 -119v142l53 -8v-134h-53zM235 487v142h53v-134zM325 0c-52.667 0 -99.667 11.333 -141 34s-74 53.167 -98 91.5s-36 81.5 -36 129.5s12 91.167 36 129.5s56.667 68.833 98 91.5s88.333 34 141 34h58v-61h-63c-36.667 0 -70 -8.5 -100 -25.5s-54 -40.167 -72 -69.5
s-27 -62.333 -27 -99s9 -69.667 27 -99s42 -52.5 72 -69.5s63.333 -25.5 100 -25.5h63v-61h-58z" />
    <glyph glyph-name="sterling" unicode="&#xa3;" horiz-adv-x="597" 
d="M75 0l-0.000976562 64h108v442c0 37.333 7.66699 70.5 23 99.5s36.833 51.833 64.5 68.5s59.834 25 96.501 25h145v-64h-145c-32.667 0 -59.5 -11.333 -80.5 -34s-31.5 -52 -31.5 -88v-449h292v-64h-472zM74.999 335v64h365v-64h-365z" />
    <glyph glyph-name="currency" unicode="&#xa4;" horiz-adv-x="675" 
d="M101 33l-47.001 46l81 81c-17.333 21.333 -31 45.333 -41 72s-15 55.334 -15 86.001c0 30 4.83301 58 14.5 84s22.834 49.333 39.501 70l-77 76l47 47l76 -76c21.333 17.333 45.5 30.833 72.5 40.5s54.833 14.5 83.5 14.5c30.667 0 59.5 -5.16699 86.5 -15.5
s51.167 -24.166 72.5 -41.499l81 81l46 -47l-82 -81c36 -44.667 54 -95.334 54 -152.001c0 -28.667 -5 -56.334 -15 -83.001s-23.667 -50.667 -41 -72l84 -82l-47 -48l-84 83c-21.333 -16 -45 -28.833 -71 -38.5s-54 -14.5 -84 -14.5c-57.333 0 -108 17.333 -152 52z
M334.999 126c35.333 0 67.498 8.66602 96.498 25.999s52.333 40.5 70 69.5s26.5 61.167 26.5 96.5c0 36 -8.83301 68.333 -26.5 97s-41 51.667 -70 69s-61.167 26 -96.5 26s-67.5 -8.66699 -96.5 -26s-52 -40.5 -69 -69.5s-25.5 -61.167 -25.5 -96.5
c0 -33.333 7.83301 -64.666 23.5 -93.999s37.834 -53 66.501 -71s62.334 -27 101.001 -27z" />
    <glyph glyph-name="yen" unicode="&#xa5;" horiz-adv-x="722" 
d="M324 0v133.002h-279v53h279v75c-20 2 -38.833 5.66699 -56.5 11s-33.834 12.333 -48.501 21h-174v52h112c-22.667 25.333 -39.5 54.833 -50.5 88.5s-16.5 69.167 -16.5 106.5v160h72v-167c0 -37.333 7.83301 -72 23.5 -104s38.334 -57.833 68.001 -77.5
s65.5 -29.5 107.5 -29.5c42.667 0 78.834 9.83301 108.501 29.5s52.167 45.5 67.5 77.5s23 66.667 23 104v167h72v-160c0 -38 -5.5 -73.833 -16.5 -107.5s-27.833 -62.834 -50.5 -87.501h112v-52h-174c-14.667 -8.66699 -30.834 -15.834 -48.501 -21.501
s-37.167 -9.5 -58.5 -11.5v-74h281v-53h-281v-133h-72z" />
    <glyph glyph-name="brokenbar" unicode="&#xa6;" horiz-adv-x="226" 
d="M79 331v399h68v-399h-68zM79 -180v399h68v-399h-68z" />
    <glyph glyph-name="section" unicode="&#xa7;" horiz-adv-x="628" 
d="M149 -157l-0.00195312 60.999h197c24.667 0 45.167 5 61.5 15s28.666 23.167 36.999 39.5s12.5 33.5 12.5 51.5c0 16 -3.66699 32.167 -11 48.5s-18.5 30 -33.5 41s-34.5 16.5 -58.5 16.5h-145c-33.333 0 -61.666 7.5 -84.999 22.5s-40.833 34.667 -52.5 59
s-17.5 50.5 -17.5 78.5c0 20 3.5 39.5 10.5 58.5s18.167 36 33.5 51s34 25.833 56 32.5c-19.333 12.667 -34 29.5 -44 50.5s-15 42.833 -15 65.5c0 28.667 6.5 55.667 19.5 81s32.5 45.833 58.5 61.5s58.667 23.5 98 23.5h201v-61h-196c-25.333 0 -46.166 -5 -62.499 -15
s-28.666 -23.167 -36.999 -39.5s-12.5 -33.5 -12.5 -51.5c0 -17.333 3.5 -33.5 10.5 -48.5s17.5 -27.5 31.5 -37.5s31 -15 51 -15h162c34 0 62.5 -7.5 85.5 -22.5s40.333 -34.5 52 -58.5s17.5 -50.333 17.5 -79c0 -21.333 -4 -41.833 -12 -61.5
s-20.167 -36.834 -36.5 -51.501s-36.5 -25 -60.5 -31c20 -13.333 35.167 -30.666 45.5 -51.999s15.5 -43.666 15.5 -66.999c0 -28.667 -6.5 -55.667 -19.5 -81s-32.333 -45.833 -58 -61.5s-58.5 -23.5 -98.5 -23.5h-201zM219.998 175.999h191c20 0 37 4.66699 51 14
s24.667 21.5 32 36.5s11 30.833 11 47.5s-3.66699 32.5 -11 47.5s-18.166 27.167 -32.499 36.5s-32.166 14 -53.499 14h-191c-20 0 -37 -4.66699 -51 -14s-24.667 -21.5 -32 -36.5s-11 -30.833 -11 -47.5s3.66699 -32.5 11 -47.5s18.166 -27.167 32.499 -36.5
s32.166 -14 53.499 -14z" />
    <glyph glyph-name="dieresis" unicode="&#xa8;" horiz-adv-x="356" 
d="M266 802c-12 0 -22.333 4.33301 -31 13s-13 19 -13 31s4.33301 22.333 13 31s19 13 31 13s22.333 -4.33301 31 -13s13 -19 13 -31s-4.33301 -22.333 -13 -31s-19 -13 -31 -13zM89 802c-12 0 -22.333 4.33301 -31 13s-13 19 -13 31s4.33301 22.333 13 31s19 13 31 13
s22.333 -4.33301 31 -13s13 -19 13 -31s-4.33301 -22.333 -13 -31s-19 -13 -31 -13z" />
    <glyph glyph-name="copyright" unicode="&#xa9;" horiz-adv-x="855" 
d="M428 -28c-52 0 -100.667 9.66699 -146 29s-85 46 -119 80s-60.667 73.667 -80 119s-29 94 -29 146s9.66699 100.5 29 145.5s46 84.5 80 118.5s73.667 60.667 119 80s94 29 146 29s100.5 -9.66699 145.5 -29s84.667 -46 119 -80s61 -73.5 80 -118.5
s28.5 -93.5 28.5 -145.5s-9.5 -100.667 -28.5 -146s-45.667 -85 -80 -119s-74 -60.667 -119 -80s-93.5 -29 -145.5 -29zM428 13c46 0 89.167 8.66699 129.5 26s75.5 41.166 105.5 71.499s53.667 65.666 71 105.999s26 83.5 26 129.5s-8.66699 89 -26 129
s-41 75.167 -71 105.5s-65.167 54.166 -105.5 71.499s-83.5 26 -129.5 26s-89.167 -8.66699 -129.5 -26s-75.666 -41.166 -105.999 -71.499s-54 -65.5 -71 -105.5s-25.5 -83 -25.5 -129s8.5 -89.167 25.5 -129.5s40.667 -75.666 71 -105.999s65.666 -54.166 105.999 -71.499
s83.5 -26 129.5 -26zM458 153c-38 0.666992 -71.999 9.50098 -101.999 26.501s-53.167 39.667 -69.5 68s-24.5 60.166 -24.5 95.499c0.666992 35.333 9.16699 67.333 25.5 96s39.166 51.167 68.499 67.5s63 24.833 101 25.5h54v-50h-56
c-25.333 0 -48.666 -6.16699 -69.999 -18.5s-38.333 -29 -51 -50s-19 -44.5 -19 -70.5s6.33301 -49.5 19 -70.5s29.667 -37.833 51 -50.5s44.666 -19 69.999 -19h56v-50h-53z" />
    <glyph glyph-name="ordfeminine" unicode="&#xaa;" horiz-adv-x="426" 
d="M206 387c-31.333 0 -58.5 7.33301 -81.5 22s-40.5 34.167 -52.5 58.5s-18 51.833 -18 82.5s6.33301 58.167 19 82.5s31 43.833 55 58.5s52.667 22 86 22s61.833 -7.16699 85.5 -21.5s41.667 -33.5 54 -57.5s18.5 -51 18.5 -81v-160h-53v64h-1
c-12 -22.667 -27 -40 -45 -52s-40.333 -18 -67 -18zM214 433c29.333 0 54.168 10.6689 74.501 32.002s30.5 49.666 30.5 84.999c0 32.667 -9.33301 60.167 -28 82.5s-44.334 33.5 -77.001 33.5c-34 0 -60.333 -11.167 -79 -33.5s-28 -49.833 -28 -82.5
s9.33301 -60.334 28 -83.001s45 -34 79 -34z" />
    <glyph glyph-name="guillemotleft" unicode="&#xab;" horiz-adv-x="524" 
d="M390 119l-149 195l149 196h70l-147 -196l147 -195h-70zM197 119l-149 195l149 196h70l-147 -196l147 -195h-70z" />
    <glyph glyph-name="logicalnot" unicode="&#xac;" horiz-adv-x="559" 
d="M455 148v117h-415v61h479v-178h-64z" />
    <glyph glyph-name="uni00AD" unicode="&#xad;" horiz-adv-x="363" 
d="M40 232v64h283v-64h-283z" />
    <glyph glyph-name="registered" unicode="&#xae;" horiz-adv-x="855" 
d="M428 -28c-52 0 -100.667 9.66699 -146 29s-85 46 -119 80s-60.667 73.667 -80 119s-29 94 -29 146s9.66699 100.5 29 145.5s46 84.5 80 118.5s73.667 60.667 119 80s94 29 146 29s100.5 -9.66699 145.5 -29s84.667 -46 119 -80s61 -73.5 80 -118.5
s28.5 -93.5 28.5 -145.5s-9.5 -100.667 -28.5 -146s-45.667 -85 -80 -119s-74 -60.667 -119 -80s-93.5 -29 -145.5 -29zM428 13c46 0 89.167 8.66699 129.5 26s75.5 41.166 105.5 71.499s53.667 65.666 71 105.999s26 83.5 26 129.5s-8.66699 89 -26 129
s-41 75.167 -71 105.5s-65.167 54.166 -105.5 71.499s-83.5 26 -129.5 26s-89.167 -8.66699 -129.5 -26s-75.666 -41.166 -105.999 -71.499s-54 -65.5 -71 -105.5s-25.5 -83 -25.5 -129s8.5 -89.167 25.5 -129.5s40.667 -75.666 71 -105.999s65.666 -54.166 105.999 -71.499
s83.5 -26 129.5 -26zM292 153l0.00292969 379.001h163c24 0 45.667 -5.33301 65 -16s34.666 -25.167 45.999 -43.5s17 -39.5 17 -63.5c0 -23.333 -6.5 -45.5 -19.5 -66.5s-32.833 -36.167 -59.5 -45.5l48 -87c3.33301 -4.66699 7.16602 -8.33398 11.499 -11.001
s9.16602 -4 14.499 -4h25v-42h-31c-13.333 0 -25.5 3 -36.5 9s-19.833 14.667 -26.5 26l-53 97h-114v-132h-50zM342.003 330.001l109 0.000976562c21.333 0 40.333 7 57 21s25 34 25 60c0 21.333 -8.16699 39.166 -24.5 53.499s-35.833 21.5 -58.5 21.5h-108v-156z" />
    <glyph glyph-name="macron" unicode="&#xaf;" horiz-adv-x="300" 
d="M6 596v49h288v-49h-288z" />
    <glyph glyph-name="degree" unicode="&#xb0;" horiz-adv-x="419" 
d="M209 398c-28.667 0 -54.833 7 -78.5 21s-42.667 33 -57 57s-21.5 50.333 -21.5 79c0 29.333 7.16699 55.833 21.5 79.5s33.5 42.667 57.5 57s50 21.5 78 21.5c29.333 0 55.833 -7.16699 79.5 -21.5s42.667 -33.333 57 -57s21.5 -50.167 21.5 -79.5
c0 -28.667 -7.16699 -55 -21.5 -79s-33.333 -43 -57 -57s-50.167 -21 -79.5 -21zM209.001 449c19.333 0 36.833 4.83203 52.5 14.499s28.167 22.334 37.5 38.001s14 33.5 14 53.5s-4.66699 37.833 -14 53.5s-21.833 28.167 -37.5 37.5s-33.167 14 -52.5 14
s-37 -4.66699 -53 -14s-28.667 -21.833 -38 -37.5s-14 -33.5 -14 -53.5c0 -19.333 4.66699 -37 14 -53s22 -28.833 38 -38.5s33.667 -14.5 53 -14.5z" />
    <glyph glyph-name="plusminus" unicode="&#xb1;" horiz-adv-x="548" 
d="M241 220v175h-191v61h191v176h67v-176h190v-61h-190v-175h-67zM50 27v63h448v-63h-448z" />
    <glyph glyph-name="uni00B2" unicode="&#xb2;" horiz-adv-x="431" 
d="M144 271c-19.333 0 -35.832 3.66797 -49.499 11.001s-23.834 16.833 -30.501 28.5s-10 24.167 -10 37.5c0 12.667 3.5 25.5 10.5 38.5s17.167 23.167 30.5 30.5l176 104c12.667 7.33301 22.167 16.666 28.5 27.999s9.5 23 9.5 35c0 18.667 -6.5 34.667 -19.5 48
s-30.833 20 -53.5 20h-158v48h160c25.333 0 47.5 -5.33301 66.5 -16s33.667 -24.667 44 -42s15.5 -36.666 15.5 -57.999c0 -20 -4.66699 -38.833 -14 -56.5s-23.333 -31.834 -42 -42.501l-179 -105c-12.667 -6.66699 -19 -16 -19 -28c0 -8.66699 3.5 -16.167 10.5 -22.5
s16.833 -9.5 29.5 -9.5h223v-49h-229z" />
    <glyph glyph-name="uni00B3" unicode="&#xb3;" horiz-adv-x="425" 
d="M56 271l-0.00195312 48.999h181c22 0 39.5 6.83301 52.5 20.5s19.5 29.834 19.5 48.501c0 21.333 -6.83301 39.5 -20.5 54.5s-32.167 22.5 -55.5 22.5h-152v48h156c18 0 34.167 6.66699 48.5 20s21.5 30 21.5 50s-6.66699 36.333 -20 49s-29.333 19 -48 19h-183v48h189
c22.667 0 42.834 -5.16699 60.501 -15.5s31.834 -24.333 42.501 -42s16 -37.167 16 -58.5c0 -19.333 -5 -37.333 -15 -54s-24.667 -30.334 -44 -41.001c19.333 -9.33301 34.333 -23.166 45 -41.499s16 -37.5 16 -57.5c0 -20.667 -5 -40 -15 -58s-24 -32.667 -42 -44
s-39.333 -17 -64 -17h-189z" />
    <glyph glyph-name="acute" unicode="&#xb4;" horiz-adv-x="205" 
d="M29 757l96 123h68l-96 -123h-68z" />
    <glyph glyph-name="uni00B5" unicode="&#xb5;" horiz-adv-x="621" 
d="M77 -203l-0.000976562 712.999h70v-294c0 -35.333 7.83301 -65.666 23.5 -90.999s35.834 -44.5 60.501 -57.5s51 -19.5 79 -19.5c28.667 0 55.5 6.66699 80.5 20s45.167 32.5 60.5 57.5s23 55.167 23 90.5v294h70v-297c0 -46 -10.167 -86 -30.5 -120
s-48 -60.167 -83 -78.5s-73.833 -27.5 -116.5 -27.5c-22 0 -43.667 3.33301 -65 10s-40.833 16.5 -58.5 29.5s-32.167 28.833 -43.5 47.5v-277h-70z" />
    <glyph glyph-name="paragraph" unicode="&#xb6;" horiz-adv-x="654" 
d="M295 -203l0.000976562 440.002c-52 1.33301 -96.167 13.666 -132.5 36.999s-63.5 53.166 -81.5 89.499s-27 73.833 -27 112.5s9.16699 75 27.5 109s46.166 61.667 83.499 83s84.333 32 141 32h302v-51h-74v-852h-54v852h-131v-852h-54z" />
    <glyph glyph-name="periodcentered" unicode="&#xb7;" horiz-adv-x="266" 
d="M134 279c-14.667 0 -27.167 5.33301 -37.5 16s-15.5 23 -15.5 37c0 14.667 5.16699 27.167 15.5 37.5s22.833 15.5 37.5 15.5c14 0 26.167 -5.16699 36.5 -15.5s15.5 -22.833 15.5 -37.5c0 -14 -5.16699 -26.333 -15.5 -37s-22.5 -16 -36.5 -16z" />
    <glyph glyph-name="cedilla" unicode="&#xb8;" horiz-adv-x="204" 
d="M8 -203l92 221h70l-95 -221h-67z" />
    <glyph glyph-name="uni00B9" unicode="&#xb9;" horiz-adv-x="374" 
d="M59 271v49h107v332h-99v48h154v-380h97v-49h-259z" />
    <glyph glyph-name="ordmasculine" unicode="&#xba;" horiz-adv-x="430" 
d="M216 387c-32.667 0 -61.167 7.16602 -85.5 21.499s-43.166 33.5 -56.499 57.5s-20 50.333 -20 79c0 30 6.66699 57.167 20 81.5s32.166 43.666 56.499 57.999s52.833 21.5 85.5 21.5h196v-45h-91c19.333 -13.333 33.333 -30.166 42 -50.499s13 -42.166 13 -65.499
c0 -30 -6.83301 -57 -20.5 -81s-32.667 -42.833 -57 -56.5s-51.833 -20.5 -82.5 -20.5zM216 432.999c31.333 0 57 10.5 77 31.5s30 47.833 30 80.5c0 32 -9.5 59.167 -28.5 81.5s-45.167 33.5 -78.5 33.5c-34 0 -60.5 -11.167 -79.5 -33.5s-28.5 -49.5 -28.5 -81.5
c0 -30 9.5 -56.167 28.5 -78.5s45.5 -33.5 79.5 -33.5z" />
    <glyph glyph-name="guillemotright" unicode="&#xbb;" horiz-adv-x="515" 
d="M256 119l148 195l-148 196h70l149 -196l-149 -195h-70zM39 119l148 195l-148 196h70l149 -196l-149 -195h-70z" />
    <glyph glyph-name="onequarter" unicode="&#xbc;" horiz-adv-x="1007" 
d="M818 0l0.000976562 98.999h-158c-24 0 -43.833 7.5 -59.5 22.5s-23.5 32.833 -23.5 53.5c0 8 1.16699 15.833 3.5 23.5s5.5 14.834 9.5 21.501l122 209h62l-135 -227c-4 -7.33301 -6 -15 -6 -23s3.16699 -15.333 9.5 -22s15.166 -10 26.499 -10h149v150h55v-150h75v-48
h-75v-99h-55zM59.001 270.999v49h107v332h-99v48h154v-380h97v-49h-259zM211.001 -0.000976562l478 700h61l-479 -700h-60z" />
    <glyph glyph-name="onehalf" unicode="&#xbd;" horiz-adv-x="1041" 
d="M59 271v49h107v332h-99v48h154v-380h97v-49h-259zM220 0l478 700h61l-479 -700h-60zM746 24c-19.333 0 -35.832 3.66797 -49.499 11.001s-23.834 16.833 -30.501 28.5s-10 24.167 -10 37.5c0 12.667 3.5 25.5 10.5 38.5s17.167 23.167 30.5 30.5l176 104
c12.667 7.33301 22.167 16.666 28.5 27.999s9.5 23 9.5 35c0 18.667 -6.5 34.667 -19.5 48s-30.833 20 -53.5 20h-158v48h160c25.333 0 47.5 -5.33301 66.5 -16s33.667 -24.667 44 -42s15.5 -36.666 15.5 -57.999c0 -20 -4.66699 -38.833 -14 -56.5
s-23.333 -31.834 -42 -42.501l-179 -105c-12.667 -6.66699 -19 -16 -19 -28c0 -8.66699 3.5 -16.167 10.5 -22.5s16.833 -9.5 29.5 -9.5h223v-49h-229z" />
    <glyph glyph-name="threequarters" unicode="&#xbe;" horiz-adv-x="1050" 
d="M861 0l0.000976562 98.999h-159c-23.333 0 -42.833 7.5 -58.5 22.5s-23.5 32.833 -23.5 53.5c0 8 1 15.833 3 23.5s5.33301 14.834 10 21.501l122 209h62l-135 -227c-4 -7.33301 -6 -15 -6 -23c0 -8.66699 3.16699 -16.167 9.5 -22.5s15.166 -9.5 26.499 -9.5h149v150h55
v-150h75v-48h-75v-99h-55zM56.001 270.999l-0.00195312 48.999h181c22 0 39.5 6.83301 52.5 20.5s19.5 29.834 19.5 48.501c0 21.333 -6.83301 39.5 -20.5 54.5s-32.167 22.5 -55.5 22.5h-152v48h156c18 0 34.167 6.66699 48.5 20s21.5 30 21.5 50s-6.66699 36.333 -20 49
s-29.333 19 -48 19h-183v48h189c22.667 0 42.834 -5.16699 60.501 -15.5s31.834 -24.333 42.501 -42s16 -37.167 16 -58.5c0 -19.333 -5 -37.333 -15 -54s-24.667 -30.334 -44 -41.001c19.333 -9.33301 34.333 -23.166 45 -41.499s16 -37.5 16 -57.5
c0 -20.667 -5 -40 -15 -58s-24 -32.667 -42 -44s-39.333 -17 -64 -17h-189zM247.999 -0.00195312l478 700h61l-478 -700h-61z" />
    <glyph glyph-name="questiondown" unicode="&#xbf;" horiz-adv-x="391" 
d="M290 -190c-54.667 0 -101.832 11.167 -141.499 33.5s-70 51.5 -91 87.5s-31.5 74.667 -31.5 116c0 40.667 10.5 78.834 31.5 114.501s51.167 64.667 90.5 87s86.666 33.5 141.999 33.5v-62c-42 0 -77.167 -8.33301 -105.5 -25s-49.833 -38.334 -64.5 -65.001
s-22 -55 -22 -85s7.33301 -58.167 22 -84.5s36.167 -47.833 64.5 -64.5s63.5 -25 105.5 -25h54v-61h-54zM266.002 519c14.667 0 27.168 -5.16699 37.501 -15.5s15.5 -22.833 15.5 -37.5c0 -14 -5.16699 -26.333 -15.5 -37s-22.833 -16 -37.5 -16
c-14 0 -26.333 5.33301 -37 16s-16 23 -16 37c0 10 2.33301 19 7 27s11.167 14.333 19.5 19s17.166 7 26.499 7z" />
    <glyph glyph-name="Agrave" unicode="&#xc0;" horiz-adv-x="685" 
d="M3 0l244 639c10 26 22.833 44.833 38.5 56.5s34.167 17.5 55.5 17.5c22 0 41 -5.66699 57 -17s28.667 -30 38 -56l246 -640h-79l-70 184h-384l-70 -184h-76zM171 248h340l-136 367c-4 10.667 -8.5 19 -13.5 25s-11.5 9 -19.5 9c-8.66699 0 -15.167 -3 -19.5 -9
s-8.83301 -14.333 -13.5 -25zM304 757l-96 123h68l96 -123h-68z" />
    <glyph glyph-name="Aacute" unicode="&#xc1;" horiz-adv-x="685" 
d="M3 0l244 639c10 26 22.833 44.833 38.5 56.5s34.167 17.5 55.5 17.5c22 0 41 -5.66699 57 -17s28.667 -30 38 -56l246 -640h-79l-70 184h-384l-70 -184h-76zM171 248h340l-136 367c-4 10.667 -8.5 19 -13.5 25s-11.5 9 -19.5 9c-8.66699 0 -15.167 -3 -19.5 -9
s-8.83301 -14.333 -13.5 -25zM315 757l96 123h68l-96 -123h-68z" />
    <glyph glyph-name="Acircumflex" unicode="&#xc2;" horiz-adv-x="685" 
d="M3 0l244 639c10 26 22.833 44.833 38.5 56.5s34.167 17.5 55.5 17.5c22 0 41 -5.66699 57 -17s28.667 -30 38 -56l246 -640h-79l-70 184h-384l-70 -184h-76zM171 248h340l-136 367c-4 10.667 -8.5 19 -13.5 25s-11.5 9 -19.5 9c-8.66699 0 -15.167 -3 -19.5 -9
s-8.83301 -14.333 -13.5 -25zM205 757l96 123h83l96 -123h-61l-77 93l-76 -93h-61z" />
    <glyph glyph-name="Atilde" unicode="&#xc3;" horiz-adv-x="685" 
d="M3 0l244 639c10 26 22.833 44.833 38.5 56.5s34.167 17.5 55.5 17.5c22 0 41 -5.66699 57 -17s28.667 -30 38 -56l246 -640h-79l-70 184h-384l-70 -184h-76zM171 248h340l-136 367c-4 10.667 -8.5 19 -13.5 25s-11.5 9 -19.5 9c-8.66699 0 -15.167 -3 -19.5 -9
s-8.83301 -14.333 -13.5 -25zM412 747c-17.333 0 -31.668 2.83301 -43.001 8.5s-20.5 13 -27.5 22l-20.5 25.5c-6.66699 9.33301 -13.834 17.5 -21.501 24.5s-17.5 10.5 -29.5 10.5c-11.333 0 -21.166 -5 -29.499 -15s-12.5 -24 -12.5 -42v-24h-48v23
c0 33.333 9 59.166 27 77.499s39.667 27.5 65 27.5c22.667 0 40.667 -5.5 54 -16.5s24.333 -22.167 33 -33.5c8 -10 15.833 -19.167 23.5 -27.5s18.167 -12.5 31.5 -12.5c11.333 0 21.333 4.83301 30 14.5s13 23.834 13 42.501v24h48v-23
c0 -33.333 -9.16699 -59.333 -27.5 -78s-40.166 -28 -65.499 -28z" />
    <glyph glyph-name="Adieresis" unicode="&#xc4;" horiz-adv-x="685" 
d="M432 760c-12 0 -22.333 4.33301 -31 13s-13 19 -13 31s4.33301 22.333 13 31s19 13 31 13s22.333 -4.33301 31 -13s13 -19 13 -31s-4.33301 -22.333 -13 -31s-19 -13 -31 -13zM255 760c-12 0 -22.333 4.33301 -31 13s-13 19 -13 31s4.33301 22.333 13 31s19 13 31 13
s22.333 -4.33301 31 -13s13 -19 13 -31s-4.33301 -22.333 -13 -31s-19 -13 -31 -13zM3 0l244 639c10 26 22.833 44.833 38.5 56.5s34.167 17.5 55.5 17.5c22 0 41 -5.66699 57 -17s28.667 -30 38 -56l246 -640h-79l-70 184h-384l-70 -184h-76zM171 248h340l-136 367
c-4 10.667 -8.5 19 -13.5 25s-11.5 9 -19.5 9c-8.66699 0 -15.167 -3 -19.5 -9s-8.83301 -14.333 -13.5 -25z" />
    <glyph glyph-name="Aring" unicode="&#xc5;" horiz-adv-x="685" 
d="M3 0l244 639c10 26 22.833 44.833 38.5 56.5s34.167 17.5 55.5 17.5c22 0 41 -5.66699 57 -17s28.667 -30 38 -56l246 -640h-79l-70 184h-384l-70 -184h-76zM171 248h340l-136 367c-4 10.667 -8.5 19 -13.5 25s-11.5 9 -19.5 9c-8.66699 0 -15.167 -3 -19.5 -9
s-8.83301 -14.333 -13.5 -25zM342 749c-26.667 0 -49.167 9.16699 -67.5 27.5s-27.5 40.833 -27.5 67.5s9.16699 49.167 27.5 67.5s40.833 27.5 67.5 27.5s49.167 -9.16699 67.5 -27.5s27.5 -40.833 27.5 -67.5s-9.16699 -49.167 -27.5 -67.5s-40.833 -27.5 -67.5 -27.5z
M342 785c16.667 0 30.667 5.66699 42 17s17 25.333 17 42s-5.66699 30.667 -17 42s-25.333 17 -42 17c-16 0 -29.833 -5.66699 -41.5 -17s-17.5 -25.333 -17.5 -42s5.83301 -30.667 17.5 -42s25.5 -17 41.5 -17z" />
    <glyph glyph-name="AE" unicode="&#xc6;" horiz-adv-x="953" 
d="M3 0l244 639.002c10 26 22.833 44.833 38.5 56.5s34.167 17.5 55.5 17.5c19.333 0 36 -5 50 -15s26.667 -26 38 -48l24 -58c3.33301 20.667 11.5 39.167 24.5 55.5s30.667 29.166 53 38.499s48.5 14 78.5 14h319v-64h-315c-34 0 -60.833 -8 -80.5 -24
s-32.167 -36.5 -37.5 -61.5s-3.33301 -51.167 6 -78.5l32 -84h356v-64h-332l77 -197c6.66699 -18.667 17.5 -33.834 32.5 -45.501s34.5 -17.5 58.5 -17.5h203v-64h-221c-33.333 0 -62 8.5 -86 25.5s-40.667 37.833 -50 62.5l-37 96h-385l-70 -184h-76zM171 248.002h341
l-137 367c-4 10.667 -8.5 19 -13.5 25s-11.5 9 -19.5 9c-8.66699 0 -15.167 -3 -19.5 -9s-8.83301 -14.333 -13.5 -25z" />
    <glyph glyph-name="Ccedilla" unicode="&#xc7;" horiz-adv-x="538" 
d="M388 0c-53.333 0.666992 -101.833 10.166 -145.5 28.499s-81.334 43.5 -113.001 75.5s-56.167 69.167 -73.5 111.5s-26 87.5 -26 135.5s8.66699 93 26 135s41.833 78.833 73.5 110.5s69.334 56.834 113.001 75.501s92.167 28 145.5 28h81v-64h-78
c-40.667 -0.666992 -78.5 -8.16699 -113.5 -22.5s-65.5 -34.333 -91.5 -60s-46.167 -55.834 -60.5 -90.501s-21.5 -72 -21.5 -112c0 -41.333 7.16699 -79.166 21.5 -113.499s34.5 -64.5 60.5 -90.5s56.5 -46.167 91.5 -60.5s72.833 -21.5 113.5 -21.5h78v-65h-81z
M233 -203.001l92 221h70l-95 -221h-67z" />
    <glyph glyph-name="Egrave" unicode="&#xc8;" horiz-adv-x="558" 
d="M242 0c-38.667 0 -72.332 8.99609 -100.999 26.9961s-50.834 41.833 -66.501 71.5s-23.5 61.167 -23.5 94.5s8.5 64.833 25.5 94.5s41.833 52.167 74.5 67.5c-32.667 16.667 -56.834 38.834 -72.501 66.501s-23.5 56.834 -23.5 87.501c0 35.333 8.33301 67.333 25 96
s39 51.5 67 68.5s59.333 25.5 94 25.5h271v-64h-263c-23.333 0 -44.166 -5.5 -62.499 -16.5s-32.833 -26.167 -43.5 -45.5s-16 -40.666 -16 -63.999c0 -21.333 5.66699 -41.333 17 -60s26.333 -33.5 45 -44.5s40 -16.5 64 -16.5h222v-64h-216
c-28.667 0 -53.167 -6.33301 -73.5 -19s-35.666 -29 -45.999 -49s-15.5 -41.333 -15.5 -64c0 -22 5 -42.667 15 -62s24.667 -35.166 44 -47.499s42.666 -18.5 69.999 -18.5h259v-64h-270zM294.002 756.996l-96 123h68l96 -123h-68z" />
    <glyph glyph-name="Eacute" unicode="&#xc9;" horiz-adv-x="558" 
d="M242 0c-38.667 0 -72.332 8.99609 -100.999 26.9961s-50.834 41.833 -66.501 71.5s-23.5 61.167 -23.5 94.5s8.5 64.833 25.5 94.5s41.833 52.167 74.5 67.5c-32.667 16.667 -56.834 38.834 -72.501 66.501s-23.5 56.834 -23.5 87.501c0 35.333 8.33301 67.333 25 96
s39 51.5 67 68.5s59.333 25.5 94 25.5h271v-64h-263c-23.333 0 -44.166 -5.5 -62.499 -16.5s-32.833 -26.167 -43.5 -45.5s-16 -40.666 -16 -63.999c0 -21.333 5.66699 -41.333 17 -60s26.333 -33.5 45 -44.5s40 -16.5 64 -16.5h222v-64h-216
c-28.667 0 -53.167 -6.33301 -73.5 -19s-35.666 -29 -45.999 -49s-15.5 -41.333 -15.5 -64c0 -22 5 -42.667 15 -62s24.667 -35.166 44 -47.499s42.666 -18.5 69.999 -18.5h259v-64h-270zM274.002 756.996l96 123h68l-96 -123h-68z" />
    <glyph glyph-name="Ecircumflex" unicode="&#xca;" horiz-adv-x="558" 
d="M242 0c-38.667 0 -72.332 8.99609 -100.999 26.9961s-50.834 41.833 -66.501 71.5s-23.5 61.167 -23.5 94.5s8.5 64.833 25.5 94.5s41.833 52.167 74.5 67.5c-32.667 16.667 -56.834 38.834 -72.501 66.501s-23.5 56.834 -23.5 87.501c0 35.333 8.33301 67.333 25 96
s39 51.5 67 68.5s59.333 25.5 94 25.5h271v-64h-263c-23.333 0 -44.166 -5.5 -62.499 -16.5s-32.833 -26.167 -43.5 -45.5s-16 -40.666 -16 -63.999c0 -21.333 5.66699 -41.333 17 -60s26.333 -33.5 45 -44.5s40 -16.5 64 -16.5h222v-64h-216
c-28.667 0 -53.167 -6.33301 -73.5 -19s-35.666 -29 -45.999 -49s-15.5 -41.333 -15.5 -64c0 -22 5 -42.667 15 -62s24.667 -35.166 44 -47.499s42.666 -18.5 69.999 -18.5h259v-64h-270zM183.002 756.996l96 123h83l96 -123h-61l-77 93l-76 -93h-61z" />
    <glyph glyph-name="Edieresis" unicode="&#xcb;" horiz-adv-x="558" 
d="M416 760c-12 0 -22.333 4.33301 -31 13s-13 19 -13 31s4.33301 22.333 13 31s19 13 31 13s22.333 -4.33301 31 -13s13 -19 13 -31s-4.33301 -22.333 -13 -31s-19 -13 -31 -13zM239 760c-12 0 -22.333 4.33301 -31 13s-13 19 -13 31s4.33301 22.333 13 31s19 13 31 13
s22.333 -4.33301 31 -13s13 -19 13 -31s-4.33301 -22.333 -13 -31s-19 -13 -31 -13zM242 0c-38.667 0 -72.332 8.99609 -100.999 26.9961s-50.834 41.833 -66.501 71.5s-23.5 61.167 -23.5 94.5s8.5 64.833 25.5 94.5s41.833 52.167 74.5 67.5
c-32.667 16.667 -56.834 38.834 -72.501 66.501s-23.5 56.834 -23.5 87.501c0 35.333 8.33301 67.333 25 96s39 51.5 67 68.5s59.333 25.5 94 25.5h271v-64h-263c-23.333 0 -44.166 -5.5 -62.499 -16.5s-32.833 -26.167 -43.5 -45.5s-16 -40.666 -16 -63.999
c0 -21.333 5.66699 -41.333 17 -60s26.333 -33.5 45 -44.5s40 -16.5 64 -16.5h222v-64h-216c-28.667 0 -53.167 -6.33301 -73.5 -19s-35.666 -29 -45.999 -49s-15.5 -41.333 -15.5 -64c0 -22 5 -42.667 15 -62s24.667 -35.166 44 -47.499s42.666 -18.5 69.999 -18.5h259v-64
h-270z" />
    <glyph glyph-name="Igrave" unicode="&#xcc;" horiz-adv-x="454" 
d="M52 0v64h139v572h-139v64h350v-64h-139v-572h139v-64h-350zM198 757l-96 123h68l96 -123h-68z" />
    <glyph glyph-name="Iacute" unicode="&#xcd;" horiz-adv-x="454" 
d="M52 0v64h139v572h-139v64h350v-64h-139v-572h139v-64h-350zM202 758l96 123h68l-96 -123h-68z" />
    <glyph glyph-name="Icircumflex" unicode="&#xce;" horiz-adv-x="454" 
d="M52 0v64h139v572h-139v64h350v-64h-139v-572h139v-64h-350zM90 757l96 123h83l96 -123h-61l-77 93l-76 -93h-61z" />
    <glyph glyph-name="Idieresis" unicode="&#xcf;" horiz-adv-x="454" 
d="M316 760c-12 0 -22.333 4.33301 -31 13s-13 19 -13 31s4.33301 22.333 13 31s19 13 31 13c11.333 0 21.5 -4.33301 30.5 -13s13.5 -19 13.5 -31s-4.5 -22.333 -13.5 -31s-19.167 -13 -30.5 -13zM139 760c-12 0 -22.333 4.33301 -31 13s-13 19 -13 31
s4.33301 22.333 13 31s19 13 31 13c11.333 0 21.5 -4.33301 30.5 -13s13.5 -19 13.5 -31s-4.5 -22.333 -13.5 -31s-19.167 -13 -30.5 -13zM52 0v64h139v572h-139v64h350v-64h-139v-572h139v-64h-350z" />
    <glyph glyph-name="Eth" unicode="&#xd0;" horiz-adv-x="710" 
d="M79 0v324h-79v63h79v313h219c73.333 0 137.333 -15 192 -45s97 -71.167 127 -123.5s45 -112.5 45 -180.5s-15 -128.5 -45 -181.5s-72.333 -94.5 -127 -124.5s-118.667 -45 -192 -45h-219zM151 64l148 -0.000976562c55.333 0 105 11.5 149 34.5s78.5 56 103.5 99
s37.5 94.167 37.5 153.5c0 58.667 -12.5 109.334 -37.5 152.001s-59.5 75.5 -103.5 98.5s-93.667 34.5 -149 34.5h-148v-249h167v-63h-167v-260z" />
    <glyph glyph-name="Ntilde" unicode="&#xd1;" horiz-adv-x="798" 
d="M546 -13c-34.667 0 -65.665 8.16699 -92.998 24.5s-48.666 38.666 -63.999 66.999s-23 60.5 -23 96.5v361c0 21.333 -5 40.5 -15 57.5s-23.167 30.333 -39.5 40s-34.5 14.5 -54.5 14.5s-38.333 -4.83301 -55 -14.5s-30 -23 -40 -40s-15 -36.167 -15 -57.5v-536h-72v525
c0 36.667 7.66699 69 23 97s36.666 50.167 63.999 66.5s59 24.5 95 24.5c35.333 0 66.666 -8.16699 93.999 -24.5s48.833 -38.5 64.5 -66.5s23.5 -60.333 23.5 -97v-361c0 -22 5 -41.333 15 -58s23 -29.834 39 -39.501s33.667 -14.5 53 -14.5s37 4.83301 53 14.5
s28.667 22.834 38 39.501s14 36 14 58v536h72v-525c0 -36 -7.33301 -68.167 -22 -96.5s-35.334 -50.666 -62.001 -66.999s-57.667 -24.5 -93 -24.5zM483.002 747c-17.333 0 -31.668 2.83301 -43.001 8.5s-20.5 13 -27.5 22l-20.5 25.5
c-6.66699 9.33301 -13.834 17.5 -21.501 24.5s-17.5 10.5 -29.5 10.5c-11.333 0 -21.166 -5 -29.499 -15s-12.5 -24 -12.5 -42v-24h-48v23c0 33.333 9 59.166 27 77.499s39.667 27.5 65 27.5c22.667 0 40.667 -5.5 54 -16.5s24.333 -22.167 33 -33.5
c8 -10 15.833 -19.167 23.5 -27.5s18.167 -12.5 31.5 -12.5c11.333 0 21.333 4.83301 30 14.5s13 23.834 13 42.501v24h48v-23c0 -33.333 -9.16699 -59.333 -27.5 -78s-40.166 -28 -65.499 -28z" />
    <glyph glyph-name="Ograve" unicode="&#xd2;" horiz-adv-x="820" 
d="M410 -13c-54.667 0 -104.334 9.33301 -149.001 28s-82.834 44.667 -114.501 78s-56 72 -73 116s-25.5 91 -25.5 141s8.5 97 25.5 141s41.333 82.667 73 116s69.834 59.333 114.501 78s94.334 28 149.001 28c55.333 0 105.166 -9.33301 149.499 -28
s82.333 -44.667 114 -78s56 -72 73 -116s25.5 -91 25.5 -141s-8.5 -97 -25.5 -141s-41.333 -82.667 -73 -116s-69.667 -59.333 -114 -78s-94.166 -28 -149.499 -28zM410 52c42 0 80.667 7.33301 116 22s66 35.5 92 62.5s46.167 58.667 60.5 95s21.5 75.833 21.5 118.5
c0 43.333 -7.16699 83 -21.5 119s-34.5 67.5 -60.5 94.5s-56.667 48 -92 63s-74 22.5 -116 22.5c-41.333 0 -79.666 -7.5 -114.999 -22.5s-66.166 -36 -92.499 -63s-46.666 -58.667 -60.999 -95s-21.5 -75.833 -21.5 -118.5s7.16699 -82.167 21.5 -118.5
s34.666 -68 60.999 -95s57.166 -47.833 92.499 -62.5s73.666 -22 114.999 -22zM385 757l-96 123h68l96 -123h-68z" />
    <glyph glyph-name="Oacute" unicode="&#xd3;" horiz-adv-x="820" 
d="M410 -13c-54.667 0 -104.334 9.33301 -149.001 28s-82.834 44.667 -114.501 78s-56 72 -73 116s-25.5 91 -25.5 141s8.5 97 25.5 141s41.333 82.667 73 116s69.834 59.333 114.501 78s94.334 28 149.001 28c55.333 0 105.166 -9.33301 149.499 -28
s82.333 -44.667 114 -78s56 -72 73 -116s25.5 -91 25.5 -141s-8.5 -97 -25.5 -141s-41.333 -82.667 -73 -116s-69.667 -59.333 -114 -78s-94.166 -28 -149.499 -28zM410 52c42 0 80.667 7.33301 116 22s66 35.5 92 62.5s46.167 58.667 60.5 95s21.5 75.833 21.5 118.5
c0 43.333 -7.16699 83 -21.5 119s-34.5 67.5 -60.5 94.5s-56.667 48 -92 63s-74 22.5 -116 22.5c-41.333 0 -79.666 -7.5 -114.999 -22.5s-66.166 -36 -92.499 -63s-46.666 -58.667 -60.999 -95s-21.5 -75.833 -21.5 -118.5s7.16699 -82.167 21.5 -118.5
s34.666 -68 60.999 -95s57.166 -47.833 92.499 -62.5s73.666 -22 114.999 -22zM381 757l96 123h68l-96 -123h-68z" />
    <glyph glyph-name="Ocircumflex" unicode="&#xd4;" horiz-adv-x="820" 
d="M410 -13c-54.667 0 -104.334 9.33301 -149.001 28s-82.834 44.667 -114.501 78s-56 72 -73 116s-25.5 91 -25.5 141s8.5 97 25.5 141s41.333 82.667 73 116s69.834 59.333 114.501 78s94.334 28 149.001 28c55.333 0 105.166 -9.33301 149.499 -28
s82.333 -44.667 114 -78s56 -72 73 -116s25.5 -91 25.5 -141s-8.5 -97 -25.5 -141s-41.333 -82.667 -73 -116s-69.667 -59.333 -114 -78s-94.166 -28 -149.499 -28zM410 52c42 0 80.667 7.33301 116 22s66 35.5 92 62.5s46.167 58.667 60.5 95s21.5 75.833 21.5 118.5
c0 43.333 -7.16699 83 -21.5 119s-34.5 67.5 -60.5 94.5s-56.667 48 -92 63s-74 22.5 -116 22.5c-41.333 0 -79.666 -7.5 -114.999 -22.5s-66.166 -36 -92.499 -63s-46.666 -58.667 -60.999 -95s-21.5 -75.833 -21.5 -118.5s7.16699 -82.167 21.5 -118.5
s34.666 -68 60.999 -95s57.166 -47.833 92.499 -62.5s73.666 -22 114.999 -22zM272 757l96 123h83l96 -123h-61l-77 93l-76 -93h-61z" />
    <glyph glyph-name="Otilde" unicode="&#xd5;" horiz-adv-x="820" 
d="M410 -13c-54.667 0 -104.334 9.33301 -149.001 28s-82.834 44.667 -114.501 78s-56 72 -73 116s-25.5 91 -25.5 141s8.5 97 25.5 141s41.333 82.667 73 116s69.834 59.333 114.501 78s94.334 28 149.001 28c55.333 0 105.166 -9.33301 149.499 -28
s82.333 -44.667 114 -78s56 -72 73 -116s25.5 -91 25.5 -141s-8.5 -97 -25.5 -141s-41.333 -82.667 -73 -116s-69.667 -59.333 -114 -78s-94.166 -28 -149.499 -28zM410 52c42 0 80.667 7.33301 116 22s66 35.5 92 62.5s46.167 58.667 60.5 95s21.5 75.833 21.5 118.5
c0 43.333 -7.16699 83 -21.5 119s-34.5 67.5 -60.5 94.5s-56.667 48 -92 63s-74 22.5 -116 22.5c-41.333 0 -79.666 -7.5 -114.999 -22.5s-66.166 -36 -92.499 -63s-46.666 -58.667 -60.999 -95s-21.5 -75.833 -21.5 -118.5s7.16699 -82.167 21.5 -118.5
s34.666 -68 60.999 -95s57.166 -47.833 92.499 -62.5s73.666 -22 114.999 -22zM479 747c-17.333 0 -31.668 2.83301 -43.001 8.5s-20.5 13 -27.5 22l-20.5 25.5c-6.66699 9.33301 -13.834 17.5 -21.501 24.5s-17.5 10.5 -29.5 10.5c-11.333 0 -21.166 -5 -29.499 -15
s-12.5 -24 -12.5 -42v-24h-48v23c0 33.333 9 59.166 27 77.499s39.667 27.5 65 27.5c22.667 0 40.667 -5.5 54 -16.5s24.333 -22.167 33 -33.5c8 -10 15.833 -19.167 23.5 -27.5s18.167 -12.5 31.5 -12.5c11.333 0 21.333 4.83301 30 14.5s13 23.834 13 42.501v24h48v-23
c0 -33.333 -9.16699 -59.333 -27.5 -78s-40.166 -28 -65.499 -28z" />
    <glyph glyph-name="Odieresis" unicode="&#xd6;" horiz-adv-x="820" 
d="M499 760c-12 0 -22.333 4.33301 -31 13s-13 19 -13 31s4.33301 22.333 13 31s19 13 31 13c11.333 0 21.5 -4.33301 30.5 -13s13.5 -19 13.5 -31s-4.5 -22.333 -13.5 -31s-19.167 -13 -30.5 -13zM322 760c-12 0 -22.333 4.33301 -31 13s-13 19 -13 31
s4.33301 22.333 13 31s19 13 31 13c11.333 0 21.5 -4.33301 30.5 -13s13.5 -19 13.5 -31s-4.5 -22.333 -13.5 -31s-19.167 -13 -30.5 -13zM410 -13c-54.667 0 -104.334 9.33301 -149.001 28s-82.834 44.667 -114.501 78s-56 72 -73 116s-25.5 91 -25.5 141s8.5 97 25.5 141
s41.333 82.667 73 116s69.834 59.333 114.501 78s94.334 28 149.001 28c55.333 0 105.166 -9.33301 149.499 -28s82.333 -44.667 114 -78s56 -72 73 -116s25.5 -91 25.5 -141s-8.5 -97 -25.5 -141s-41.333 -82.667 -73 -116s-69.667 -59.333 -114 -78
s-94.166 -28 -149.499 -28zM410 52c42 0 80.667 7.33301 116 22s66 35.5 92 62.5s46.167 58.667 60.5 95s21.5 75.833 21.5 118.5c0 43.333 -7.16699 83 -21.5 119s-34.5 67.5 -60.5 94.5s-56.667 48 -92 63s-74 22.5 -116 22.5c-41.333 0 -79.666 -7.5 -114.999 -22.5
s-66.166 -36 -92.499 -63s-46.666 -58.5 -60.999 -94.5s-21.5 -75.667 -21.5 -119c0 -42.667 7.16699 -82.167 21.5 -118.5s34.666 -68 60.999 -95s57.166 -47.833 92.499 -62.5s73.666 -22 114.999 -22z" />
    <glyph glyph-name="multiply" unicode="&#xd7;" horiz-adv-x="528" 
d="M105 142l-45 45l160 160l-159 159l44 45l160 -159l159 159l44 -45l-159 -159l159 -160l-44 -45l-159 160z" />
    <glyph glyph-name="Oslash" unicode="&#xd8;" horiz-adv-x="820" 
d="M410 -13c-45.333 0 -87.5029 7.16797 -126.503 21.501s-73.5 34.166 -103.5 59.499l-65 -68h-72l97 103c-28.667 32.667 -51.167 70.167 -67.5 112.5s-24.5 87.166 -24.5 134.499c0 50 8.5 97 25.5 141s41.333 82.667 73 116s69.834 59.333 114.501 78
s94.334 28 149.001 28c46 0 88.333 -7.16699 127 -21.5s72.667 -33.833 102 -58.5l66 68h73l-98 -105c29.333 -32 52 -69.167 68 -111.5s24 -87.166 24 -134.499c0 -50 -8.5 -97 -25.5 -141s-41.333 -82.667 -73 -116s-69.667 -59.333 -114 -78s-94.166 -28 -149.499 -28z
M409.997 52.001c42 0 80.667 7.33203 116 21.999s66 35.5 92 62.5s46.167 58.667 60.5 95s21.5 75.833 21.5 118.5c0 38 -5.83301 73.5 -17.5 106.5s-28.167 62.167 -49.5 87.5l-408 -426c24 -21.333 51.833 -37.666 83.5 -48.999s65.5 -17 101.5 -17zM186.997 155
l407.997 426.999c-24.667 20.667 -52.5 36.834 -83.5 48.501s-64.833 17.5 -101.5 17.5c-41.333 0 -79.666 -7.33301 -114.999 -22s-66.166 -35.5 -92.499 -62.5s-46.666 -58.667 -60.999 -95s-21.5 -75.833 -21.5 -118.5c0 -38 5.83301 -73.5 17.5 -106.5
s28.167 -62.5 49.5 -88.5z" />
    <glyph glyph-name="Ugrave" unicode="&#xd9;" 
d="M348 -13c-52.667 0 -99.333 11.5 -140 34.5s-72.667 55.5 -96 97.5s-35 92 -35 150v431h72v-441c0 -38 8.16699 -72.5 24.5 -103.5s39.333 -56 69 -75s64.834 -28.5 105.501 -28.5c41.333 0 76.833 9.33301 106.5 28s52.5 43.667 68.5 75s24 66 24 104v441h72v-431
c0 -58 -11.667 -108 -35 -150s-55.333 -74.5 -96 -97.5s-87.334 -34.5 -140.001 -34.5zM323.001 757l-96 123h68l96 -123h-68z" />
    <glyph glyph-name="Uacute" unicode="&#xda;" 
d="M348 -13c-52.667 0 -99.333 11.5 -140 34.5s-72.667 55.5 -96 97.5s-35 92 -35 150v431h72v-441c0 -38 8.16699 -72.5 24.5 -103.5s39.333 -56 69 -75s64.834 -28.5 105.501 -28.5c41.333 0 76.833 9.33301 106.5 28s52.5 43.667 68.5 75s24 66 24 104v441h72v-431
c0 -58 -11.667 -108 -35 -150s-55.333 -74.5 -96 -97.5s-87.334 -34.5 -140.001 -34.5zM316.001 757l96 123h68l-96 -123h-68z" />
    <glyph glyph-name="Ucircumflex" unicode="&#xdb;" 
d="M348 -13c-52.667 0 -99.333 11.5 -140 34.5s-72.667 55.5 -96 97.5s-35 92 -35 150v431h72v-441c0 -38 8.16699 -72.5 24.5 -103.5s39.333 -56 69 -75s64.834 -28.5 105.501 -28.5c41.333 0 76.833 9.33301 106.5 28s52.5 43.667 68.5 75s24 66 24 104v441h72v-431
c0 -58 -11.667 -108 -35 -150s-55.333 -74.5 -96 -97.5s-87.334 -34.5 -140.001 -34.5zM211.001 757l96 123h83l96 -123h-61l-77 93l-76 -93h-61z" />
    <glyph glyph-name="Udieresis" unicode="&#xdc;" 
d="M436 760c-12 0 -22.333 4.33301 -31 13s-13 19 -13 31s4.33301 22.333 13 31s19 13 31 13s22.333 -4.33301 31 -13s13 -19 13 -31s-4.33301 -22.333 -13 -31s-19 -13 -31 -13zM259 760c-12 0 -22.333 4.33301 -31 13s-13 19 -13 31s4.33301 22.333 13 31s19 13 31 13
s22.333 -4.33301 31 -13s13 -19 13 -31s-4.33301 -22.333 -13 -31s-19 -13 -31 -13zM348 -13c-52.667 0 -99.333 11.5 -140 34.5s-72.667 55.5 -96 97.5s-35 92 -35 150v431h72v-441c0 -38 8.16699 -72.5 24.5 -103.5s39.333 -56 69 -75s64.834 -28.5 105.501 -28.5
c41.333 0 76.833 9.5 106.5 28.5s52.5 44 68.5 75s24 65.5 24 103.5v441h72v-431c0 -58 -11.667 -108 -35 -150s-55.333 -74.5 -96 -97.5s-87.334 -34.5 -140.001 -34.5z" />
    <glyph glyph-name="Yacute" unicode="&#xdd;" 
d="M311 0v206.999c-50.667 5.33301 -93.5 20.833 -128.5 46.5s-61.333 58.834 -79 99.501s-26.5 85.334 -26.5 134.001v212h72v-219c0 -37.333 7.66699 -72 23 -104s38 -57.833 68 -77.5s66 -29.5 108 -29.5c42.667 0 78.667 9.83301 108 29.5s51.833 45.5 67.5 77.5
s23.5 66.667 23.5 104v219h72v-212c0 -48.667 -9 -93.334 -27 -134.001s-44.5 -74 -79.5 -100s-78.167 -41.333 -129.5 -46v-207h-72zM319 756.999l96 123h68l-96 -123h-68z" />
    <glyph glyph-name="Thorn" unicode="&#xde;" horiz-adv-x="654" 
d="M79 0v699.998h72v-121h224c42.667 0 81.667 -9.66699 117 -29s63.5 -46.166 84.5 -80.499s31.5 -74.166 31.5 -119.499c0 -44 -10.167 -83.333 -30.5 -118s-48.333 -61.667 -84 -81s-76.5 -29 -122.5 -29h-220v-122h-72zM151 185.998l212.002 0.000976562
c32 0 61 6.5 87 19.5s46.833 31.667 62.5 56s23.5 53.833 23.5 88.5s-7.83301 64.167 -23.5 88.5s-36.334 43.166 -62.001 56.499s-53.834 20 -84.501 20h-215v-329z" />
    <glyph glyph-name="germandbls" unicode="&#xdf;" horiz-adv-x="637" 
d="M72 0l-0.000976562 500c0 34 6 65.667 18 95s29 55 51 77s48.333 39.167 79 51.5s64.667 18.5 102 18.5c43.333 0 82.833 -8.16699 118.5 -24.5s64.334 -39.333 86.001 -69s32.5 -64.167 32.5 -103.5c0 -22.667 -4.5 -44.5 -13.5 -65.5s-22.833 -39.833 -41.5 -56.5
s-43 -29.334 -73 -38.001c34 -10 62.167 -24.667 84.5 -44s39.5 -40.833 51.5 -64.5s18 -47.834 18 -72.501c0 -35.333 -8.83301 -68.666 -26.5 -99.999s-42.334 -56.5 -74.001 -75.5s-68.167 -28.5 -109.5 -28.5h-102v61h89c31.333 0 58.333 6.83301 81 20.5
s40 31.334 52 53.001s18 44.834 18 69.501c0 25.333 -6.83301 49 -20.5 71s-33.667 39.833 -60 53.5s-58.166 20.834 -95.499 21.501h-27v61h23c32.667 0 60.667 5.66699 84 17s41.166 26.666 53.499 45.999s18.5 41.666 18.5 66.999c0 29.333 -7.66699 54.5 -23 75.5
s-35.666 37.167 -60.999 48.5s-53 17 -83 17c-34 0 -64.667 -7.66699 -92 -23s-49 -37 -65 -65s-24 -61.333 -24 -100v-494h-69z" />
    <glyph glyph-name="agrave" unicode="&#xe0;" horiz-adv-x="638" 
d="M295 -13c-51.333 0 -95.334 12 -132.001 36s-64.667 56.167 -84 96.5s-29 85.5 -29 135.5c0 50.667 10.667 96.167 32 136.5s51.833 72.166 91.5 95.499s86.834 35 141.501 35c52.667 0 98.167 -11.667 136.5 -35s68 -54.666 89 -93.999s31.5 -83.666 31.5 -132.999v-260
h-69v114h-3c-9.33301 -20 -23.333 -39.833 -42 -59.5s-41.5 -35.834 -68.5 -48.501s-58.5 -19 -94.5 -19zM309.999 47c37.333 0 70.332 9.16504 98.999 27.498s51.334 43.333 68.001 75s24.667 67.5 24 107.5c0 39.333 -7.66699 74.333 -23 105s-37 55 -65 73
s-61.333 27 -100 27c-40 0 -74.333 -9.16699 -103 -27.5s-50.667 -43.333 -66 -75s-23 -67.5 -23 -107.5c0 -37.333 7.33301 -71.666 22 -102.999s36.167 -56.166 64.5 -74.499s62.5 -27.5 102.5 -27.5zM281.998 576.998l-96 123h68l96 -123h-68z" />
    <glyph glyph-name="aacute" unicode="&#xe1;" horiz-adv-x="638" 
d="M295 -13c-51.333 0 -95.334 12 -132.001 36s-64.667 56.167 -84 96.5s-29 85.5 -29 135.5c0 50.667 10.667 96.167 32 136.5s51.833 72.166 91.5 95.499s86.834 35 141.501 35c52.667 0 98.167 -11.667 136.5 -35s68 -54.666 89 -93.999s31.5 -83.666 31.5 -132.999v-260
h-69v114h-3c-9.33301 -20 -23.333 -39.833 -42 -59.5s-41.5 -35.834 -68.5 -48.501s-58.5 -19 -94.5 -19zM309.999 47c37.333 0 70.332 9.16504 98.999 27.498s51.334 43.333 68.001 75s24.667 67.5 24 107.5c0 39.333 -7.66699 74.333 -23 105s-37 55 -65 73
s-61.333 27 -100 27c-40 0 -74.333 -9.16699 -103 -27.5s-50.667 -43.333 -66 -75s-23 -67.5 -23 -107.5c0 -37.333 7.33301 -71.666 22 -102.999s36.167 -56.166 64.5 -74.499s62.5 -27.5 102.5 -27.5zM287.998 576.998l96 123h68l-96 -123h-68z" />
    <glyph glyph-name="acircumflex" unicode="&#xe2;" horiz-adv-x="638" 
d="M295 -13c-51.333 0 -95.334 12 -132.001 36s-64.667 56.167 -84 96.5s-29 85.5 -29 135.5c0 50.667 10.667 96.167 32 136.5s51.833 72.166 91.5 95.499s86.834 35 141.501 35c52.667 0 98.167 -11.667 136.5 -35s68 -54.666 89 -93.999s31.5 -83.666 31.5 -132.999v-260
h-69v114h-3c-9.33301 -20 -23.333 -39.833 -42 -59.5s-41.5 -35.834 -68.5 -48.501s-58.5 -19 -94.5 -19zM309.999 47c37.333 0 70.332 9.16504 98.999 27.498s51.334 43.333 68.001 75s24.667 67.5 24 107.5c0 39.333 -7.66699 74.333 -23 105s-37 55 -65 73
s-61.333 27 -100 27c-40 0 -74.333 -9.16699 -103 -27.5s-50.667 -43.333 -66 -75s-23 -67.5 -23 -107.5c0 -37.333 7.33301 -71.666 22 -102.999s36.167 -56.166 64.5 -74.499s62.5 -27.5 102.5 -27.5zM176.998 576.998l96 123h83l96 -123h-61l-77 93l-76 -93h-61z" />
    <glyph glyph-name="atilde" unicode="&#xe3;" horiz-adv-x="638" 
d="M295 -13c-51.333 0 -95.334 12 -132.001 36s-64.667 56.167 -84 96.5s-29 85.5 -29 135.5c0 50.667 10.667 96.167 32 136.5s51.833 72.166 91.5 95.499s86.834 35 141.501 35c52.667 0 98.167 -11.667 136.5 -35s68 -54.666 89 -93.999s31.5 -83.666 31.5 -132.999v-260
h-69v114h-3c-9.33301 -20 -23.333 -39.833 -42 -59.5s-41.5 -35.834 -68.5 -48.501s-58.5 -19 -94.5 -19zM309.999 47c37.333 0 70.332 9.16504 98.999 27.498s51.334 43.333 68.001 75s24.667 67.5 24 107.5c0 39.333 -7.66699 74.333 -23 105s-37 55 -65 73
s-61.333 27 -100 27c-40 0 -74.333 -9.16699 -103 -27.5s-50.667 -43.333 -66 -75s-23 -67.5 -23 -107.5c0 -37.333 7.33301 -71.666 22 -102.999s36.167 -56.166 64.5 -74.499s62.5 -27.5 102.5 -27.5zM382.998 578.998c-17.333 0 -31.668 2.83301 -43.001 8.5
s-20.5 13 -27.5 22l-20.5 25.5c-6.66699 9.33301 -13.834 17.5 -21.501 24.5s-17.5 10.5 -29.5 10.5c-11.333 0 -21.166 -5 -29.499 -15s-12.5 -24 -12.5 -42v-24h-48v23c0 33.333 9 59.166 27 77.499s39.667 27.5 65 27.5c22.667 0 40.667 -5.5 54 -16.5
s24.333 -22.167 33 -33.5c8 -10 15.833 -19.167 23.5 -27.5s18.167 -12.5 31.5 -12.5c11.333 0 21.333 4.83301 30 14.5s13 23.834 13 42.501v24h48v-23c0 -33.333 -9.16699 -59.333 -27.5 -78s-40.166 -28 -65.499 -28z" />
    <glyph glyph-name="adieresis" unicode="&#xe4;" horiz-adv-x="638" 
d="M406 605c-12.667 0 -23.167 4.33301 -31.5 13s-12.5 19 -12.5 31s4.16699 22.333 12.5 31s18.833 13 31.5 13c11.333 0 21.5 -4.33301 30.5 -13s13.5 -19 13.5 -31s-4.5 -22.333 -13.5 -31s-19.167 -13 -30.5 -13zM229 605c-12.667 0 -23.167 4.33301 -31.5 13
s-12.5 19 -12.5 31s4.16699 22.333 12.5 31s18.833 13 31.5 13c11.333 0 21.5 -4.33301 30.5 -13s13.5 -19 13.5 -31s-4.5 -22.333 -13.5 -31s-19.167 -13 -30.5 -13zM295 -13c-51.333 0 -95.334 12 -132.001 36s-64.667 56.167 -84 96.5s-29 85.5 -29 135.5
c0 50.667 10.667 96.167 32 136.5s51.833 72.166 91.5 95.499s86.834 35 141.501 35c52.667 0 98.167 -11.667 136.5 -35s68 -54.666 89 -93.999s31.5 -83.666 31.5 -132.999v-260h-69v114h-3c-9.33301 -20 -23.333 -39.833 -42 -59.5s-41.5 -35.834 -68.5 -48.501
s-58.5 -19 -94.5 -19zM309.999 47c37.333 0 70.332 9.16504 98.999 27.498s51.334 43.333 68.001 75s24.667 67.5 24 107.5c0 39.333 -7.66699 74.333 -23 105s-37 55 -65 73s-61.333 27 -100 27c-40 0 -74.333 -9.16699 -103 -27.5s-50.667 -43.333 -66 -75
s-23 -67.5 -23 -107.5c0 -37.333 7.33301 -71.666 22 -102.999s36.167 -56.166 64.5 -74.499s62.5 -27.5 102.5 -27.5z" />
    <glyph glyph-name="aring" unicode="&#xe5;" horiz-adv-x="638" 
d="M295 -13c-51.333 0 -95.334 12 -132.001 36s-64.667 56.167 -84 96.5s-29 85.5 -29 135.5c0 50.667 10.667 96.167 32 136.5s51.833 72.166 91.5 95.499s86.834 35 141.501 35c52.667 0 98.167 -11.667 136.5 -35s68 -54.666 89 -93.999s31.5 -83.666 31.5 -132.999v-260
h-69v114h-3c-9.33301 -20 -23.333 -39.833 -42 -59.5s-41.5 -35.834 -68.5 -48.501s-58.5 -19 -94.5 -19zM309.999 47c37.333 0 70.332 9.16504 98.999 27.498s51.334 43.333 68.001 75s24.667 67.5 24 107.5c0 39.333 -7.66699 74.333 -23 105s-37 55 -65 73
s-61.333 27 -100 27c-40 0 -74.333 -9.16699 -103 -27.5s-50.667 -43.333 -66 -75s-23 -67.5 -23 -107.5c0 -37.333 7.33301 -71.666 22 -102.999s36.167 -56.166 64.5 -74.499s62.5 -27.5 102.5 -27.5zM307.998 565.998c-26.667 0 -49.167 9.16699 -67.5 27.5
s-27.5 40.833 -27.5 67.5s9.16699 49.167 27.5 67.5s40.833 27.5 67.5 27.5s49.167 -9.16699 67.5 -27.5s27.5 -40.833 27.5 -67.5s-9.16699 -49.167 -27.5 -67.5s-40.833 -27.5 -67.5 -27.5zM307.998 601.998c16.667 0 30.667 5.66699 42 17s17 25.333 17 42
s-5.66699 30.667 -17 42s-25.333 17 -42 17c-16 0 -29.833 -5.66699 -41.5 -17s-17.5 -25.333 -17.5 -42s5.83301 -30.667 17.5 -42s25.5 -17 41.5 -17z" />
    <glyph glyph-name="ae" unicode="&#xe6;" horiz-adv-x="948" 
d="M184 0c-25.333 0 -48.502 6.66797 -69.502 20.001s-37.667 31.166 -50 53.499s-18.5 47.5 -18.5 75.5c0 30 6.16699 55.5 18.5 76.5s29 37 50 48s44.5 16.5 70.5 16.5h243v81c0 22.667 -7.33301 41.5 -22 56.5s-34 22.5 -58 22.5h-254v60h261c32 0 58.667 -9.5 80 -28.5
s35 -43.5 41 -73.5c18.667 33.333 44.334 60.666 77.001 81.999s70.667 32 114 32c50 0 92.333 -11 127 -33s60.834 -51.667 78.501 -89s26.5 -79.333 26.5 -126c0 -6.66699 -0.166992 -14 -0.5 -22s-1.16602 -15 -2.49902 -21h-397c2 -37.333 12.667 -68.666 32 -93.999
s44.5 -44.333 75.5 -57s64.5 -19 100.5 -19h129v-61h-125c-50 0 -95.333 9.16699 -136 27.5s-72.334 45.833 -95.001 82.5c-6 -32 -20.833 -58.333 -44.5 -79s-52.5 -31 -86.5 -31h-165zM198.998 60.001h143.998c23.333 0 43.333 8.33301 60 25s25 37 25 61v94h-226
c-27.333 0 -48.666 -8.5 -63.999 -25.5s-23 -37.833 -23 -62.5c0 -14.667 3.5 -29.167 10.5 -43.5s16.833 -26 29.5 -35s27.334 -13.5 44.001 -13.5zM497.996 281.001l329.997 0.00292969c0.666992 13.333 -0.333008 28.166 -3 44.499s-7.5 32.5 -14.5 48.5
s-16.667 30.667 -29 44s-28 24.166 -47 32.499s-42.167 12.5 -69.5 12.5c-26 0 -49.167 -5.33301 -69.5 -16s-37.666 -24.834 -51.999 -42.501s-25.166 -37.167 -32.499 -58.5s-11.666 -43 -12.999 -65z" />
    <glyph glyph-name="ccedilla" unicode="&#xe7;" horiz-adv-x="422" 
d="M325 0c-52.667 0 -99.667 11.333 -141 34s-74 53.167 -98 91.5s-36 81.5 -36 129.5s12 91.167 36 129.5s56.667 68.833 98 91.5s88.333 34 141 34h58v-61h-63c-36.667 0 -70 -8.5 -100 -25.5s-54 -40.167 -72 -69.5s-27 -62.333 -27 -99s9 -69.667 27 -99
s42 -52.5 72 -69.5s63.333 -25.5 100 -25.5h63v-61h-58zM156 -203l92 221h70l-95 -221h-67z" />
    <glyph glyph-name="egrave" unicode="&#xe8;" horiz-adv-x="573" 
d="M336 0c-54.667 0 -103.5 10.167 -146.5 30.5s-77 49.5 -102 87.5s-37.5 83.667 -37.5 137c0 49.333 10 94.166 30 134.499s48.167 72.5 84.5 96.5s78.833 36 127.5 36c50 0 92.333 -11 127 -33s61 -51.667 79 -89s27 -79.333 27 -126c0 -6.66699 -0.333008 -14 -1 -22
s-1.66699 -15 -3 -21h-397c2 -37.333 12.667 -68.666 32 -93.999s44.5 -44.333 75.5 -57s64.5 -19 100.5 -19h129v-61h-125zM124 281l330.001 0.00292969c0 13.333 -1.33301 28.166 -4 44.499s-7.5 32.5 -14.5 48.5s-16.667 30.667 -29 44s-28 24.166 -47 32.499
s-42.167 12.5 -69.5 12.5c-25.333 0 -48.333 -5.33301 -69 -16s-38 -24.834 -52 -42.501s-24.833 -37.167 -32.5 -58.5s-11.834 -43 -12.501 -65zM262.001 577.003l-96 123h68l96 -123h-68z" />
    <glyph glyph-name="eacute" unicode="&#xe9;" horiz-adv-x="573" 
d="M336 0c-54.667 0 -103.5 10.167 -146.5 30.5s-77 49.5 -102 87.5s-37.5 83.667 -37.5 137c0 49.333 10 94.166 30 134.499s48.167 72.5 84.5 96.5s78.833 36 127.5 36c50 0 92.333 -11 127 -33s61 -51.667 79 -89s27 -79.333 27 -126c0 -6.66699 -0.333008 -14 -1 -22
s-1.66699 -15 -3 -21h-397c2 -37.333 12.667 -68.666 32 -93.999s44.5 -44.333 75.5 -57s64.5 -19 100.5 -19h129v-61h-125zM124 281l330.001 0.00292969c0 13.333 -1.33301 28.166 -4 44.499s-7.5 32.5 -14.5 48.5s-16.667 30.667 -29 44s-28 24.166 -47 32.499
s-42.167 12.5 -69.5 12.5c-25.333 0 -48.333 -5.33301 -69 -16s-38 -24.834 -52 -42.501s-24.833 -37.167 -32.5 -58.5s-11.834 -43 -12.501 -65zM267.001 577.003l96 123h68l-96 -123h-68z" />
    <glyph glyph-name="ecircumflex" unicode="&#xea;" horiz-adv-x="573" 
d="M336 0c-54.667 0 -103.5 10.167 -146.5 30.5s-77 49.5 -102 87.5s-37.5 83.667 -37.5 137c0 49.333 10 94.166 30 134.499s48.167 72.5 84.5 96.5s78.833 36 127.5 36c50 0 92.333 -11 127 -33s61 -51.667 79 -89s27 -79.333 27 -126c0 -6.66699 -0.333008 -14 -1 -22
s-1.66699 -15 -3 -21h-397c2 -37.333 12.667 -68.666 32 -93.999s44.5 -44.333 75.5 -57s64.5 -19 100.5 -19h129v-61h-125zM124 281l330.001 0.00292969c0 13.333 -1.33301 28.166 -4 44.499s-7.5 32.5 -14.5 48.5s-16.667 30.667 -29 44s-28 24.166 -47 32.499
s-42.167 12.5 -69.5 12.5c-25.333 0 -48.333 -5.33301 -69 -16s-38 -24.834 -52 -42.501s-24.833 -37.167 -32.5 -58.5s-11.834 -43 -12.501 -65zM162.001 577.003l96 123h83l96 -123h-61l-77 93l-76 -93h-61z" />
    <glyph glyph-name="edieresis" unicode="&#xeb;" horiz-adv-x="573" 
d="M387 605c-12 0 -22.333 4.33301 -31 13s-13 19 -13 31s4.33301 22.333 13 31s19 13 31 13s22.333 -4.33301 31 -13s13 -19 13 -31s-4.33301 -22.333 -13 -31s-19 -13 -31 -13zM210 605c-12 0 -22.333 4.33301 -31 13s-13 19 -13 31s4.33301 22.333 13 31s19 13 31 13
s22.333 -4.33301 31 -13s13 -19 13 -31s-4.33301 -22.333 -13 -31s-19 -13 -31 -13zM336 0c-54.667 0 -103.5 10.167 -146.5 30.5s-77 49.5 -102 87.5s-37.5 83.667 -37.5 137c0 49.333 10 94.166 30 134.499s48.167 72.5 84.5 96.5s78.833 36 127.5 36
c50 0 92.333 -11 127 -33s61 -51.667 79 -89s27 -79.333 27 -126c0 -6.66699 -0.333008 -14 -1 -22s-1.66699 -15 -3 -21h-397c2 -37.333 12.667 -68.666 32 -93.999s44.5 -44.333 75.5 -57s64.5 -19 100.5 -19h129v-61h-125zM124 281l330.001 0.00292969
c0 13.333 -1.33301 28.166 -4 44.499s-7.5 32.5 -14.5 48.5s-16.667 30.667 -29 44s-28 24.166 -47 32.499s-42.167 12.5 -69.5 12.5c-25.333 0 -48.333 -5.33301 -69 -16s-38 -24.834 -52 -42.501s-24.833 -37.167 -32.5 -58.5s-11.834 -43 -12.501 -65z" />
    <glyph glyph-name="igrave" unicode="&#xec;" horiz-adv-x="224" 
d="M77 0v510h70v-510h-70zM78 577l-96 123h68l96 -123h-68z" />
    <glyph glyph-name="iacute" unicode="&#xed;" horiz-adv-x="224" 
d="M77 0v510h70v-510h-70zM69 577l96 123h68l-96 -123h-68z" />
    <glyph glyph-name="icircumflex" unicode="&#xee;" horiz-adv-x="224" 
d="M77 0v510h70v-510h-70zM-25 577l96 123h83l96 -123h-61l-77 93l-76 -93h-61z" />
    <glyph glyph-name="idieresis" unicode="&#xef;" horiz-adv-x="224" 
d="M200 605c-12 0 -22.333 4.5 -31 13.5s-13 19.167 -13 30.5c0 12 4.33301 22.333 13 31s19 13 31 13s22.333 -4.33301 31 -13s13 -19 13 -31c0 -11.333 -4.33301 -21.5 -13 -30.5s-19 -13.5 -31 -13.5zM23 605c-12 0 -22.333 4.5 -31 13.5s-13 19.167 -13 30.5
c0 12 4.33301 22.333 13 31s19 13 31 13s22.333 -4.33301 31 -13s13 -19 13 -31c0 -11.333 -4.33301 -21.5 -13 -30.5s-19 -13.5 -31 -13.5zM77 0v510h70v-510h-70z" />
    <glyph glyph-name="eth" unicode="&#xf0;" horiz-adv-x="632" 
d="M309 -13c-35.333 0 -68.833 6.16797 -100.5 18.501s-59.334 30 -83.001 53s-42.167 51 -55.5 84s-20 70.5 -20 112.5c0 55.333 11.5 102.5 34.5 141.5s52.833 69 89.5 90s75.334 31.5 116.001 31.5c21.333 0 42 -3 62 -9s38 -14.667 54 -26l1 1l-84 128l-152 -24v45
l125 19l-51 78l81 1l44 -67l103 16v-46l-76 -11l107 -167c15.333 -24.667 27.5 -48.167 36.5 -70.5s15.667 -44 20 -65s6.5 -41.833 6.5 -62.5c0 -58 -11.667 -107.333 -35 -148s-54.5 -71.334 -93.5 -92.001s-82.167 -31 -129.5 -31zM310 48.001
c33.333 0 64.1641 8 92.4971 24s51 39.333 68 70s25.5 68 25.5 112c0 44.667 -8.66699 82.5 -26 113.5s-40.166 54.333 -68.499 70s-59.166 23.5 -92.499 23.5c-34 0 -65.167 -8.5 -93.5 -25.5s-51.166 -41 -68.499 -72s-26 -67.167 -26 -108.5
c0 -43.333 8.66699 -80.5 26 -111.5s40.5 -54.667 69.5 -71s60.167 -24.5 93.5 -24.5z" />
    <glyph glyph-name="ntilde" unicode="&#xf1;" horiz-adv-x="620" 
d="M77 0v297c0 46.667 10.5 86.834 31.5 120.501s49.167 59.667 84.5 78s74.333 27.5 117 27.5c43.333 0 82.5 -9.16699 117.5 -27.5s63 -44.333 84 -78s31.5 -73.834 31.5 -120.501v-297h-70v294c0 35.333 -7.66699 65.5 -23 90.5s-35.5 44.167 -60.5 57.5
s-51.833 20 -80.5 20c-28 0 -54.333 -6.5 -79 -19.5s-44.667 -32 -60 -57s-23 -55.5 -23 -91.5v-294h-70zM386 579c-17.333 0 -31.668 2.83301 -43.001 8.5s-20.5 13 -27.5 22l-20.5 25.5c-6.66699 9.33301 -13.834 17.5 -21.501 24.5s-17.5 10.5 -29.5 10.5
c-11.333 0 -21.166 -5 -29.499 -15s-12.5 -24 -12.5 -42v-24h-48v23c0 33.333 9 59.166 27 77.499s39.667 27.5 65 27.5c22.667 0 40.667 -5.5 54 -16.5s24.333 -22.167 33 -33.5c8 -10 15.833 -19.167 23.5 -27.5s18.167 -12.5 31.5 -12.5c11.333 0 21.333 4.83301 30 14.5
s13 23.834 13 42.501v24h48v-23c0 -33.333 -9.16699 -59.333 -27.5 -78s-40.166 -28 -65.499 -28z" />
    <glyph glyph-name="ograve" unicode="&#xf2;" horiz-adv-x="630" 
d="M315 -13c-51.333 0 -97 11.832 -137 35.499s-71.333 55.834 -94 96.501s-34 86 -34 136s11.333 95.333 34 136s54 72.834 94 96.501s85.667 35.5 137 35.5s96.833 -11.833 136.5 -35.5s71 -55.667 94 -96s34.5 -85.833 34.5 -136.5c0 -50 -11.5 -95.333 -34.5 -136
s-54.333 -72.834 -94 -96.501s-85.167 -35.5 -136.5 -35.5zM315 47.999c38 0 71.667 9.16699 101 27.5s52.166 43.166 68.499 74.499s24.5 66.333 24.5 105s-8.16699 73.667 -24.5 105s-39.166 56.166 -68.499 74.499s-63 27.5 -101 27.5
c-38.667 0 -72.5 -9.16699 -101.5 -27.5s-51.667 -43.166 -68 -74.499s-24.5 -66.333 -24.5 -105s8.16699 -73.667 24.5 -105s39 -56.166 68 -74.499s62.833 -27.5 101.5 -27.5zM283 576.999l-96 123h68l96 -123h-68z" />
    <glyph glyph-name="oacute" unicode="&#xf3;" horiz-adv-x="630" 
d="M315 -13c-51.333 0 -97 11.832 -137 35.499s-71.333 55.834 -94 96.501s-34 86 -34 136s11.333 95.333 34 136s54 72.834 94 96.501s85.667 35.5 137 35.5s96.833 -11.833 136.5 -35.5s71 -55.667 94 -96s34.5 -85.833 34.5 -136.5c0 -50 -11.5 -95.333 -34.5 -136
s-54.333 -72.834 -94 -96.501s-85.167 -35.5 -136.5 -35.5zM315 47.999c38 0 71.667 9.16699 101 27.5s52.166 43.166 68.499 74.499s24.5 66.333 24.5 105s-8.16699 73.667 -24.5 105s-39.166 56.166 -68.499 74.499s-63 27.5 -101 27.5
c-38.667 0 -72.5 -9.16699 -101.5 -27.5s-51.667 -43.166 -68 -74.499s-24.5 -66.333 -24.5 -105s8.16699 -73.667 24.5 -105s39 -56.166 68 -74.499s62.833 -27.5 101.5 -27.5zM289 576.999l96 123h68l-96 -123h-68z" />
    <glyph glyph-name="ocircumflex" unicode="&#xf4;" horiz-adv-x="630" 
d="M315 -13c-51.333 0 -97 11.832 -137 35.499s-71.333 55.834 -94 96.501s-34 86 -34 136s11.333 95.333 34 136s54 72.834 94 96.501s85.667 35.5 137 35.5s96.833 -11.833 136.5 -35.5s71 -55.667 94 -96s34.5 -85.833 34.5 -136.5c0 -50 -11.5 -95.333 -34.5 -136
s-54.333 -72.834 -94 -96.501s-85.167 -35.5 -136.5 -35.5zM315 47.999c38 0 71.667 9.16699 101 27.5s52.166 43.166 68.499 74.499s24.5 66.333 24.5 105s-8.16699 73.667 -24.5 105s-39.166 56.166 -68.499 74.499s-63 27.5 -101 27.5
c-38.667 0 -72.5 -9.16699 -101.5 -27.5s-51.667 -43.166 -68 -74.499s-24.5 -66.333 -24.5 -105s8.16699 -73.667 24.5 -105s39 -56.166 68 -74.499s62.833 -27.5 101.5 -27.5zM178 576.999l96 123h83l96 -123h-61l-77 93l-76 -93h-61z" />
    <glyph glyph-name="otilde" unicode="&#xf5;" horiz-adv-x="630" 
d="M315 -13c-51.333 0 -97 11.832 -137 35.499s-71.333 55.834 -94 96.501s-34 86 -34 136s11.333 95.333 34 136s54 72.834 94 96.501s85.667 35.5 137 35.5s96.833 -11.833 136.5 -35.5s71 -55.667 94 -96s34.5 -85.833 34.5 -136.5c0 -50 -11.5 -95.333 -34.5 -136
s-54.333 -72.834 -94 -96.501s-85.167 -35.5 -136.5 -35.5zM315 47.999c38 0 71.667 9.16699 101 27.5s52.166 43.166 68.499 74.499s24.5 66.333 24.5 105s-8.16699 73.667 -24.5 105s-39.166 56.166 -68.499 74.499s-63 27.5 -101 27.5
c-38.667 0 -72.5 -9.16699 -101.5 -27.5s-51.667 -43.166 -68 -74.499s-24.5 -66.333 -24.5 -105s8.16699 -73.667 24.5 -105s39 -56.166 68 -74.499s62.833 -27.5 101.5 -27.5zM382 578.999c-17.333 0 -31.668 2.83301 -43.001 8.5s-20.5 13 -27.5 22l-20.5 25.5
c-6.66699 9.33301 -13.834 17.5 -21.501 24.5s-17.5 10.5 -29.5 10.5c-11.333 0 -21.166 -5 -29.499 -15s-12.5 -24 -12.5 -42v-24h-48v23c0 33.333 9 59.166 27 77.499s39.667 27.5 65 27.5c22.667 0 40.667 -5.5 54 -16.5s24.333 -22.167 33 -33.5
c8 -10 15.833 -19.167 23.5 -27.5s18.167 -12.5 31.5 -12.5c11.333 0 21.333 4.83301 30 14.5s13 23.834 13 42.501v24h48v-23c0 -33.333 -9.16699 -59.333 -27.5 -78s-40.166 -28 -65.499 -28z" />
    <glyph glyph-name="odieresis" unicode="&#xf6;" horiz-adv-x="630" 
d="M400 605c-12 0 -22.333 4.33301 -31 13s-13 19 -13 31s4.33301 22.333 13 31s19 13 31 13s22.333 -4.33301 31 -13s13 -19 13 -31s-4.33301 -22.333 -13 -31s-19 -13 -31 -13zM223 605c-12 0 -22.333 4.33301 -31 13s-13 19 -13 31s4.33301 22.333 13 31s19 13 31 13
s22.333 -4.33301 31 -13s13 -19 13 -31s-4.33301 -22.333 -13 -31s-19 -13 -31 -13zM315 -13c-51.333 0 -97 11.832 -137 35.499s-71.333 55.834 -94 96.501s-34 86 -34 136s11.333 95.333 34 136s54 72.834 94 96.501s85.667 35.5 137 35.5s96.833 -11.833 136.5 -35.5
s71 -55.667 94 -96s34.5 -85.833 34.5 -136.5c0 -50 -11.5 -95.333 -34.5 -136s-54.333 -72.834 -94 -96.501s-85.167 -35.5 -136.5 -35.5zM315 47.999c38 0 71.667 9.16699 101 27.5s52.166 43.166 68.499 74.499s24.5 66.333 24.5 105s-8.16699 73.667 -24.5 105
s-39.166 56.166 -68.499 74.499s-63 27.5 -101 27.5c-38.667 0 -72.5 -9.16699 -101.5 -27.5s-51.667 -43.166 -68 -74.499s-24.5 -66.333 -24.5 -105s8.16699 -73.667 24.5 -105s39 -56.166 68 -74.499s62.833 -27.5 101.5 -27.5z" />
    <glyph glyph-name="divide" unicode="&#xf7;" horiz-adv-x="590" 
d="M296 473c-15.333 0 -28.833 5.66699 -40.5 17s-17.5 25 -17.5 41c0 15.333 5.66699 28.833 17 40.5s25 17.5 41 17.5s29.667 -5.66699 41 -17s17 -25 17 -41s-5.66699 -29.667 -17 -41s-25 -17 -41 -17zM296 111c-15.333 0 -28.833 5.66699 -40.5 17s-17.5 25 -17.5 41
s5.66699 29.667 17 41s25 17 41 17s29.667 -5.66699 41 -17s17 -25 17 -41c0 -15.333 -5.66699 -28.833 -17 -40.5s-25 -17.5 -41 -17.5zM71 316v63h448v-63h-448z" />
    <glyph glyph-name="oslash" unicode="&#xf8;" horiz-adv-x="630" 
d="M315 -13c-32.667 0 -63 5.16602 -91 15.499s-52.667 24.5 -74 42.5l-42 -45h-67l72 78c-20 23.333 -35.5 50 -46.5 80s-16.5 62.333 -16.5 97c0 50 11.333 95.333 34 136s54 72.834 94 96.501s85.667 35.5 137 35.5c31.333 0 60.333 -4.5 87 -13.5s51 -21.833 73 -38.5
l36 39h67l-66 -72c21.333 -23.333 38 -50.666 50 -81.999s18 -65 18 -101c0 -50 -11.5 -95.333 -34.5 -136s-54.333 -72.834 -94 -96.501s-85.167 -35.5 -136.5 -35.5zM315 47.999c38 0 71.668 9.16895 101.001 27.502s52.166 43.166 68.499 74.499s24.5 66.333 24.5 105
c0 26 -3.83301 50.167 -11.5 72.5s-18.5 42.166 -32.5 59.499l-272 -295c16 -13.333 34.333 -24 55 -32s43 -12 67 -12zM160.001 129.001l270.999 293.999c-15.333 12.667 -33 22.334 -53 29.001s-41 10 -63 10c-38.667 0 -72.5 -9.16699 -101.5 -27.5
s-51.667 -43.166 -68 -74.499s-24.5 -66.333 -24.5 -105c0 -24 3.33301 -46.833 10 -68.5s16.334 -40.834 29.001 -57.501z" />
    <glyph glyph-name="ugrave" unicode="&#xf9;" horiz-adv-x="621" 
d="M310 -13c-42.667 0 -81.668 9.16602 -117.001 27.499s-63.5 44.5 -84.5 78.5s-31.5 74 -31.5 120v297h70v-294c0 -35.333 7.83301 -65.666 23.5 -90.999s35.834 -44.5 60.501 -57.5s51 -19.5 79 -19.5c28.667 0 55.5 6.66699 80.5 20s45.167 32.5 60.5 57.5
s23 55.167 23 90.5v294h70v-297c0 -46 -10.5 -86 -31.5 -120s-49 -60.167 -84 -78.5s-74.5 -27.5 -118.5 -27.5zM269.999 576.999l-96 123h68l96 -123h-68z" />
    <glyph glyph-name="uacute" unicode="&#xfa;" horiz-adv-x="621" 
d="M310 -13c-42.667 0 -81.668 9.16602 -117.001 27.499s-63.5 44.5 -84.5 78.5s-31.5 74 -31.5 120v297h70v-294c0 -35.333 7.83301 -65.666 23.5 -90.999s35.834 -44.5 60.501 -57.5s51 -19.5 79 -19.5c28.667 0 55.5 6.66699 80.5 20s45.167 32.5 60.5 57.5
s23 55.167 23 90.5v294h70v-297c0 -46 -10.5 -86 -31.5 -120s-49 -60.167 -84 -78.5s-74.5 -27.5 -118.5 -27.5zM277.999 576.999l96 123h68l-96 -123h-68z" />
    <glyph glyph-name="ucircumflex" unicode="&#xfb;" horiz-adv-x="621" 
d="M310 -13c-42.667 0 -81.668 9.16602 -117.001 27.499s-63.5 44.5 -84.5 78.5s-31.5 74 -31.5 120v297h70v-294c0 -35.333 7.83301 -65.666 23.5 -90.999s35.834 -44.5 60.501 -57.5s51 -19.5 79 -19.5c28.667 0 55.5 6.66699 80.5 20s45.167 32.5 60.5 57.5
s23 55.167 23 90.5v294h70v-297c0 -46 -10.5 -86 -31.5 -120s-49 -60.167 -84 -78.5s-74.5 -27.5 -118.5 -27.5zM172.999 576.999l96 123h83l96 -123h-61l-77 93l-76 -93h-61z" />
    <glyph glyph-name="udieresis" unicode="&#xfc;" horiz-adv-x="621" 
d="M402 605c-12 0 -22.333 4.33301 -31 13s-13 19 -13 31s4.33301 22.333 13 31s19 13 31 13s22.333 -4.33301 31 -13s13 -19 13 -31s-4.33301 -22.333 -13 -31s-19 -13 -31 -13zM225 605c-12 0 -22.333 4.33301 -31 13s-13 19 -13 31s4.33301 22.333 13 31s19 13 31 13
s22.333 -4.33301 31 -13s13 -19 13 -31s-4.33301 -22.333 -13 -31s-19 -13 -31 -13zM310 -13c-42.667 0 -81.668 9.16602 -117.001 27.499s-63.5 44.5 -84.5 78.5s-31.5 74 -31.5 120v297h70v-294c0 -35.333 7.83301 -65.666 23.5 -90.999s35.834 -44.5 60.501 -57.5
s51 -19.5 79 -19.5c28.667 0 55.5 6.66699 80.5 20s45.167 32.5 60.5 57.5s23 55.167 23 90.5v294h70v-297c0 -46 -10.5 -86 -31.5 -120s-49 -60.167 -84 -78.5s-74.5 -27.5 -118.5 -27.5z" />
    <glyph glyph-name="yacute" unicode="&#xfd;" horiz-adv-x="621" 
d="M276 -203l-0.000976562 193c-37.333 4.66699 -71 16.5 -101 35.5s-53.833 44.5 -71.5 76.5s-26.5 69 -26.5 111v297h70v-294c0 -35.333 7.83301 -65.666 23.5 -90.999s35.834 -44.5 60.501 -57.5s51 -19.5 79 -19.5c28.667 0 55.5 6.66699 80.5 20s45.333 32.5 61 57.5
s23.5 55.167 23.5 90.5v294h69v-297c0 -42.667 -8.83301 -79.834 -26.5 -111.501s-41.5 -57 -71.5 -76s-63.333 -30.5 -100 -34.5v-194h-70zM272.999 577l96 123h68l-96 -123h-68z" />
    <glyph glyph-name="thorn" unicode="&#xfe;" horiz-adv-x="644" 
d="M77 -203l-0.000976562 932.998h70v-321h2c12.667 22.667 29.167 42.334 49.5 59.001s42.833 29.834 67.5 39.501s50.667 14.5 78 14.5c45.333 0 86.833 -10.667 124.5 -32s68 -51.833 91 -91.5s34.5 -87.5 34.5 -143.5c0 -42.667 -6.83301 -80.667 -20.5 -114
s-32.167 -61.5 -55.5 -84.5s-50 -40.333 -80 -52s-61.333 -17.5 -94 -17.5c-38.667 0 -75.667 9.16699 -111 27.5s-63.666 45.5 -84.999 81.5h-1v-299h-70zM333.999 47.998c34 0 65.332 8.16699 93.999 24.5s51.667 40 69 71s26 68.167 26 111.5
c0 42 -8.66699 78.5 -26 109.5s-40.166 54.833 -68.499 71.5s-59.166 25 -92.499 25s-64.333 -8.16699 -93 -24.5s-51.667 -39.833 -69 -70.5s-26 -68 -26 -112s8.5 -81.333 25.5 -112s39.667 -54 68 -70s59.166 -24 92.499 -24z" />
    <glyph glyph-name="ydieresis" unicode="&#xff;" horiz-adv-x="621" 
d="M405 605c-12 0 -22.333 4.33301 -31 13s-13 19 -13 31s4.33301 22.333 13 31s19 13 31 13s22.333 -4.33301 31 -13s13 -19 13 -31s-4.33301 -22.333 -13 -31s-19 -13 -31 -13zM228 605c-12 0 -22.333 4.33301 -31 13s-13 19 -13 31s4.33301 22.333 13 31s19 13 31 13
s22.333 -4.33301 31 -13s13 -19 13 -31s-4.33301 -22.333 -13 -31s-19 -13 -31 -13zM276 -203l-0.000976562 193c-37.333 4.66699 -71 16.5 -101 35.5s-53.833 44.5 -71.5 76.5s-26.5 69 -26.5 111v297h70v-294c0 -35.333 7.83301 -65.666 23.5 -90.999
s35.834 -44.5 60.501 -57.5s51 -19.5 79 -19.5c28.667 0 55.5 6.66699 80.5 20s45.333 32.5 61 57.5s23.5 55.167 23.5 90.5v294h69v-297c0 -42.667 -8.83301 -79.834 -26.5 -111.501s-41.5 -57 -71.5 -76s-63.333 -30.5 -100 -34.5v-194h-70z" />
    <glyph glyph-name="Amacron" unicode="&#x100;" horiz-adv-x="685" 
d="M3 0l244 639c10 26 22.833 44.833 38.5 56.5s34.167 17.5 55.5 17.5c22 0 41 -5.66699 57 -17s28.667 -30 38 -56l246 -640h-79l-70 184h-384l-70 -184h-76zM171 248h340l-136 367c-4 10.667 -8.5 19 -13.5 25s-11.5 9 -19.5 9c-8.66699 0 -15.167 -3 -19.5 -9
s-8.83301 -14.333 -13.5 -25zM196 767v49h288v-49h-288z" />
    <glyph glyph-name="amacron" unicode="&#x101;" horiz-adv-x="638" 
d="M295 -13c-51.333 0 -95.334 12 -132.001 36s-64.667 56.167 -84 96.5s-29 85.5 -29 135.5c0 50.667 10.667 96.167 32 136.5s51.833 72.166 91.5 95.499s86.834 35 141.501 35c52.667 0 98.167 -11.667 136.5 -35s68 -54.666 89 -93.999s31.5 -83.666 31.5 -132.999v-260
h-69v114h-3c-9.33301 -20 -23.333 -39.833 -42 -59.5s-41.5 -35.834 -68.5 -48.501s-58.5 -19 -94.5 -19zM309.999 47c37.333 0 70.332 9.16504 98.999 27.498s51.334 43.333 68.001 75s24.667 67.5 24 107.5c0 39.333 -7.66699 74.333 -23 105s-37 55 -65 73
s-61.333 27 -100 27c-40 0 -74.333 -9.16699 -103 -27.5s-50.667 -43.333 -66 -75s-23 -67.5 -23 -107.5c0 -37.333 7.33301 -71.666 22 -102.999s36.167 -56.166 64.5 -74.499s62.5 -27.5 102.5 -27.5zM169.998 603.998v49h288v-49h-288z" />
    <glyph glyph-name="Abreve" unicode="&#x102;" horiz-adv-x="685" 
d="M3 0l244 639c10 26 22.833 44.833 38.5 56.5s34.167 17.5 55.5 17.5c22 0 41 -5.66699 57 -17s28.667 -30 38 -56l246 -640h-79l-70 184h-384l-70 -184h-76zM171 248h340l-136 367c-4 10.667 -8.5 19 -13.5 25s-11.5 9 -19.5 9c-8.66699 0 -15.167 -3 -19.5 -9
s-8.83301 -14.333 -13.5 -25zM350 760c-22 0 -41.998 5.16699 -59.998 15.5s-32 24.833 -42 43.5s-15 40 -15 64h46c0 -24.667 6.66699 -44.334 20 -59.001s30.333 -22 51 -22c21.333 0 38.666 7.33301 51.999 22s20 34.334 20 59.001h45c0 -24 -5 -45.333 -15 -64
s-23.833 -33.167 -41.5 -43.5s-37.834 -15.5 -60.501 -15.5z" />
    <glyph glyph-name="abreve" unicode="&#x103;" horiz-adv-x="638" 
d="M295 -13c-51.333 0 -95.334 12 -132.001 36s-64.667 56.167 -84 96.5s-29 85.5 -29 135.5c0 50.667 10.667 96.167 32 136.5s51.833 72.166 91.5 95.499s86.834 35 141.501 35c52.667 0 98.167 -11.667 136.5 -35s68 -54.666 89 -93.999s31.5 -83.666 31.5 -132.999v-260
h-69v114h-3c-9.33301 -20 -23.333 -39.833 -42 -59.5s-41.5 -35.834 -68.5 -48.501s-58.5 -19 -94.5 -19zM309.999 47c37.333 0 70.332 9.16504 98.999 27.498s51.334 43.333 68.001 75s24.667 67.5 24 107.5c0 39.333 -7.66699 74.333 -23 105s-37 55 -65 73
s-61.333 27 -100 27c-40 0 -74.333 -9.16699 -103 -27.5s-50.667 -43.333 -66 -75s-23 -67.5 -23 -107.5c0 -37.333 7.33301 -71.666 22 -102.999s36.167 -56.166 64.5 -74.499s62.5 -27.5 102.5 -27.5zM318.998 572.998c-22 0 -41.998 5.16699 -59.998 15.5
s-32 24.833 -42 43.5s-15 40 -15 64h46c0 -24.667 6.66699 -44.334 20 -59.001s30.333 -22 51 -22c21.333 0 38.666 7.33301 51.999 22s20 34.334 20 59.001h45c0 -24 -5 -45.333 -15 -64s-23.833 -33.167 -41.5 -43.5s-37.834 -15.5 -60.501 -15.5z" />
    <glyph glyph-name="Aogonek" unicode="&#x104;" horiz-adv-x="685" 
d="M629 -216c-28 0 -52.002 7.83203 -72.002 23.499s-30 37.834 -30 66.501c0 16.667 5.16699 34.334 15.5 53.001s22.333 36.5 36 53.5s26 31.167 37 42.5s17.5 17.666 19.5 18.999l25 -16c-1.33301 -1.33301 -6.5 -7 -15.5 -17s-18.667 -22.167 -29 -36.5
s-19.5 -29.333 -27.5 -45s-12 -30.5 -12 -44.5c0 -16.667 5.5 -29.667 16.5 -39s24.5 -14 40.5 -14c6.66699 0 13.334 0.5 20.001 1.5s13.334 2.83301 20.001 5.5v-46c-6.66699 -2.66699 -14 -4.5 -22 -5.5s-15.333 -1.5 -22 -1.5zM2.99805 -0.000976562l244 639
c10 26 22.833 44.833 38.5 56.5s34.167 17.5 55.5 17.5c22 0 41 -5.66699 57 -17s28.667 -30 38 -56l246 -640h-79l-70 184h-384l-70 -184h-76zM170.998 247.999h340l-136 367c-4 10.667 -8.5 19 -13.5 25s-11.5 9 -19.5 9c-8.66699 0 -15.167 -3 -19.5 -9
s-8.83301 -14.333 -13.5 -25z" />
    <glyph glyph-name="aogonek" unicode="&#x105;" horiz-adv-x="638" 
d="M526 -218c-31.333 0 -57.1709 8.16895 -77.5039 24.502s-30.5 40.166 -30.5 71.499c0 18.667 5.5 37.5 16.5 56.5s23.833 36.5 38.5 52.5s27.834 29.167 39.501 39.5s18.5 16.166 20.5 17.499l26 -18c-1.33301 -1.33301 -6.83301 -6.5 -16.5 -15.5s-20.5 -20 -32.5 -33
s-22.167 -27.333 -30.5 -43s-12.5 -30.834 -12.5 -45.501c0 -18 5.5 -32.333 16.5 -43s25.833 -16 44.5 -16c6.66699 0 13.834 0.833008 21.501 2.5s15.834 3.83398 24.501 6.50098v-49c-4 -1.33301 -10.667 -3 -20 -5s-18.666 -3 -27.999 -3zM294.995 -12.998
c-51.333 0 -95.334 12 -132.001 36s-64.667 56.167 -84 96.5s-29 85.5 -29 135.5c0 50.667 10.667 96.167 32 136.5s51.833 72.166 91.5 95.499s86.834 35 141.501 35c52.667 0 98.167 -11.667 136.5 -35s68 -54.666 89 -93.999s31.5 -83.666 31.5 -132.999v-260h-69v114h-3
c-9.33301 -20 -23.333 -39.833 -42 -59.5s-41.5 -35.834 -68.5 -48.501s-58.5 -19 -94.5 -19zM309.994 47.002c37.333 0 70.332 9.16504 98.999 27.498s51.334 43.333 68.001 75s24.667 67.5 24 107.5c0 39.333 -7.66699 74.333 -23 105s-37 55 -65 73s-61.333 27 -100 27
c-40 0 -74.333 -9.16699 -103 -27.5s-50.667 -43.333 -66 -75s-23 -67.5 -23 -107.5c0 -37.333 7.33301 -71.666 22 -102.999s36.167 -56.166 64.5 -74.499s62.5 -27.5 102.5 -27.5z" />
    <glyph glyph-name="Cacute" unicode="&#x106;" horiz-adv-x="538" 
d="M388 0c-53.333 0.666992 -101.833 10.166 -145.5 28.499s-81.334 43.5 -113.001 75.5s-56.167 69.167 -73.5 111.5s-26 87.5 -26 135.5s8.66699 93 26 135s41.833 78.833 73.5 110.5s69.334 56.834 113.001 75.501s92.167 28 145.5 28h81v-64h-78
c-40.667 -0.666992 -78.5 -8.16699 -113.5 -22.5s-65.5 -34.333 -91.5 -60s-46.167 -55.834 -60.5 -90.501s-21.5 -72 -21.5 -112c0 -41.333 7.16699 -79.166 21.5 -113.499s34.5 -64.5 60.5 -90.5s56.5 -46.167 91.5 -60.5s72.833 -21.5 113.5 -21.5h78v-65h-81z
M266 756.999l96 123h68l-96 -123h-68z" />
    <glyph glyph-name="cacute" unicode="&#x107;" horiz-adv-x="425" 
d="M325 0c-52.667 0 -99.667 11.333 -141 34s-74 53.167 -98 91.5s-36 81.5 -36 129.5s12 91.167 36 129.5s56.667 68.833 98 91.5s88.333 34 141 34h58v-61h-63c-36.667 0 -70 -8.5 -100 -25.5s-54 -40.167 -72 -69.5s-27 -62.333 -27 -99s9 -69.667 27 -99
s42 -52.5 72 -69.5s63.333 -25.5 100 -25.5h63v-61h-58zM218 577l96 123h68l-96 -123h-68z" />
    <glyph glyph-name="Ccircumflex" unicode="&#x108;" horiz-adv-x="538" 
d="M388 0c-53.333 0.666992 -101.833 10.166 -145.5 28.499s-81.334 43.5 -113.001 75.5s-56.167 69.167 -73.5 111.5s-26 87.5 -26 135.5s8.66699 93 26 135s41.833 78.833 73.5 110.5s69.334 56.834 113.001 75.501s92.167 28 145.5 28h81v-64h-78
c-40.667 -0.666992 -78.5 -8.16699 -113.5 -22.5s-65.5 -34.333 -91.5 -60s-46.167 -55.834 -60.5 -90.501s-21.5 -72 -21.5 -112c0 -41.333 7.16699 -79.166 21.5 -113.499s34.5 -64.5 60.5 -90.5s56.5 -46.167 91.5 -60.5s72.833 -21.5 113.5 -21.5h78v-65h-81z
M185 756.999l96 123h83l96 -123h-61l-77 93l-76 -93h-61z" />
    <glyph glyph-name="ccircumflex" unicode="&#x109;" horiz-adv-x="433" 
d="M325 0c-52.667 0 -99.667 11.333 -141 34s-74 53.167 -98 91.5s-36 81.5 -36 129.5s12 91.167 36 129.5s56.667 68.833 98 91.5s88.333 34 141 34h58v-61h-63c-36.667 0 -70 -8.5 -100 -25.5s-54 -40.167 -72 -69.5s-27 -62.333 -27 -99s9 -69.667 27 -99
s42 -52.5 72 -69.5s63.333 -25.5 100 -25.5h63v-61h-58zM118 577l96 123h83l96 -123h-61l-77 93l-76 -93h-61z" />
    <glyph glyph-name="Cdotaccent" unicode="&#x10a;" horiz-adv-x="538" 
d="M388 0c-53.333 0.666992 -101.833 10.166 -145.5 28.499s-81.334 43.5 -113.001 75.5s-56.167 69.167 -73.5 111.5s-26 87.5 -26 135.5s8.66699 93 26 135s41.833 78.833 73.5 110.5s69.334 56.834 113.001 75.501s92.167 28 145.5 28h81v-64h-78
c-40.667 -0.666992 -78.5 -8.16699 -113.5 -22.5s-65.5 -34.333 -91.5 -60s-46.167 -55.834 -60.5 -90.501s-21.5 -72 -21.5 -112c0 -41.333 7.16699 -79.166 21.5 -113.499s34.5 -64.5 60.5 -90.5s56.5 -46.167 91.5 -60.5s72.833 -21.5 113.5 -21.5h78v-65h-81z
M345 759.999c-13.333 0 -25 5 -35 15s-15 21.667 -15 35c0 14 5 25.833 15 35.5s21.667 14.5 35 14.5c14 0 25.833 -4.83301 35.5 -14.5s14.5 -21.5 14.5 -35.5c0 -13.333 -4.83301 -25 -14.5 -35s-21.5 -15 -35.5 -15z" />
    <glyph glyph-name="cdotaccent" unicode="&#x10b;" horiz-adv-x="422" 
d="M325 0c-52.667 0 -99.667 11.333 -141 34s-74 53.167 -98 91.5s-36 81.5 -36 129.5s12 91.167 36 129.5s56.667 68.833 98 91.5s88.333 34 141 34h58v-61h-63c-36.667 0 -70 -8.5 -100 -25.5s-54 -40.167 -72 -69.5s-27 -62.333 -27 -99s9 -69.667 27 -99
s42 -52.5 72 -69.5s63.333 -25.5 100 -25.5h63v-61h-58zM291 601c-13.333 0 -25 5 -35 15s-15 21.667 -15 35c0 14 5 25.833 15 35.5s21.667 14.5 35 14.5c14 0 25.833 -4.83301 35.5 -14.5s14.5 -21.5 14.5 -35.5c0 -13.333 -4.83301 -25 -14.5 -35s-21.5 -15 -35.5 -15z
" />
    <glyph glyph-name="Ccaron" unicode="&#x10c;" horiz-adv-x="538" 
d="M388 0c-53.333 0.666992 -101.833 10.166 -145.5 28.499s-81.334 43.5 -113.001 75.5s-56.167 69.167 -73.5 111.5s-26 87.5 -26 135.5s8.66699 93 26 135s41.833 78.833 73.5 110.5s69.334 56.834 113.001 75.501s92.167 28 145.5 28h81v-64h-78
c-40.667 -0.666992 -78.5 -8.16699 -113.5 -22.5s-65.5 -34.333 -91.5 -60s-46.167 -55.834 -60.5 -90.501s-21.5 -72 -21.5 -112c0 -41.333 7.16699 -79.166 21.5 -113.499s34.5 -64.5 60.5 -90.5s56.5 -46.167 91.5 -60.5s72.833 -21.5 113.5 -21.5h78v-65h-81z
M277 756.999l-96 123h61l76 -93l77 93h61l-96 -123h-83z" />
    <glyph glyph-name="ccaron" unicode="&#x10d;" horiz-adv-x="433" 
d="M325 0c-52.667 0 -99.667 11.333 -141 34s-74 53.167 -98 91.5s-36 81.5 -36 129.5s12 91.167 36 129.5s56.667 68.833 98 91.5s88.333 34 141 34h58v-61h-63c-36.667 0 -70 -8.5 -100 -25.5s-54 -40.167 -72 -69.5s-27 -62.333 -27 -99s9 -69.667 27 -99
s42 -52.5 72 -69.5s63.333 -25.5 100 -25.5h63v-61h-58zM217 577l-96 123h61l76 -93l77 93h61l-96 -123h-83z" />
    <glyph glyph-name="Dcaron" unicode="&#x10e;" horiz-adv-x="703" 
d="M79 0v700h219c73.333 0 137.333 -15 192 -45s97 -71.167 127 -123.5s45 -112.5 45 -180.5s-15 -128.5 -45 -181.5s-72.333 -94.5 -127 -124.5s-118.667 -45 -192 -45h-219zM151 64l148 -0.000976562c55.333 0 105 11.5 149 34.5s78.5 56 103.5 99s37.5 94.167 37.5 153.5
c0 58.667 -12.5 109.334 -37.5 152.001s-59.5 75.5 -103.5 98.5s-93.667 34.5 -149 34.5h-148v-572zM271 756.999l-96 123h61l76 -93l77 93h61l-96 -123h-83z" />
    <glyph glyph-name="dcaron" unicode="&#x10f;" horiz-adv-x="757" 
d="M309 -13c-35.333 0 -68.833 6.16797 -100.5 18.501s-59.334 30.166 -83.001 53.499s-42.167 51.833 -55.5 85.5s-20 71.834 -20 114.501c0 54.667 11.333 101.5 34 140.5s52.834 69.167 90.501 90.5s79.5 32 125.5 32c28 0 54.667 -5 80 -15s48 -23.833 68 -41.5
s35.667 -37.834 47 -60.501h2v325h70v-476c0 -56.667 -11.667 -105 -35 -145s-54.5 -70.333 -93.5 -91s-82.167 -31 -129.5 -31zM310 48.001c33.333 0 64.1641 8 92.4971 24s51 39.333 68 70s25.5 68 25.5 112s-8.66699 81.333 -26 112s-40.166 54.167 -68.499 70.5
s-59.5 24.5 -93.5 24.5c-33.333 0 -64.166 -8.33301 -92.499 -25s-51.166 -40.5 -68.499 -71.5s-26 -67.5 -26 -109.5c0 -43.333 8.66699 -80.5 26 -111.5s40.5 -54.667 69.5 -71s60.167 -24.5 93.5 -24.5zM649.998 500.001l36 124.002
c-10.667 2.66699 -18.667 8.16699 -24 16.5s-8 17.166 -8 26.499c0 13.333 4.5 24.166 13.5 32.499s19.833 12.5 32.5 12.5c14 0 25 -4.83301 33 -14.5s12 -20.5 12 -32.5s-3.33301 -27 -10 -45l-37 -120h-48z" />
    <glyph glyph-name="Dcroat" unicode="&#x110;" horiz-adv-x="703" 
d="M79 0v324h-79v63h79v313h219c73.333 0 137.333 -15 192 -45s97 -71.167 127 -123.5s45 -112.5 45 -180.5s-15 -128.5 -45 -181.5s-72.333 -94.5 -127 -124.5s-118.667 -45 -192 -45h-219zM151 64l148 -0.000976562c55.333 0 105 11.5 149 34.5s78.5 56 103.5 99
s37.5 94.167 37.5 153.5c0 58.667 -12.5 109.334 -37.5 152.001s-59.5 75.5 -103.5 98.5s-93.667 34.5 -149 34.5h-148v-249h167v-63h-167v-260z" />
    <glyph glyph-name="dcroat" unicode="&#x111;" horiz-adv-x="642" 
d="M246 600v45h392v-45h-392zM309 -13c-35.333 0 -68.833 6.16797 -100.5 18.501s-59.334 30.166 -83.001 53.499s-42.167 51.833 -55.5 85.5s-20 71.834 -20 114.501c0 54.667 11.333 101.5 34 140.5s52.834 69.167 90.501 90.5s79.5 32 125.5 32c28 0 54.667 -5 80 -15
s48 -23.833 68 -41.5s35.667 -37.834 47 -60.501h2v325h70v-476c0 -56.667 -11.667 -105 -35 -145s-54.5 -70.333 -93.5 -91s-82.167 -31 -129.5 -31zM310 48.001c33.333 0 64.1641 8 92.4971 24s51 39.333 68 70s25.5 68 25.5 112s-8.66699 81.333 -26 112
s-40.166 54.167 -68.499 70.5s-59.5 24.5 -93.5 24.5c-33.333 0 -64.166 -8.33301 -92.499 -25s-51.166 -40.5 -68.499 -71.5s-26 -67.5 -26 -109.5c0 -43.333 8.66699 -80.5 26 -111.5s40.5 -54.667 69.5 -71s60.167 -24.5 93.5 -24.5z" />
    <glyph glyph-name="Emacron" unicode="&#x112;" horiz-adv-x="558" 
d="M242 0c-38.667 0 -72.332 8.99609 -100.999 26.9961s-50.834 41.833 -66.501 71.5s-23.5 61.167 -23.5 94.5s8.5 64.833 25.5 94.5s41.833 52.167 74.5 67.5c-32.667 16.667 -56.834 38.834 -72.501 66.501s-23.5 56.834 -23.5 87.501c0 35.333 8.33301 67.333 25 96
s39 51.5 67 68.5s59.333 25.5 94 25.5h271v-64h-263c-23.333 0 -44.166 -5.5 -62.499 -16.5s-32.833 -26.167 -43.5 -45.5s-16 -40.666 -16 -63.999c0 -21.333 5.66699 -41.333 17 -60s26.333 -33.5 45 -44.5s40 -16.5 64 -16.5h222v-64h-216
c-28.667 0 -53.167 -6.33301 -73.5 -19s-35.666 -29 -45.999 -49s-15.5 -41.333 -15.5 -64c0 -22 5 -42.667 15 -62s24.667 -35.166 44 -47.499s42.666 -18.5 69.999 -18.5h259v-64h-270zM173.002 779.996v49h288v-49h-288z" />
    <glyph glyph-name="emacron" unicode="&#x113;" horiz-adv-x="573" 
d="M336 0c-54.667 0 -103.5 10.167 -146.5 30.5s-77 49.5 -102 87.5s-37.5 83.667 -37.5 137c0 49.333 10 94.166 30 134.499s48.167 72.5 84.5 96.5s78.833 36 127.5 36c50 0 92.333 -11 127 -33s61 -51.667 79 -89s27 -79.333 27 -126c0 -6.66699 -0.333008 -14 -1 -22
s-1.66699 -15 -3 -21h-397c2 -37.333 12.667 -68.666 32 -93.999s44.5 -44.333 75.5 -57s64.5 -19 100.5 -19h129v-61h-125zM124 281l330.001 0.00292969c0 13.333 -1.33301 28.166 -4 44.499s-7.5 32.5 -14.5 48.5s-16.667 30.667 -29 44s-28 24.166 -47 32.499
s-42.167 12.5 -69.5 12.5c-25.333 0 -48.333 -5.33301 -69 -16s-38 -24.834 -52 -42.501s-24.833 -37.167 -32.5 -58.5s-11.834 -43 -12.501 -65zM149.001 608.003v49h288v-49h-288z" />
    <glyph glyph-name="Ebreve" unicode="&#x114;" horiz-adv-x="558" 
d="M242 0c-38.667 0 -72.332 8.99609 -100.999 26.9961s-50.834 41.833 -66.501 71.5s-23.5 61.167 -23.5 94.5s8.5 64.833 25.5 94.5s41.833 52.167 74.5 67.5c-32.667 16.667 -56.834 38.834 -72.501 66.501s-23.5 56.834 -23.5 87.501c0 35.333 8.33301 67.333 25 96
s39 51.5 67 68.5s59.333 25.5 94 25.5h271v-64h-263c-23.333 0 -44.166 -5.5 -62.499 -16.5s-32.833 -26.167 -43.5 -45.5s-16 -40.666 -16 -63.999c0 -21.333 5.66699 -41.333 17 -60s26.333 -33.5 45 -44.5s40 -16.5 64 -16.5h222v-64h-216
c-28.667 0 -53.167 -6.33301 -73.5 -19s-35.666 -29 -45.999 -49s-15.5 -41.333 -15.5 -64c0 -22 5 -42.667 15 -62s24.667 -35.166 44 -47.499s42.666 -18.5 69.999 -18.5h259v-64h-270zM328.002 749.996c-22 0 -41.998 5.16699 -59.998 15.5s-32 24.833 -42 43.5
s-15 40 -15 64h46c0 -24.667 6.66699 -44.334 20 -59.001s30.333 -22 51 -22c21.333 0 38.666 7.33301 51.999 22s20 34.334 20 59.001h45c0 -24 -5 -45.333 -15 -64s-23.833 -33.167 -41.5 -43.5s-37.834 -15.5 -60.501 -15.5z" />
    <glyph glyph-name="ebreve" unicode="&#x115;" horiz-adv-x="573" 
d="M336 0c-54.667 0 -103.5 10.167 -146.5 30.5s-77 49.5 -102 87.5s-37.5 83.667 -37.5 137c0 49.333 10 94.166 30 134.499s48.167 72.5 84.5 96.5s78.833 36 127.5 36c50 0 92.333 -11 127 -33s61 -51.667 79 -89s27 -79.333 27 -126c0 -6.66699 -0.333008 -14 -1 -22
s-1.66699 -15 -3 -21h-397c2 -37.333 12.667 -68.666 32 -93.999s44.5 -44.333 75.5 -57s64.5 -19 100.5 -19h129v-61h-125zM124 281l330.001 0.00292969c0 13.333 -1.33301 28.166 -4 44.499s-7.5 32.5 -14.5 48.5s-16.667 30.667 -29 44s-28 24.166 -47 32.499
s-42.167 12.5 -69.5 12.5c-25.333 0 -48.333 -5.33301 -69 -16s-38 -24.834 -52 -42.501s-24.833 -37.167 -32.5 -58.5s-11.834 -43 -12.501 -65zM309.001 573.003c-22 0 -41.998 5.16699 -59.998 15.5s-32 24.833 -42 43.5s-15 40 -15 64h46
c0 -24.667 6.66699 -44.334 20 -59.001s30.333 -22 51 -22c21.333 0 38.666 7.33301 51.999 22s20 34.334 20 59.001h45c0 -24 -5 -45.333 -15 -64s-23.833 -33.167 -41.5 -43.5s-37.834 -15.5 -60.501 -15.5z" />
    <glyph glyph-name="Edotaccent" unicode="&#x116;" horiz-adv-x="558" 
d="M242 0c-38.667 0 -72.332 8.99609 -100.999 26.9961s-50.834 41.833 -66.501 71.5s-23.5 61.167 -23.5 94.5s8.5 64.833 25.5 94.5s41.833 52.167 74.5 67.5c-32.667 16.667 -56.834 38.834 -72.501 66.501s-23.5 56.834 -23.5 87.501c0 35.333 8.33301 67.333 25 96
s39 51.5 67 68.5s59.333 25.5 94 25.5h271v-64h-263c-23.333 0 -44.166 -5.5 -62.499 -16.5s-32.833 -26.167 -43.5 -45.5s-16 -40.666 -16 -63.999c0 -21.333 5.66699 -41.333 17 -60s26.333 -33.5 45 -44.5s40 -16.5 64 -16.5h222v-64h-216
c-28.667 0 -53.167 -6.33301 -73.5 -19s-35.666 -29 -45.999 -49s-15.5 -41.333 -15.5 -64c0 -22 5 -42.667 15 -62s24.667 -35.166 44 -47.499s42.666 -18.5 69.999 -18.5h259v-64h-270zM323.002 759.996c-13.333 0 -25 5 -35 15s-15 21.667 -15 35c0 14 5 25.833 15 35.5
s21.667 14.5 35 14.5c14 0 25.833 -4.83301 35.5 -14.5s14.5 -21.5 14.5 -35.5c0 -13.333 -4.83301 -25 -14.5 -35s-21.5 -15 -35.5 -15z" />
    <glyph glyph-name="edotaccent" unicode="&#x117;" horiz-adv-x="573" 
d="M336 0c-54.667 0 -103.5 10.167 -146.5 30.5s-77 49.5 -102 87.5s-37.5 83.667 -37.5 137c0 49.333 10 94.166 30 134.499s48.167 72.5 84.5 96.5s78.833 36 127.5 36c50 0 92.333 -11 127 -33s61 -51.667 79 -89s27 -79.333 27 -126c0 -6.66699 -0.333008 -14 -1 -22
s-1.66699 -15 -3 -21h-397c2 -37.333 12.667 -68.666 32 -93.999s44.5 -44.333 75.5 -57s64.5 -19 100.5 -19h129v-61h-125zM124 281l330.001 0.00292969c0 13.333 -1.33301 28.166 -4 44.499s-7.5 32.5 -14.5 48.5s-16.667 30.667 -29 44s-28 24.166 -47 32.499
s-42.167 12.5 -69.5 12.5c-25.333 0 -48.333 -5.33301 -69 -16s-38 -24.834 -52 -42.501s-24.833 -37.167 -32.5 -58.5s-11.834 -43 -12.501 -65zM295.001 601.003c-13.333 0 -25 5 -35 15s-15 21.667 -15 35c0 14 5 25.833 15 35.5s21.667 14.5 35 14.5
c14 0 25.833 -4.83301 35.5 -14.5s14.5 -21.5 14.5 -35.5c0 -13.333 -4.83301 -25 -14.5 -35s-21.5 -15 -35.5 -15z" />
    <glyph glyph-name="Eogonek" unicode="&#x118;" horiz-adv-x="558" 
d="M475 -218c-36.667 0 -66.833 9.16602 -90.5 27.499s-35.5 45.833 -35.5 82.5c0 13.333 3 27.5 9 42.5s13.333 29.5 22 43.5s17.167 26.667 25.5 38s14.5 20.333 18.5 27l32 -8c-4.66699 -6.66699 -10.167 -15.167 -16.5 -25.5s-12.666 -21.833 -18.999 -34.5
s-11.5 -25.5 -15.5 -38.5s-6 -25.167 -6 -36.5c0 -21.333 7 -38.333 21 -51s32.667 -19 56 -19c8 0 16 0.833008 24 2.5s16.667 3.83398 26 6.50098v-49c-4 -1.33301 -10.833 -3 -20.5 -5s-19.834 -3 -30.501 -3zM242.001 -0.000976562
c-38.667 0 -72.332 8.99609 -100.999 26.9961s-50.834 41.833 -66.501 71.5s-23.5 61.167 -23.5 94.5s8.5 64.833 25.5 94.5s41.833 52.167 74.5 67.5c-32.667 16.667 -56.834 38.834 -72.501 66.501s-23.5 56.834 -23.5 87.501c0 35.333 8.33301 67.333 25 96
s39 51.5 67 68.5s59.333 25.5 94 25.5h271v-64h-263c-23.333 0 -44.166 -5.5 -62.499 -16.5s-32.833 -26.167 -43.5 -45.5s-16 -40.666 -16 -63.999c0 -21.333 5.66699 -41.333 17 -60s26.333 -33.5 45 -44.5s40 -16.5 64 -16.5h222v-64h-216
c-28.667 0 -53.167 -6.33301 -73.5 -19s-35.666 -29 -45.999 -49s-15.5 -41.333 -15.5 -64c0 -22 5 -42.667 15 -62s24.667 -35.166 44 -47.499s42.666 -18.5 69.999 -18.5h259v-64h-270z" />
    <glyph glyph-name="eogonek" unicode="&#x119;" horiz-adv-x="573" 
d="M475 -218c-34.667 0 -63.499 8.33105 -86.499 24.998s-34.5 41.667 -34.5 75c0 14.667 3.83301 29.834 11.5 45.501s17 31 28 46s22.167 28.833 33.5 41.5s21 22.667 29 30l3 -23l2 -22l-25.5 -33.5c-9 -12.333 -16.667 -25 -23 -38s-9.5 -25.5 -9.5 -37.5
c0 -19.333 7 -34.666 21 -45.999s32.333 -17 55 -17c7.33301 0 15 0.666992 23 2s16.667 3.33301 26 6v-47c-4.66699 -1.33301 -11.834 -2.83301 -21.501 -4.5s-20.167 -2.5 -31.5 -2.5zM336.001 -0.00195312c-54.667 0 -103.5 10.167 -146.5 30.5s-77 49.5 -102 87.5
s-37.5 83.667 -37.5 137c0 49.333 10 94.166 30 134.499s48.167 72.5 84.5 96.5s78.833 36 127.5 36c50 0 92.333 -11 127 -33s61 -51.667 79 -89s27 -79.333 27 -126c0 -6.66699 -0.333008 -14 -1 -22s-1.66699 -15 -3 -21h-397c2 -37.333 12.667 -68.666 32 -93.999
s44.5 -44.333 75.5 -57s64.5 -19 100.5 -19h129v-61h-125zM124.001 280.998l330.001 0.00292969c0 13.333 -1.33301 28.166 -4 44.499s-7.5 32.5 -14.5 48.5s-16.667 30.667 -29 44s-28 24.166 -47 32.499s-42.167 12.5 -69.5 12.5c-25.333 0 -48.333 -5.33301 -69 -16
s-38 -24.834 -52 -42.501s-24.833 -37.167 -32.5 -58.5s-11.834 -43 -12.501 -65z" />
    <glyph glyph-name="Ecaron" unicode="&#x11a;" horiz-adv-x="558" 
d="M242 0c-38.667 0 -72.332 8.99609 -100.999 26.9961s-50.834 41.833 -66.501 71.5s-23.5 61.167 -23.5 94.5s8.5 64.833 25.5 94.5s41.833 52.167 74.5 67.5c-32.667 16.667 -56.834 38.834 -72.501 66.501s-23.5 56.834 -23.5 87.501c0 35.333 8.33301 67.333 25 96
s39 51.5 67 68.5s59.333 25.5 94 25.5h271v-64h-263c-23.333 0 -44.166 -5.5 -62.499 -16.5s-32.833 -26.167 -43.5 -45.5s-16 -40.666 -16 -63.999c0 -21.333 5.66699 -41.333 17 -60s26.333 -33.5 45 -44.5s40 -16.5 64 -16.5h222v-64h-216
c-28.667 0 -53.167 -6.33301 -73.5 -19s-35.666 -29 -45.999 -49s-15.5 -41.333 -15.5 -64c0 -22 5 -42.667 15 -62s24.667 -35.166 44 -47.499s42.666 -18.5 69.999 -18.5h259v-64h-270zM274.002 756.996l-96 123h61l76 -93l77 93h61l-96 -123h-83z" />
    <glyph glyph-name="ecaron" unicode="&#x11b;" horiz-adv-x="573" 
d="M336 0c-54.667 0 -103.5 10.167 -146.5 30.5s-77 49.5 -102 87.5s-37.5 83.667 -37.5 137c0 49.333 10 94.166 30 134.499s48.167 72.5 84.5 96.5s78.833 36 127.5 36c50 0 92.333 -11 127 -33s61 -51.667 79 -89s27 -79.333 27 -126c0 -6.66699 -0.333008 -14 -1 -22
s-1.66699 -15 -3 -21h-397c2 -37.333 12.667 -68.666 32 -93.999s44.5 -44.333 75.5 -57s64.5 -19 100.5 -19h129v-61h-125zM124 281l330.001 0.00292969c0 13.333 -1.33301 28.166 -4 44.499s-7.5 32.5 -14.5 48.5s-16.667 30.667 -29 44s-28 24.166 -47 32.499
s-42.167 12.5 -69.5 12.5c-25.333 0 -48.333 -5.33301 -69 -16s-38 -24.834 -52 -42.501s-24.833 -37.167 -32.5 -58.5s-11.834 -43 -12.501 -65zM256.001 577.003l-96 123h61l76 -93l77 93h61l-96 -123h-83z" />
    <glyph glyph-name="Gcircumflex" unicode="&#x11c;" horiz-adv-x="835" 
d="M606 -222c-30.667 0 -58.499 6.50098 -83.499 19.501s-44.667 32 -59 57s-21.5 55.5 -21.5 91.5c0 8 0.333008 16.5 1 25.5s1.66699 17.833 3 26.5c-54.667 -4.66699 -106 0.333008 -154 15s-90.333 38 -127 70s-65.334 70.833 -86.001 116.5s-31 97.167 -31 154.5
c0 49.333 8.5 95.666 25.5 138.999s41.167 81.5 72.5 114.5s69 58.833 113 77.5s93 28 147 28c54.667 0 104 -9.16699 148 -27.5s81.667 -43.833 113 -76.5s55.333 -70.5 72 -113.5s25 -88.833 25 -137.5v-405c0 -36.667 -6.5 -68 -19.5 -94s-31.5 -46 -55.5 -60
s-51.667 -21 -83 -21zM601.001 -154.999c25.333 0 46.833 8.66699 64.5 26s26.5 43.666 26.5 78.999v270c-40 -23.333 -72 -47.5 -96 -72.5s-42.167 -49.5 -54.5 -73.5s-20.5 -46.333 -24.5 -67s-6 -38.667 -6 -54c0 -23.333 4.16699 -43.166 12.5 -59.499
s19.5 -28.5 33.5 -36.5s28.667 -12 44 -12zM406.001 60.001c12 0 22.667 0.501953 32 1.50195s19.666 2.5 30.999 4.5c9.33301 25.333 22.833 51.333 40.5 78s41.334 52.834 71.001 78.501s66.834 50.167 111.501 73.5v62c0 41.333 -7.16699 79.666 -21.5 114.999
s-34.333 66.166 -60 92.499s-55.834 46.666 -90.501 60.999s-72.667 21.5 -114 21.5c-40.667 0 -78.5 -7.33301 -113.5 -22s-65.333 -35.167 -91 -61.5s-45.667 -57.5 -60 -93.5s-21.5 -75 -21.5 -117s7.16699 -81 21.5 -117s34.333 -67.167 60 -93.5s56 -46.833 91 -61.5
s72.833 -22 113.5 -22zM283.001 757.003l96 123h83l96 -123h-61l-77 93l-76 -93h-61z" />
    <glyph glyph-name="gcircumflex" unicode="&#x11d;" horiz-adv-x="644" 
d="M155 -203v61.001h243c32.667 0 57.667 9.33301 75 28s26 44 26 76v146h-2c-12 -19.333 -27.333 -38 -46 -56s-40.834 -32.667 -66.501 -44s-55.167 -17 -88.5 -17c-49.333 0 -92.5 11.5 -129.5 34.5s-65.667 54.5 -86 94.5s-30.5 85.667 -30.5 137
c0 50 10.333 94.833 31 134.5s50.334 71.167 89.001 94.5s85 35 139 35c51.333 0 96.5 -11.333 135.5 -34s69.5 -53.834 91.5 -93.501s33 -85.5 33 -137.5v-302c0 -48 -14 -86.167 -42 -114.5s-66.333 -42.5 -115 -42.5h-257zM307 52.001c37.333 0 70.334 9 99.001 27
s51.167 42.167 67.5 72.5s24.5 65.166 24.5 104.499s-7.83301 74.333 -23.5 105s-37.834 55 -66.501 73s-62 27 -100 27c-38.667 0 -72.167 -9.16699 -100.5 -27.5s-49.833 -43 -64.5 -74s-22 -66.5 -22 -106.5c0 -37.333 7.33301 -71.166 22 -101.499s36 -54.5 64 -72.5
s61.333 -27 100 -27zM179.001 577.001l96 123h83l96 -123h-61l-77 93l-76 -93h-61z" />
    <glyph glyph-name="Gbreve" unicode="&#x11e;" horiz-adv-x="835" 
d="M606 -222c-30.667 0 -58.499 6.50098 -83.499 19.501s-44.667 32 -59 57s-21.5 55.5 -21.5 91.5c0 8 0.333008 16.5 1 25.5s1.66699 17.833 3 26.5c-54.667 -4.66699 -106 0.333008 -154 15s-90.333 38 -127 70s-65.334 70.833 -86.001 116.5s-31 97.167 -31 154.5
c0 49.333 8.5 95.666 25.5 138.999s41.167 81.5 72.5 114.5s69 58.833 113 77.5s93 28 147 28c54.667 0 104 -9.16699 148 -27.5s81.667 -43.833 113 -76.5s55.333 -70.5 72 -113.5s25 -88.833 25 -137.5v-405c0 -36.667 -6.5 -68 -19.5 -94s-31.5 -46 -55.5 -60
s-51.667 -21 -83 -21zM601.001 -154.999c25.333 0 46.833 8.66699 64.5 26s26.5 43.666 26.5 78.999v270c-40 -23.333 -72 -47.5 -96 -72.5s-42.167 -49.5 -54.5 -73.5s-20.5 -46.333 -24.5 -67s-6 -38.667 -6 -54c0 -23.333 4.16699 -43.166 12.5 -59.499
s19.5 -28.5 33.5 -36.5s28.667 -12 44 -12zM406.001 60.001c12 0 22.667 0.501953 32 1.50195s19.666 2.5 30.999 4.5c9.33301 25.333 22.833 51.333 40.5 78s41.334 52.834 71.001 78.501s66.834 50.167 111.501 73.5v62c0 41.333 -7.16699 79.666 -21.5 114.999
s-34.333 66.166 -60 92.499s-55.834 46.666 -90.501 60.999s-72.667 21.5 -114 21.5c-40.667 0 -78.5 -7.33301 -113.5 -22s-65.333 -35.167 -91 -61.5s-45.667 -57.5 -60 -93.5s-21.5 -75 -21.5 -117s7.16699 -81 21.5 -117s34.333 -67.167 60 -93.5s56 -46.833 91 -61.5
s72.833 -22 113.5 -22zM424.001 751.003c-22 0 -41.998 5.16699 -59.998 15.5s-32 24.833 -42 43.5s-15 40 -15 64h46c0 -24.667 6.66699 -44.334 20 -59.001s30.333 -22 51 -22c21.333 0 38.666 7.33301 51.999 22s20 34.334 20 59.001h45c0 -24 -5 -45.333 -15 -64
s-23.833 -33.167 -41.5 -43.5s-37.834 -15.5 -60.501 -15.5z" />
    <glyph glyph-name="gbreve" unicode="&#x11f;" horiz-adv-x="644" 
d="M155 -203v61.001h243c32.667 0 57.667 9.33301 75 28s26 44 26 76v146h-2c-12 -19.333 -27.333 -38 -46 -56s-40.834 -32.667 -66.501 -44s-55.167 -17 -88.5 -17c-49.333 0 -92.5 11.5 -129.5 34.5s-65.667 54.5 -86 94.5s-30.5 85.667 -30.5 137
c0 50 10.333 94.833 31 134.5s50.334 71.167 89.001 94.5s85 35 139 35c51.333 0 96.5 -11.333 135.5 -34s69.5 -53.834 91.5 -93.501s33 -85.5 33 -137.5v-302c0 -48 -14 -86.167 -42 -114.5s-66.333 -42.5 -115 -42.5h-257zM307 52.001c37.333 0 70.334 9 99.001 27
s51.167 42.167 67.5 72.5s24.5 65.166 24.5 104.499s-7.83301 74.333 -23.5 105s-37.834 55 -66.501 73s-62 27 -100 27c-38.667 0 -72.167 -9.16699 -100.5 -27.5s-49.833 -43 -64.5 -74s-22 -66.5 -22 -106.5c0 -37.333 7.33301 -71.166 22 -101.499s36 -54.5 64 -72.5
s61.333 -27 100 -27zM330.001 573.001c-22 0 -41.998 5.16699 -59.998 15.5s-32 24.833 -42 43.5s-15 40 -15 64h46c0 -24.667 6.66699 -44.334 20 -59.001s30.333 -22 51 -22c21.333 0 38.666 7.33301 51.999 22s20 34.334 20 59.001h45c0 -24 -5 -45.333 -15 -64
s-23.833 -33.167 -41.5 -43.5s-37.834 -15.5 -60.501 -15.5z" />
    <glyph glyph-name="Gdotaccent" unicode="&#x120;" horiz-adv-x="835" 
d="M606 -222c-30.667 0 -58.499 6.50098 -83.499 19.501s-44.667 32 -59 57s-21.5 55.5 -21.5 91.5c0 8 0.333008 16.5 1 25.5s1.66699 17.833 3 26.5c-54.667 -4.66699 -106 0.333008 -154 15s-90.333 38 -127 70s-65.334 70.833 -86.001 116.5s-31 97.167 -31 154.5
c0 49.333 8.5 95.666 25.5 138.999s41.167 81.5 72.5 114.5s69 58.833 113 77.5s93 28 147 28c54.667 0 104 -9.16699 148 -27.5s81.667 -43.833 113 -76.5s55.333 -70.5 72 -113.5s25 -88.833 25 -137.5v-405c0 -36.667 -6.5 -68 -19.5 -94s-31.5 -46 -55.5 -60
s-51.667 -21 -83 -21zM601.001 -154.999c25.333 0 46.833 8.66699 64.5 26s26.5 43.666 26.5 78.999v270c-40 -23.333 -72 -47.5 -96 -72.5s-42.167 -49.5 -54.5 -73.5s-20.5 -46.333 -24.5 -67s-6 -38.667 -6 -54c0 -23.333 4.16699 -43.166 12.5 -59.499
s19.5 -28.5 33.5 -36.5s28.667 -12 44 -12zM406.001 60.001c12 0 22.667 0.501953 32 1.50195s19.666 2.5 30.999 4.5c9.33301 25.333 22.833 51.333 40.5 78s41.334 52.834 71.001 78.501s66.834 50.167 111.501 73.5v62c0 41.333 -7.16699 79.666 -21.5 114.999
s-34.333 66.166 -60 92.499s-55.834 46.666 -90.501 60.999s-72.667 21.5 -114 21.5c-40.667 0 -78.5 -7.33301 -113.5 -22s-65.333 -35.167 -91 -61.5s-45.667 -57.5 -60 -93.5s-21.5 -75 -21.5 -117s7.16699 -81 21.5 -117s34.333 -67.167 60 -93.5s56 -46.833 91 -61.5
s72.833 -22 113.5 -22zM405.001 760.003c-13.333 0 -25 5 -35 15s-15 21.667 -15 35c0 14 5 25.833 15 35.5s21.667 14.5 35 14.5c14 0 25.833 -4.83301 35.5 -14.5s14.5 -21.5 14.5 -35.5c0 -13.333 -4.83301 -25 -14.5 -35s-21.5 -15 -35.5 -15z" />
    <glyph glyph-name="gdotaccent" unicode="&#x121;" horiz-adv-x="644" 
d="M155 -203v61.001h243c32.667 0 57.667 9.33301 75 28s26 44 26 76v146h-2c-12 -19.333 -27.333 -38 -46 -56s-40.834 -32.667 -66.501 -44s-55.167 -17 -88.5 -17c-49.333 0 -92.5 11.5 -129.5 34.5s-65.667 54.5 -86 94.5s-30.5 85.667 -30.5 137
c0 50 10.333 94.833 31 134.5s50.334 71.167 89.001 94.5s85 35 139 35c51.333 0 96.5 -11.333 135.5 -34s69.5 -53.834 91.5 -93.501s33 -85.5 33 -137.5v-302c0 -48 -14 -86.167 -42 -114.5s-66.333 -42.5 -115 -42.5h-257zM307 52.001c37.333 0 70.334 9 99.001 27
s51.167 42.167 67.5 72.5s24.5 65.166 24.5 104.499s-7.83301 74.333 -23.5 105s-37.834 55 -66.501 73s-62 27 -100 27c-38.667 0 -72.167 -9.16699 -100.5 -27.5s-49.833 -43 -64.5 -74s-22 -66.5 -22 -106.5c0 -37.333 7.33301 -71.166 22 -101.499s36 -54.5 64 -72.5
s61.333 -27 100 -27zM312.001 601.001c-13.333 0 -25 5 -35 15s-15 21.667 -15 35c0 14 5 25.833 15 35.5s21.667 14.5 35 14.5c14 0 25.833 -4.83301 35.5 -14.5s14.5 -21.5 14.5 -35.5c0 -13.333 -4.83301 -25 -14.5 -35s-21.5 -15 -35.5 -15z" />
    <glyph glyph-name="uni0122" unicode="&#x122;" horiz-adv-x="835" 
d="M606 -222c-30.667 0 -58.499 6.50098 -83.499 19.501s-44.667 32 -59 57s-21.5 55.5 -21.5 91.5c0 8 0.333008 16.5 1 25.5s1.66699 17.833 3 26.5c-54.667 -4.66699 -106 0.333008 -154 15s-90.333 38 -127 70s-65.334 70.833 -86.001 116.5s-31 97.167 -31 154.5
c0 49.333 8.5 95.666 25.5 138.999s41.167 81.5 72.5 114.5s69 58.833 113 77.5s93 28 147 28c54.667 0 104 -9.16699 148 -27.5s81.667 -43.833 113 -76.5s55.333 -70.5 72 -113.5s25 -88.833 25 -137.5v-405c0 -36.667 -6.5 -68 -19.5 -94s-31.5 -46 -55.5 -60
s-51.667 -21 -83 -21zM601.001 -154.999c25.333 0 46.833 8.66699 64.5 26s26.5 43.666 26.5 78.999v270c-40 -23.333 -72 -47.5 -96 -72.5s-42.167 -49.5 -54.5 -73.5s-20.5 -46.333 -24.5 -67s-6 -38.667 -6 -54c0 -23.333 4.16699 -43.166 12.5 -59.499
s19.5 -28.5 33.5 -36.5s28.667 -12 44 -12zM406.001 60.001c12 0 22.667 0.501953 32 1.50195s19.666 2.5 30.999 4.5c9.33301 25.333 22.833 51.333 40.5 78s41.334 52.834 71.001 78.501s66.834 50.167 111.501 73.5v62c0 41.333 -7.16699 79.666 -21.5 114.999
s-34.333 66.166 -60 92.499s-55.834 46.666 -90.501 60.999s-72.667 21.5 -114 21.5c-40.667 0 -78.5 -7.33301 -113.5 -22s-65.333 -35.167 -91 -61.5s-45.667 -57.5 -60 -93.5s-21.5 -75 -21.5 -117s7.16699 -81 21.5 -117s34.333 -67.167 60 -93.5s56 -46.833 91 -61.5
s72.833 -22 113.5 -22zM279.001 -303.997l36 124.002c-10.667 2.66699 -18.667 8.16699 -24 16.5s-8 17.166 -8 26.499c0 13.333 4.5 24.166 13.5 32.499s19.833 12.5 32.5 12.5c14 0 25 -4.83301 33 -14.5s12 -20.5 12 -32.5s-3.33301 -27 -10 -45l-37 -120h-48z" />
    <glyph glyph-name="uni0123" unicode="&#x123;" horiz-adv-x="644" 
d="M373 814l-35.999 -122.999c10 -2.66699 17.667 -8.16699 23 -16.5s8 -17.5 8 -27.5c0 -12.667 -4.33301 -23.334 -13 -32.001s-19.334 -13 -32.001 -13c-14 0 -25 4.83301 -33 14.5s-12 20.5 -12 32.5s3 27 9 45l38 120h48zM155.001 -202.999v61.001h243
c32.667 0 57.667 9.33301 75 28s26 44 26 76v146h-2c-12 -19.333 -27.333 -38 -46 -56s-40.834 -32.667 -66.501 -44s-55.167 -17 -88.5 -17c-49.333 0 -92.5 11.5 -129.5 34.5s-65.667 54.5 -86 94.5s-30.5 85.667 -30.5 137c0 50 10.333 94.833 31 134.5
s50.334 71.167 89.001 94.5s85 35 139 35c51.333 0 96.5 -11.333 135.5 -34s69.5 -53.834 91.5 -93.501s33 -85.5 33 -137.5v-302c0 -48 -14 -86.167 -42 -114.5s-66.333 -42.5 -115 -42.5h-257zM307.001 52.002c37.333 0 70.334 9 99.001 27s51.167 42.167 67.5 72.5
s24.5 65.166 24.5 104.499s-7.83301 74.333 -23.5 105s-37.834 55 -66.501 73s-62 27 -100 27c-38.667 0 -72.167 -9.16699 -100.5 -27.5s-49.833 -43 -64.5 -74s-22 -66.5 -22 -106.5c0 -37.333 7.33301 -71.166 22 -101.499s36 -54.5 64 -72.5s61.333 -27 100 -27z" />
    <glyph glyph-name="Hcircumflex" unicode="&#x124;" horiz-adv-x="703" 
d="M79 0v699h72v-311h401v311h72v-699h-72v324h-401v-324h-72zM215 757l96 123h83l96 -123h-61l-77 93l-76 -93h-61z" />
    <glyph glyph-name="hcircumflex" unicode="&#x125;" horiz-adv-x="632" 
d="M77 0v730.001h70v-301c20 31.333 46.167 54.833 78.5 70.5s66.5 23.5 102.5 23.5c42.667 0 81.167 -9.16699 115.5 -27.5s61.5 -44.333 81.5 -78s30 -73.834 30 -120.501l-1 -297h-69v294c0 35.333 -8.16699 65.5 -24.5 90.5s-37.333 44.167 -63 57.5
s-53.167 20 -82.5 20c-28 0 -55 -6.5 -81 -19.5s-47 -31.833 -63 -56.5s-24 -54.667 -24 -90v-296h-70zM-26 757.001l96 123h83l96 -123h-61l-77 93l-76 -93h-61z" />
    <glyph glyph-name="Hbar" unicode="&#x126;" horiz-adv-x="703" 
d="M21 517v46h661v-46h-661zM79 0v699h72v-311h401v311h72v-699h-72v324h-401v-324h-72z" />
    <glyph glyph-name="hbar" unicode="&#x127;" horiz-adv-x="632" 
d="M5 600v45h392v-45h-392zM77 0v730.001h70v-301c20 31.333 46.167 54.833 78.5 70.5s66.5 23.5 102.5 23.5c42.667 0 81.167 -9.16699 115.5 -27.5s61.5 -44.333 81.5 -78s30 -73.834 30 -120.501l-1 -297h-69v294c0 35.333 -8.16699 65.5 -24.5 90.5
s-37.333 44.167 -63 57.5s-53.167 20 -82.5 20c-28 0 -55 -6.5 -81 -19.5s-47 -31.833 -63 -56.5s-24 -54.667 -24 -90v-296h-70z" />
    <glyph glyph-name="Itilde" unicode="&#x128;" horiz-adv-x="454" 
d="M52 0v64h139v572h-139v64h350v-64h-139v-572h139v-64h-350zM298 747c-17.333 0 -31.668 2.83301 -43.001 8.5s-20.5 13 -27.5 22l-20.5 25.5c-6.66699 9.33301 -13.834 17.5 -21.501 24.5s-17.5 10.5 -29.5 10.5c-11.333 0 -21.166 -5 -29.499 -15s-12.5 -24 -12.5 -42
v-24h-48v23c0 33.333 9 59.166 27 77.499s39.667 27.5 65 27.5c22.667 0 40.667 -5.5 54 -16.5s24.333 -22.167 33 -33.5c8 -10 15.833 -19.167 23.5 -27.5s18.167 -12.5 31.5 -12.5c11.333 0 21.333 4.83301 30 14.5s13 23.834 13 42.501v24h48v-23
c0 -33.333 -9.16699 -59.333 -27.5 -78s-40.166 -28 -65.499 -28z" />
    <glyph glyph-name="itilde" unicode="&#x129;" horiz-adv-x="224" 
d="M77 0v510h70v-510h-70zM182 579c-17.333 0 -31.668 2.83301 -43.001 8.5s-20.5 13 -27.5 22l-20.5 25.5c-6.66699 9.33301 -13.834 17.5 -21.501 24.5s-17.5 10.5 -29.5 10.5c-11.333 0 -21.166 -5 -29.499 -15s-12.5 -24 -12.5 -42v-24h-48v23
c0 33.333 9 59.166 27 77.499s39.667 27.5 65 27.5c22.667 0 40.667 -5.5 54 -16.5s24.333 -22.167 33 -33.5c8 -10 15.833 -19.167 23.5 -27.5s18.167 -12.5 31.5 -12.5c11.333 0 21.333 4.83301 30 14.5s13 23.834 13 42.501v24h48v-23
c0 -33.333 -9.16699 -59.333 -27.5 -78s-40.166 -28 -65.499 -28z" />
    <glyph glyph-name="Imacron" unicode="&#x12a;" horiz-adv-x="454" 
d="M52 0v64h139v572h-139v64h350v-64h-139v-572h139v-64h-350zM79 768v49h288v-49h-288z" />
    <glyph glyph-name="imacron" unicode="&#x12b;" horiz-adv-x="224" 
d="M77 0v510h70v-510h-70zM-36 608v49h288v-49h-288z" />
    <glyph glyph-name="Ibreve" unicode="&#x12c;" horiz-adv-x="454" 
d="M52 0v64h139v572h-139v64h350v-64h-139v-572h139v-64h-350zM240 751c-22 0 -41.998 5.16699 -59.998 15.5s-32 24.833 -42 43.5s-15 40 -15 64h46c0 -24.667 6.66699 -44.334 20 -59.001s30.333 -22 51 -22c21.333 0 38.666 7.33301 51.999 22s20 34.334 20 59.001h45
c0 -24 -5 -45.333 -15 -64s-23.833 -33.167 -41.5 -43.5s-37.834 -15.5 -60.501 -15.5z" />
    <glyph glyph-name="ibreve" unicode="&#x12d;" horiz-adv-x="224" 
d="M77 0v510h70v-510h-70zM124 573c-22 0 -41.998 5.16699 -59.998 15.5s-32 24.833 -42 43.5s-15 40 -15 64h46c0 -24.667 6.66699 -44.334 20 -59.001s30.333 -22 51 -22c21.333 0 38.666 7.33301 51.999 22s20 34.334 20 59.001h45c0 -24 -5 -45.333 -15 -64
s-23.833 -33.167 -41.5 -43.5s-37.834 -15.5 -60.501 -15.5z" />
    <glyph glyph-name="Iogonek" unicode="&#x12e;" horiz-adv-x="454" 
d="M349 -218c-30 0 -56.334 7.99609 -79.001 23.9961s-34 41.667 -34 77c0 15.333 3.83301 31.333 11.5 48s16.834 32.5 27.501 47.5s21.5 28.333 32.5 40s20.167 20.5 27.5 26.5l23 -19c-6.66699 -4.66699 -14.167 -12.167 -22.5 -22.5s-16.166 -21.666 -23.499 -33.999
s-13.5 -25.166 -18.5 -38.499s-7.5 -25.666 -7.5 -36.999c0 -21.333 6.66699 -37.5 20 -48.5s28.666 -16.5 45.999 -16.5c8 0 16 0.833008 24 2.5s16.667 3.83398 26 6.50098v-48c-4 -1.33301 -11 -3 -21 -5s-20.667 -3 -32 -3zM51.999 -0.00390625v64h139v572h-139v64h350
v-64h-139v-572h139v-64h-350z" />
    <glyph glyph-name="iogonek" unicode="&#x12f;" horiz-adv-x="224" 
d="M100 -218c-32 0 -58.165 8.16895 -78.498 24.502s-30.5 40.166 -30.5 71.499c0 18.667 5.5 37.5 16.5 56.5s24 36.5 39 52.5s28.333 29.167 40 39.5s18.5 16.166 20.5 17.499l26 -18c-2 -1.33301 -7.83301 -6.5 -17.5 -15.5s-20.334 -20 -32.001 -33
s-21.834 -27.333 -30.501 -43s-13 -30.834 -13 -45.501c0 -18 5.66699 -32.333 17 -43s26.333 -16 45 -16c6 0 12.833 0.833008 20.5 2.5s16.167 3.83398 25.5 6.50098v-49c-4.66699 -1.33301 -11.667 -3 -21 -5s-18.333 -3 -27 -3zM77.002 0.00195312v510h70v-510h-70z
M112.002 602.002c-13.333 0 -25 5 -35 15s-15 21.667 -15 35s5 25 15 35s21.667 15 35 15c14 0 25.833 -5 35.5 -15s14.5 -21.667 14.5 -35s-4.83301 -25 -14.5 -35s-21.5 -15 -35.5 -15z" />
    <glyph glyph-name="Idotaccent" unicode="&#x130;" horiz-adv-x="454" 
d="M52 0v64h139v572h-139v64h350v-64h-139v-572h139v-64h-350zM227 760c-13.333 0 -25 5 -35 15s-15 21.667 -15 35c0 14 5 25.833 15 35.5s21.667 14.5 35 14.5c14 0 25.833 -4.83301 35.5 -14.5s14.5 -21.5 14.5 -35.5c0 -13.333 -4.83301 -25 -14.5 -35
s-21.5 -15 -35.5 -15z" />
    <glyph glyph-name="dotlessi" unicode="&#x131;" horiz-adv-x="224" 
d="M77 0v510h70v-510h-70z" />
    <glyph glyph-name="IJ" unicode="&#x132;" horiz-adv-x="859" 
d="M52 0v64h139v572h-139v64h350v-64h-139v-572h139v-64h-350zM625 -217c-28.667 0 -55.0029 5.83496 -79.0029 17.502s-42.833 29 -56.5 52s-20.5 51.167 -20.5 84.5c0 31.333 6.33301 65.666 19 102.999s36.334 76.666 71.001 117.999s84.334 83.333 149.001 126v352h-156
v64h228v-747c0 -36.667 -6.66699 -67.667 -20 -93s-31.666 -44.5 -54.999 -57.5s-50 -19.5 -80 -19.5zM620.997 -151.998c15.333 0 29.666 3.66797 42.999 11.001s24 18.5 32 33.5s12 34.167 12 57.5v258c-50.667 -36.667 -88.167 -71.667 -112.5 -105
s-40.166 -63.5 -47.499 -90.5s-11 -49.833 -11 -68.5c0 -32.667 8.5 -56.834 25.5 -72.501s36.5 -23.5 58.5 -23.5z" />
    <glyph glyph-name="ij" unicode="&#x133;" horiz-adv-x="448" 
d="M77 0v510h70v-510h-70zM112 602c-13.333 0 -25 5 -35 15s-15 21.667 -15 35c0 14 5 25.833 15 35.5s21.667 14.5 35 14.5c14 0 25.833 -4.83301 35.5 -14.5s14.5 -21.5 14.5 -35.5c0 -13.333 -4.83301 -25 -14.5 -35s-21.5 -15 -35.5 -15zM146 -147l1 61h65
c30 0 52.333 8 67 24s22 38.667 22 68v504h70v-512c0 -44.667 -12.833 -80 -38.5 -106s-61.167 -39 -106.5 -39h-80zM335 602c-13.333 0 -25 5 -35 15s-15 21.667 -15 35c0 14 5 25.833 15 35.5s21.667 14.5 35 14.5c14 0 25.833 -4.83301 35.5 -14.5s14.5 -21.5 14.5 -35.5
c0 -13.333 -4.83301 -25 -14.5 -35s-21.5 -15 -35.5 -15z" />
    <glyph glyph-name="Jcircumflex" unicode="&#x134;" horiz-adv-x="405" 
d="M171 -217c-28.667 0 -55.0029 5.83496 -79.0029 17.502s-42.833 29 -56.5 52s-20.5 51.167 -20.5 84.5c0 31.333 6.33301 65.666 19 102.999s36.334 76.666 71.001 117.999s84.334 83.333 149.001 126v352h-156v64h228v-747c0 -36.667 -6.66699 -67.667 -20 -93
s-31.666 -44.5 -54.999 -57.5s-50 -19.5 -80 -19.5zM166.997 -151.998c15.333 0 29.666 3.66797 42.999 11.001s24 18.5 32 33.5s12 34.167 12 57.5v258c-50.667 -36.667 -88.167 -71.667 -112.5 -105s-40.166 -63.5 -47.499 -90.5s-11 -49.833 -11 -68.5
c0 -32.667 8.5 -56.834 25.5 -72.501s36.5 -23.5 58.5 -23.5zM79.9971 758.003l96 123h83l96 -123h-61l-77 93l-76 -93h-61z" />
    <glyph glyph-name="jcircumflex" unicode="&#x135;" horiz-adv-x="223" 
d="M-78 -147l1 61h65c30 0 52.333 8 67 24s22 38.667 22 68v504h70v-512c0 -44.667 -12.833 -80 -38.5 -106s-61.167 -39 -106.5 -39h-80zM111 602c-13.333 0 -25 5 -35 15s-15 21.667 -15 35c0 14 5 25.833 15 35.5s21.667 14.5 35 14.5c14 0 25.833 -4.83301 35.5 -14.5
s14.5 -21.5 14.5 -35.5c0 -13.333 -4.83301 -25 -14.5 -35s-21.5 -15 -35.5 -15zM-26 757l96 123h83l96 -123h-61l-77 93l-76 -93h-61z" />
    <glyph glyph-name="uni0136" unicode="&#x136;" horiz-adv-x="679" 
d="M79 0l0.00292969 700.001h72v-328h206c31.333 0 59.666 5.83301 84.999 17.5s45.5 28.167 60.5 49.5s22.5 47 22.5 77v184h73v-183c0 -44.667 -12 -83.334 -36 -116.001s-56 -56.667 -96 -72l94 -224c6 -14.667 13 -25 21 -31s19 -9 33 -9h42v-65h-52
c-27.333 0 -49.833 6.16699 -67.5 18.5s-31.834 30.5 -42.501 54.5l-100 239c-8.66699 -1.33301 -17.334 -2.33301 -26.001 -3s-17.667 -1 -27 -1h-190v-308h-72zM288.003 -259.999l36 124.002c-10.667 2.66699 -18.667 8.16699 -24 16.5s-8 17.166 -8 26.499
c0 13.333 4.5 24.166 13.5 32.499s19.833 12.5 32.5 12.5c14 0 25 -4.83301 33 -14.5s12 -20.5 12 -32.5s-3.33301 -27 -10 -45l-37 -120h-48z" />
    <glyph glyph-name="uni0137" unicode="&#x137;" horiz-adv-x="611" 
d="M77 0v730.001h70v-443h169l139 223h79l-148 -233c50.667 -12.667 90 -38.334 118 -77.001s42 -84.667 42 -138v-62h-69v62c0 31.333 -7 59.333 -21 84s-33.167 44.167 -57.5 58.5s-52.833 21.5 -85.5 21.5h-166v-226h-70zM258 -292.999l36 124.002
c-10.667 2.66699 -18.667 8.16699 -24 16.5s-8 17.166 -8 26.499c0 13.333 4.5 24.166 13.5 32.499s19.833 12.5 32.5 12.5c14 0 25 -4.83301 33 -14.5s12 -20.5 12 -32.5s-3.33301 -27 -10 -45l-37 -120h-48z" />
    <glyph glyph-name="kgreenlandic" unicode="&#x138;" horiz-adv-x="611" 
d="M77 0l0.000976562 510h70v-223h168l67 119c14.667 26.667 28.167 47.5 40.5 62.5s25.666 25.667 39.999 32s31.5 9.5 51.5 9.5h36v-61h-23c-12 0 -23 -2.33301 -33 -7s-19.833 -13.167 -29.5 -25.5s-20.5 -29.5 -32.5 -51.5l-47 -88c50.667 -12 90.167 -37.333 118.5 -76
s42.5 -85 42.5 -139v-62h-69v62c0 31.333 -7 59.333 -21 84s-33.167 44.167 -57.5 58.5s-52.833 21.5 -85.5 21.5h-166v-226h-70z" />
    <glyph glyph-name="Lacute" unicode="&#x139;" horiz-adv-x="471" 
d="M247 0c-35.333 0 -66 7.49902 -92 22.499s-46 35.833 -60 62.5s-21 57 -21 91v523h72v-533c0 -29.333 9.16699 -53.666 27.5 -72.999s43.5 -29 75.5 -29h188v-64h-190zM104 757.999l96 123h68l-96 -123h-68z" />
    <glyph glyph-name="lacute" unicode="&#x13a;" horiz-adv-x="221" 
d="M77 0v730h70v-730h-70zM85 757l96 123h68l-96 -123h-68z" />
    <glyph glyph-name="uni013B" unicode="&#x13b;" horiz-adv-x="471" 
d="M247 0c-35.333 0 -66 7.49902 -92 22.499s-46 35.833 -60 62.5s-21 57 -21 91v523h72v-533c0 -29.333 9.16699 -53.666 27.5 -72.999s43.5 -29 75.5 -29h188v-64h-190zM220 -260.001l36 124.002c-10.667 2.66699 -18.667 8.16699 -24 16.5s-8 17.166 -8 26.499
c0 13.333 4.5 24.166 13.5 32.499s19.833 12.5 32.5 12.5c14 0 25 -4.83301 33 -14.5s12 -20.5 12 -32.5s-3.33301 -27 -10 -45l-37 -120h-48z" />
    <glyph glyph-name="uni013C" unicode="&#x13c;" horiz-adv-x="221" 
d="M77 0v730h70v-730h-70zM59 -293l36 124.002c-10.667 2.66699 -18.667 8.16699 -24 16.5s-8 17.166 -8 26.499c0 13.333 4.5 24.166 13.5 32.499s19.833 12.5 32.5 12.5c14 0 25 -4.83301 33 -14.5s12 -20.5 12 -32.5s-3.33301 -27 -10 -45l-37 -120h-48z" />
    <glyph glyph-name="Lcaron" unicode="&#x13d;" horiz-adv-x="471" 
d="M247 0c-35.333 0 -66 7.49902 -92 22.499s-46 35.833 -60 62.5s-21 57 -21 91v523h72v-533c0 -29.333 9.16699 -53.666 27.5 -72.999s43.5 -29 75.5 -29h188v-64h-190zM238 596.999l36 124.002c-10.667 2.66699 -18.667 8.16699 -24 16.5s-8 17.166 -8 26.499
c0 13.333 4.5 24.166 13.5 32.499s19.833 12.5 32.5 12.5c14 0 25 -4.83301 33 -14.5s12 -20.5 12 -32.5s-3.33301 -27 -10 -45l-37 -120h-48z" />
    <glyph glyph-name="lcaron" unicode="&#x13e;" horiz-adv-x="298" 
d="M77 0v730h70v-730h-70zM208 521l36 124.002c-10.667 2.66699 -18.667 8.16699 -24 16.5s-8 17.166 -8 26.499c0 13.333 4.5 24.166 13.5 32.499s19.833 12.5 32.5 12.5c14 0 25 -4.83301 33 -14.5s12 -20.5 12 -32.5s-3.33301 -27 -10 -45l-37 -120h-48z" />
    <glyph glyph-name="Ldot" unicode="&#x13f;" horiz-adv-x="441" 
d="M334 352c-14.667 0 -27.167 5.33301 -37.5 16s-15.5 23 -15.5 37c0 14.667 5.16699 27.167 15.5 37.5s22.833 15.5 37.5 15.5c14 0 26.167 -5.16699 36.5 -15.5s15.5 -22.833 15.5 -37.5c0 -14 -5.16699 -26.333 -15.5 -37s-22.5 -16 -36.5 -16zM247 0
c-35.333 0 -66 7.49902 -92 22.499s-46 35.833 -60 62.5s-21 57 -21 91v524h72v-534c0 -29.333 9.16699 -53.666 27.5 -72.999s43.5 -29 75.5 -29h52v-64h-54z" />
    <glyph glyph-name="ldot" unicode="&#x140;" horiz-adv-x="315" 
d="M77 0v730h70v-730h-70zM268 348c-13.333 0 -25 5 -35 15s-15 21.667 -15 35c0 14 5 25.833 15 35.5s21.667 14.5 35 14.5c14 0 25.833 -4.83301 35.5 -14.5s14.5 -21.5 14.5 -35.5c0 -13.333 -4.83301 -25 -14.5 -35s-21.5 -15 -35.5 -15z" />
    <glyph glyph-name="Lslash" unicode="&#x141;" horiz-adv-x="486" 
d="M1 333v46l323 77v-46zM247 0c-35.333 0 -66 7.49902 -92 22.499s-46 35.833 -60 62.5s-21 57 -21 91v523h72v-533c0 -29.333 9.16699 -53.666 27.5 -72.999s43.5 -29 75.5 -29h188v-64h-190z" />
    <glyph glyph-name="lslash" unicode="&#x142;" horiz-adv-x="224" 
d="M0 320v47l224 79v-47zM77 0v730h70v-730h-70z" />
    <glyph glyph-name="Nacute" unicode="&#x143;" horiz-adv-x="811" 
d="M546 -13c-34.667 0 -65.665 8.16699 -92.998 24.5s-48.666 38.666 -63.999 66.999s-23 60.5 -23 96.5v361c0 21.333 -5 40.5 -15 57.5s-23.167 30.333 -39.5 40s-34.5 14.5 -54.5 14.5s-38.333 -4.83301 -55 -14.5s-30 -23 -40 -40s-15 -36.167 -15 -57.5v-536h-72v525
c0 36.667 7.66699 69 23 97s36.666 50.167 63.999 66.5s59 24.5 95 24.5c35.333 0 66.666 -8.16699 93.999 -24.5s48.833 -38.5 64.5 -66.5s23.5 -60.333 23.5 -97v-361c0 -22 5 -41.333 15 -58s23 -29.834 39 -39.501s33.667 -14.5 53 -14.5s37 4.83301 53 14.5
s28.667 22.834 38 39.501s14 36 14 58v536h72v-525c0 -36 -7.33301 -68.167 -22 -96.5s-35.334 -50.666 -62.001 -66.999s-57.667 -24.5 -93 -24.5zM405.002 758l96 123h68l-96 -123h-68z" />
    <glyph glyph-name="nacute" unicode="&#x144;" horiz-adv-x="619" 
d="M77 0v297c0 46.667 10.5 86.834 31.5 120.501s49.167 59.667 84.5 78s74.333 27.5 117 27.5c43.333 0 82.5 -9.16699 117.5 -27.5s63 -44.333 84 -78s31.5 -73.834 31.5 -120.501v-297h-70v294c0 35.333 -7.66699 65.5 -23 90.5s-35.5 44.167 -60.5 57.5
s-51.833 20 -80.5 20c-28 0 -54.333 -6.5 -79 -19.5s-44.667 -32 -60 -57s-23 -55.5 -23 -91.5v-294h-70zM279 577l96 123h68l-96 -123h-68z" />
    <glyph glyph-name="uni0145" unicode="&#x145;" horiz-adv-x="798" 
d="M546 -13c-34.667 0 -65.665 8.16699 -92.998 24.5s-48.666 38.666 -63.999 66.999s-23 60.5 -23 96.5v361c0 21.333 -5 40.5 -15 57.5s-23.167 30.333 -39.5 40s-34.5 14.5 -54.5 14.5s-38.333 -4.83301 -55 -14.5s-30 -23 -40 -40s-15 -36.167 -15 -57.5v-536h-72v525
c0 36.667 7.66699 69 23 97s36.666 50.167 63.999 66.5s59 24.5 95 24.5c35.333 0 66.666 -8.16699 93.999 -24.5s48.833 -38.5 64.5 -66.5s23.5 -60.333 23.5 -97v-361c0 -22 5 -41.333 15 -58s23 -29.834 39 -39.501s33.667 -14.5 53 -14.5s37 4.83301 53 14.5
s28.667 22.834 38 39.501s14 36 14 58v536h72v-525c0 -36 -7.33301 -68.167 -22 -96.5s-35.334 -50.666 -62.001 -66.999s-57.667 -24.5 -93 -24.5zM363.002 -260l36 124.002c-10.667 2.66699 -18.667 8.16699 -24 16.5s-8 17.166 -8 26.499
c0 13.333 4.5 24.166 13.5 32.499s19.833 12.5 32.5 12.5c14 0 25 -4.83301 33 -14.5s12 -20.5 12 -32.5s-3.33301 -27 -10 -45l-37 -120h-48z" />
    <glyph glyph-name="uni0146" unicode="&#x146;" horiz-adv-x="619" 
d="M77 0v297c0 46.667 10.5 86.834 31.5 120.501s49.167 59.667 84.5 78s74.333 27.5 117 27.5c43.333 0 82.5 -9.16699 117.5 -27.5s63 -44.333 84 -78s31.5 -73.834 31.5 -120.501v-297h-70v294c0 35.333 -7.66699 65.5 -23 90.5s-35.5 44.167 -60.5 57.5
s-51.833 20 -80.5 20c-28 0 -54.333 -6.5 -79 -19.5s-44.667 -32 -60 -57s-23 -55.5 -23 -91.5v-294h-70zM270 -293l36 124.002c-10.667 2.66699 -18.667 8.16699 -24 16.5s-8 17.166 -8 26.499c0 13.333 4.5 24.166 13.5 32.499s19.833 12.5 32.5 12.5
c14 0 25 -4.83301 33 -14.5s12 -20.5 12 -32.5s-3.33301 -27 -10 -45l-37 -120h-48z" />
    <glyph glyph-name="Ncaron" unicode="&#x147;" horiz-adv-x="798" 
d="M546 -13c-34.667 0 -65.665 8.16699 -92.998 24.5s-48.666 38.666 -63.999 66.999s-23 60.5 -23 96.5v361c0 21.333 -5 40.5 -15 57.5s-23.167 30.333 -39.5 40s-34.5 14.5 -54.5 14.5s-38.333 -4.83301 -55 -14.5s-30 -23 -40 -40s-15 -36.167 -15 -57.5v-536h-72v525
c0 36.667 7.66699 69 23 97s36.666 50.167 63.999 66.5s59 24.5 95 24.5c35.333 0 66.666 -8.16699 93.999 -24.5s48.833 -38.5 64.5 -66.5s23.5 -60.333 23.5 -97v-361c0 -22 5 -41.333 15 -58s23 -29.834 39 -39.501s33.667 -14.5 53 -14.5s37 4.83301 53 14.5
s28.667 22.834 38 39.501s14 36 14 58v536h72v-525c0 -36 -7.33301 -68.167 -22 -96.5s-35.334 -50.666 -62.001 -66.999s-57.667 -24.5 -93 -24.5zM370.002 757l-96 123h61l76 -93l77 93h61l-96 -123h-83z" />
    <glyph glyph-name="ncaron" unicode="&#x148;" horiz-adv-x="619" 
d="M77 0v297c0 46.667 10.5 86.834 31.5 120.501s49.167 59.667 84.5 78s74.333 27.5 117 27.5c43.333 0 82.5 -9.16699 117.5 -27.5s63 -44.333 84 -78s31.5 -73.834 31.5 -120.501v-297h-70v294c0 35.333 -7.66699 65.5 -23 90.5s-35.5 44.167 -60.5 57.5
s-51.833 20 -80.5 20c-28 0 -54.333 -6.5 -79 -19.5s-44.667 -32 -60 -57s-23 -55.5 -23 -91.5v-294h-70zM268 577l-96 123h61l76 -93l77 93h61l-96 -123h-83z" />
    <glyph glyph-name="napostrophe" unicode="&#x149;" horiz-adv-x="670" 
d="M128 0v297c0 46.667 10.5 86.834 31.5 120.501s49.167 59.667 84.5 78s74.333 27.5 117 27.5c43.333 0 82.5 -9.16699 117.5 -27.5s63 -44.333 84 -78s31.5 -73.834 31.5 -120.501v-297h-70v294c0 35.333 -7.66699 65.5 -23 90.5s-35.5 44.167 -60.5 57.5
s-51.833 20 -80.5 20c-28 0 -54.333 -6.5 -79 -19.5s-44.667 -32 -60 -57s-23 -55.5 -23 -91.5v-294h-70zM2 381l36 124.002c-10.667 2.66699 -18.667 8.16699 -24 16.5s-8 17.166 -8 26.499c0 13.333 4.5 24.166 13.5 32.499s19.833 12.5 32.5 12.5
c14 0 25 -4.83301 33 -14.5s12 -20.5 12 -32.5s-3.33301 -27 -10 -45l-37 -120h-48z" />
    <glyph glyph-name="Eng" unicode="&#x14a;" horiz-adv-x="798" 
d="M501 -216l1.00098 65.001h47c33.333 0 58.666 9.33301 75.999 28s26 45.667 26 81v326h72v-337c0 -32 -6 -60.333 -18 -85s-29.667 -43.834 -53 -57.501s-52.333 -20.5 -87 -20.5h-64zM546.001 -12.999c-34.667 0 -65.665 8.16699 -92.998 24.5
s-48.666 38.666 -63.999 66.999s-23 60.5 -23 96.5v361c0 21.333 -5 40.5 -15 57.5s-23.167 30.333 -39.5 40s-34.5 14.5 -54.5 14.5s-38.333 -4.83301 -55 -14.5s-30 -23 -40 -40s-15 -36.167 -15 -57.5v-536h-72v525c0 36.667 7.66699 69 23 97s36.666 50.167 63.999 66.5
s59 24.5 95 24.5c35.333 0 66.666 -8.16699 93.999 -24.5s48.833 -38.5 64.5 -66.5s23.5 -60.333 23.5 -97v-361c0 -22 5 -41.333 15 -58s23 -29.834 39 -39.501s33.667 -14.5 53 -14.5s37 4.83301 53 14.5s28.667 22.834 38 39.501s14 36 14 58v536h72v-525
c0 -36 -7.33301 -68.167 -22 -96.5s-35.334 -50.666 -62.001 -66.999s-57.667 -24.5 -93 -24.5z" />
    <glyph glyph-name="eng" unicode="&#x14b;" horiz-adv-x="619" 
d="M318 -147l1 61h65c30 0 52.333 8 67 24s22 38.667 22 68v288c0 35.333 -7.66699 65.5 -23 90.5s-35.5 44.167 -60.5 57.5s-51.833 20 -80.5 20c-28 0 -54.333 -6.5 -79 -19.5s-44.667 -32 -60 -57s-23 -55.5 -23 -91.5v-294h-70v297c0 46.667 10.5 86.834 31.5 120.501
s49.167 59.667 84.5 78s74.333 27.5 117 27.5c43.333 0 82.5 -9.16699 117.5 -27.5s63 -44.333 84 -78s31.5 -73.834 31.5 -120.501v-299c0 -44.667 -12.833 -80 -38.5 -106s-61.167 -39 -106.5 -39h-80z" />
    <glyph glyph-name="Omacron" unicode="&#x14c;" horiz-adv-x="820" 
d="M410 -13c-54.667 0 -104.334 9.33301 -149.001 28s-82.834 44.667 -114.501 78s-56 72 -73 116s-25.5 91 -25.5 141s8.5 97 25.5 141s41.333 82.667 73 116s69.834 59.333 114.501 78s94.334 28 149.001 28c55.333 0 105.166 -9.33301 149.499 -28
s82.333 -44.667 114 -78s56 -72 73 -116s25.5 -91 25.5 -141s-8.5 -97 -25.5 -141s-41.333 -82.667 -73 -116s-69.667 -59.333 -114 -78s-94.166 -28 -149.499 -28zM410 52c42 0 80.667 7.33301 116 22s66 35.5 92 62.5s46.167 58.667 60.5 95s21.5 75.833 21.5 118.5
c0 43.333 -7.16699 83 -21.5 119s-34.5 67.5 -60.5 94.5s-56.667 48 -92 63s-74 22.5 -116 22.5c-41.333 0 -79.666 -7.5 -114.999 -22.5s-66.166 -36 -92.499 -63s-46.666 -58.667 -60.999 -95s-21.5 -75.833 -21.5 -118.5s7.16699 -82.167 21.5 -118.5
s34.666 -68 60.999 -95s57.166 -47.833 92.499 -62.5s73.666 -22 114.999 -22zM264 767v49h288v-49h-288z" />
    <glyph glyph-name="omacron" unicode="&#x14d;" horiz-adv-x="630" 
d="M315 -13c-51.333 0 -97 11.832 -137 35.499s-71.333 55.834 -94 96.501s-34 86 -34 136s11.333 95.333 34 136s54 72.834 94 96.501s85.667 35.5 137 35.5s96.833 -11.833 136.5 -35.5s71 -55.667 94 -96s34.5 -85.833 34.5 -136.5c0 -50 -11.5 -95.333 -34.5 -136
s-54.333 -72.834 -94 -96.501s-85.167 -35.5 -136.5 -35.5zM315 47.999c38 0 71.667 9.16699 101 27.5s52.166 43.166 68.499 74.499s24.5 66.333 24.5 105s-8.16699 73.667 -24.5 105s-39.166 56.166 -68.499 74.499s-63 27.5 -101 27.5
c-38.667 0 -72.5 -9.16699 -101.5 -27.5s-51.667 -43.166 -68 -74.499s-24.5 -66.333 -24.5 -105s8.16699 -73.667 24.5 -105s39 -56.166 68 -74.499s62.833 -27.5 101.5 -27.5zM171 607.999v49h288v-49h-288z" />
    <glyph glyph-name="Obreve" unicode="&#x14e;" horiz-adv-x="820" 
d="M410 -13c-54.667 0 -104.334 9.33301 -149.001 28s-82.834 44.667 -114.501 78s-56 72 -73 116s-25.5 91 -25.5 141s8.5 97 25.5 141s41.333 82.667 73 116s69.834 59.333 114.501 78s94.334 28 149.001 28c55.333 0 105.166 -9.33301 149.499 -28
s82.333 -44.667 114 -78s56 -72 73 -116s25.5 -91 25.5 -141s-8.5 -97 -25.5 -141s-41.333 -82.667 -73 -116s-69.667 -59.333 -114 -78s-94.166 -28 -149.499 -28zM410 52c42 0 80.667 7.33301 116 22s66 35.5 92 62.5s46.167 58.667 60.5 95s21.5 75.833 21.5 118.5
c0 43.333 -7.16699 83 -21.5 119s-34.5 67.5 -60.5 94.5s-56.667 48 -92 63s-74 22.5 -116 22.5c-41.333 0 -79.666 -7.5 -114.999 -22.5s-66.166 -36 -92.499 -63s-46.666 -58.667 -60.999 -95s-21.5 -75.833 -21.5 -118.5s7.16699 -82.167 21.5 -118.5
s34.666 -68 60.999 -95s57.166 -47.833 92.499 -62.5s73.666 -22 114.999 -22zM418 750c-22 0 -41.998 5.16699 -59.998 15.5s-32 24.833 -42 43.5s-15 40 -15 64h46c0 -24.667 6.66699 -44.334 20 -59.001s30.333 -22 51 -22c21.333 0 38.666 7.33301 51.999 22
s20 34.334 20 59.001h45c0 -24 -5 -45.333 -15 -64s-23.833 -33.167 -41.5 -43.5s-37.834 -15.5 -60.501 -15.5z" />
    <glyph glyph-name="obreve" unicode="&#x14f;" horiz-adv-x="630" 
d="M315 -13c-51.333 0 -97 11.832 -137 35.499s-71.333 55.834 -94 96.501s-34 86 -34 136s11.333 95.333 34 136s54 72.834 94 96.501s85.667 35.5 137 35.5s96.833 -11.833 136.5 -35.5s71 -55.667 94 -96s34.5 -85.833 34.5 -136.5c0 -50 -11.5 -95.333 -34.5 -136
s-54.333 -72.834 -94 -96.501s-85.167 -35.5 -136.5 -35.5zM315 47.999c38 0 71.667 9.16699 101 27.5s52.166 43.166 68.499 74.499s24.5 66.333 24.5 105s-8.16699 73.667 -24.5 105s-39.166 56.166 -68.499 74.499s-63 27.5 -101 27.5
c-38.667 0 -72.5 -9.16699 -101.5 -27.5s-51.667 -43.166 -68 -74.499s-24.5 -66.333 -24.5 -105s8.16699 -73.667 24.5 -105s39 -56.166 68 -74.499s62.833 -27.5 101.5 -27.5zM327 572.999c-22 0 -41.998 5.16699 -59.998 15.5s-32 24.833 -42 43.5s-15 40 -15 64h46
c0 -24.667 6.66699 -44.334 20 -59.001s30.333 -22 51 -22c21.333 0 38.666 7.33301 51.999 22s20 34.334 20 59.001h45c0 -24 -5 -45.333 -15 -64s-23.833 -33.167 -41.5 -43.5s-37.834 -15.5 -60.501 -15.5z" />
    <glyph glyph-name="Ohungarumlaut" unicode="&#x150;" horiz-adv-x="820" 
d="M410 -13c-54.667 0 -104.334 9.33301 -149.001 28s-82.834 44.667 -114.501 78s-56 72 -73 116s-25.5 91 -25.5 141s8.5 97 25.5 141s41.333 82.667 73 116s69.834 59.333 114.501 78s94.334 28 149.001 28c55.333 0 105.166 -9.33301 149.499 -28
s82.333 -44.667 114 -78s56 -72 73 -116s25.5 -91 25.5 -141s-8.5 -97 -25.5 -141s-41.333 -82.667 -73 -116s-69.667 -59.333 -114 -78s-94.166 -28 -149.499 -28zM410 52c42 0 80.667 7.33301 116 22s66 35.5 92 62.5s46.167 58.667 60.5 95s21.5 75.833 21.5 118.5
c0 43.333 -7.16699 83 -21.5 119s-34.5 67.5 -60.5 94.5s-56.667 48 -92 63s-74 22.5 -116 22.5c-41.333 0 -79.666 -7.5 -114.999 -22.5s-66.166 -36 -92.499 -63s-46.666 -58.667 -60.999 -95s-21.5 -75.833 -21.5 -118.5s7.16699 -82.167 21.5 -118.5
s34.666 -68 60.999 -95s57.166 -47.833 92.499 -62.5s73.666 -22 114.999 -22zM451 757l90 123h63l-90 -123h-63zM295 757l90 123h63l-90 -123h-63z" />
    <glyph glyph-name="ohungarumlaut" unicode="&#x151;" horiz-adv-x="630" 
d="M315 -13c-51.333 0 -97 11.832 -137 35.499s-71.333 55.834 -94 96.501s-34 86 -34 136s11.333 95.333 34 136s54 72.834 94 96.501s85.667 35.5 137 35.5s96.833 -11.833 136.5 -35.5s71 -55.667 94 -96s34.5 -85.833 34.5 -136.5c0 -50 -11.5 -95.333 -34.5 -136
s-54.333 -72.834 -94 -96.501s-85.167 -35.5 -136.5 -35.5zM315 47.999c38 0 71.667 9.16699 101 27.5s52.166 43.166 68.499 74.499s24.5 66.333 24.5 105s-8.16699 73.667 -24.5 105s-39.166 56.166 -68.499 74.499s-63 27.5 -101 27.5
c-38.667 0 -72.5 -9.16699 -101.5 -27.5s-51.667 -43.166 -68 -74.499s-24.5 -66.333 -24.5 -105s8.16699 -73.667 24.5 -105s39 -56.166 68 -74.499s62.833 -27.5 101.5 -27.5zM351 576.999l90 123h63l-90 -123h-63zM195 576.999l90 123h63l-90 -123h-63z" />
    <glyph glyph-name="OE" unicode="&#x152;" horiz-adv-x="1119" 
d="M410 -13c-54.667 0 -104.334 9.33301 -149.001 28s-82.834 44.667 -114.501 78s-56 72 -73 116s-25.5 91 -25.5 141s8.5 97 25.5 141s41.333 82.667 73 116s69.834 59.333 114.501 78s94.334 28 149.001 28c50.667 0 96.834 -8.33301 138.501 -25s77.5 -39.667 107.5 -69
c16 24.667 37 44.167 63 58.5s53.667 21.5 83 21.5h271v-64h-263c-23.333 0 -44.833 -5.83301 -64.5 -17.5s-34.834 -27.5 -45.501 -47.5c40 -51.333 62.667 -112 68 -182h267v-64h-267c-1.33301 -37.333 -8 -72.666 -20 -105.999s-28.333 -63.333 -49 -90
c10 -18.667 24.833 -34 44.5 -46s43.167 -18 70.5 -18h259v-64h-270c-32.667 0 -61.5 7.16699 -86.5 21.5s-45.833 33.166 -62.5 56.499c-30 -28 -65.667 -50.167 -107 -66.5s-87 -24.5 -137 -24.5zM410 52c42 0 80.667 7.33301 116 22s66 35.5 92 62.5
s46.167 58.667 60.5 95s21.5 75.833 21.5 118.5s-7.16699 82.167 -21.5 118.5s-34.5 68 -60.5 95s-56.667 47.833 -92 62.5s-74 22 -116 22c-41.333 0 -79.666 -7.33301 -114.999 -22s-66.166 -35.5 -92.499 -62.5s-46.666 -58.667 -60.999 -95s-21.5 -75.833 -21.5 -118.5
s7.16699 -82.167 21.5 -118.5s34.666 -68 60.999 -95s57.166 -47.833 92.499 -62.5s73.666 -22 114.999 -22z" />
    <glyph glyph-name="oe" unicode="&#x153;" horiz-adv-x="1028" 
d="M312 -12c-50.667 0 -95.6641 11.8301 -134.997 35.4971s-70.333 55.667 -93 96s-34 85.5 -34 135.5s11.333 95.167 34 135.5s53.667 72.333 93 96s84.333 35.5 135 35.5c51.333 0 96.666 -13.333 135.999 -40s68.333 -61.667 87 -105
c11.333 28.667 27.166 53.834 47.499 75.501s44.166 38.667 71.499 51s57.666 18.5 90.999 18.5c50.667 0 93.334 -11 128.001 -33s61 -51.667 79 -89s27 -79.333 27 -126c0 -6.66699 -0.333008 -14 -1 -22s-1.66699 -15 -3 -21h-400c2 -37.333 12.833 -68.666 32.5 -93.999
s45 -44.333 76 -57s64.833 -19 101.5 -19h130v-61h-126c-57.333 0 -108.333 11.5 -153 34.5s-77.334 56.5 -98.001 100.5c-18.667 -43.333 -47.667 -78.666 -87 -105.999s-85.666 -41 -138.999 -41zM312.003 48.9971c38 0 71.167 9.16699 99.5 27.5s50.5 43 66.5 74
s24 65.833 24 104.5s-8 73.5 -24 104.5s-38.167 55.667 -66.5 74s-61.5 27.5 -99.5 27.5c-37.333 0 -70.5 -9.16699 -99.5 -27.5s-51.5 -43 -67.5 -74s-24 -65.833 -24 -104.5s8 -73.5 24 -104.5s38.5 -55.667 67.5 -74s62.167 -27.5 99.5 -27.5zM575.003 280.997
l333.001 0.00292969c0 13.333 -1.16699 28.166 -3.5 44.499s-7 32.5 -14 48.5s-16.833 30.667 -29.5 44s-28.5 24.166 -47.5 32.499s-42.5 12.5 -70.5 12.5c-26 0 -49.333 -5.33301 -70 -16s-38.167 -24.834 -52.5 -42.501s-25.333 -37.167 -33 -58.5
s-11.834 -43 -12.501 -65z" />
    <glyph glyph-name="Racute" unicode="&#x154;" horiz-adv-x="675" 
d="M79 0v699.999h304c42.667 0 81.667 -9.33301 117 -28s63.5 -44.667 84.5 -78s31.5 -72 31.5 -116c0 -47.333 -12.333 -88.666 -37 -123.999s-57.667 -61.333 -99 -78l79 -171c6.66699 -14 14 -24.167 22 -30.5s19 -9.5 33 -9.5h42v-65h-52c-25.333 -0 -47 6.33301 -65 19
s-33 30.667 -45 54l-86 186l-24.5 -2c-8.33301 -0.666992 -16.5 -1 -24.5 -1h-208v-256h-72zM151 319.999h220.002c32 0 61 6.16699 87 18.5s46.833 30.333 62.5 54s23.5 52.167 23.5 85.5c0 32.667 -7.83301 61 -23.5 85s-36.334 42.167 -62.001 54.5
s-53.834 18.5 -84.501 18.5h-223v-316zM275.002 757.999l96 123h68l-96 -123h-68z" />
    <glyph glyph-name="racute" unicode="&#x155;" horiz-adv-x="345" 
d="M75 0v365c0 45.333 12.833 80.833 38.5 106.5s61.167 38.5 106.5 38.5h88v-61h-74c-29.333 0 -51.5 -8 -66.5 -24s-22.5 -38.667 -22.5 -68v-357h-70zM150 577l96 123h68l-96 -123h-68z" />
    <glyph glyph-name="uni0156" unicode="&#x156;" horiz-adv-x="675" 
d="M79 0v699.999h304c42.667 0 81.667 -9.33301 117 -28s63.5 -44.667 84.5 -78s31.5 -72 31.5 -116c0 -47.333 -12.333 -88.666 -37 -123.999s-57.667 -61.333 -99 -78l79 -171c6.66699 -14 14 -24.167 22 -30.5s19 -9.5 33 -9.5h42v-65h-52c-25.333 -0 -47 6.33301 -65 19
s-33 30.667 -45 54l-86 186l-24.5 -2c-8.33301 -0.666992 -16.5 -1 -24.5 -1h-208v-256h-72zM151 319.999h220.002c32 0 61 6.16699 87 18.5s46.833 30.333 62.5 54s23.5 52.167 23.5 85.5c0 32.667 -7.83301 61 -23.5 85s-36.334 42.167 -62.001 54.5
s-53.834 18.5 -84.501 18.5h-223v-316zM291.002 -260.001l36 124.002c-10.667 2.66699 -18.667 8.16699 -24 16.5s-8 17.166 -8 26.499c0 13.333 4.5 24.166 13.5 32.499s19.833 12.5 32.5 12.5c14 0 25 -4.83301 33 -14.5s12 -20.5 12 -32.5s-3.33301 -27 -10 -45l-37 -120
h-48z" />
    <glyph glyph-name="uni0157" unicode="&#x157;" horiz-adv-x="321" 
d="M75 0v365c0 45.333 12.833 80.833 38.5 106.5s61.167 38.5 106.5 38.5h88v-61h-74c-29.333 0 -51.5 -8 -66.5 -24s-22.5 -38.667 -22.5 -68v-357h-70zM61 -293l36 124.002c-10.667 2.66699 -18.667 8.16699 -24 16.5s-8 17.166 -8 26.499
c0 13.333 4.5 24.166 13.5 32.499s19.833 12.5 32.5 12.5c14 0 25 -4.83301 33 -14.5s12 -20.5 12 -32.5s-3.33301 -27 -10 -45l-37 -120h-48z" />
    <glyph glyph-name="Rcaron" unicode="&#x158;" horiz-adv-x="675" 
d="M79 0v699.999h304c42.667 0 81.667 -9.33301 117 -28s63.5 -44.667 84.5 -78s31.5 -72 31.5 -116c0 -47.333 -12.333 -88.666 -37 -123.999s-57.667 -61.333 -99 -78l79 -171c6.66699 -14 14 -24.167 22 -30.5s19 -9.5 33 -9.5h42v-65h-52c-25.333 -0 -47 6.33301 -65 19
s-33 30.667 -45 54l-86 186l-24.5 -2c-8.33301 -0.666992 -16.5 -1 -24.5 -1h-208v-256h-72zM151 319.999h220.002c32 0 61 6.16699 87 18.5s46.833 30.333 62.5 54s23.5 52.167 23.5 85.5c0 32.667 -7.83301 61 -23.5 85s-36.334 42.167 -62.001 54.5
s-53.834 18.5 -84.501 18.5h-223v-316zM292.002 756.999l-96 123h61l76 -93l77 93h61l-96 -123h-83z" />
    <glyph glyph-name="rcaron" unicode="&#x159;" horiz-adv-x="345" 
d="M75 0v365c0 45.333 12.833 80.833 38.5 106.5s61.167 38.5 106.5 38.5h88v-61h-74c-29.333 0 -51.5 -8 -66.5 -24s-22.5 -38.667 -22.5 -68v-357h-70zM167 577l-96 123h61l76 -93l77 93h61l-96 -123h-83z" />
    <glyph glyph-name="Sacute" unicode="&#x15a;" horiz-adv-x="628" 
d="M74 0v64.002h305c27.333 0 50.833 6.33301 70.5 19s34.5 29.167 44.5 49.5s15 41.5 15 63.5s-4.83301 42.667 -14.5 62s-24 35 -43 47s-41.833 18 -68.5 18h-140c-40 0 -74.5 8.16699 -103.5 24.5s-51.333 38.5 -67 66.5s-23.5 59.333 -23.5 94s7.83301 66.5 23.5 95.5
s38 52.333 67 70s63.5 26.5 103.5 26.5h293v-64h-288c-26 0 -48.5 -6 -67.5 -18s-33.667 -27.5 -44 -46.5s-15.5 -38.833 -15.5 -59.5s4.83301 -40.334 14.5 -59.001s23.667 -33.834 42 -45.501s40.833 -17.5 67.5 -17.5h141c42 0 77.5 -8.33301 106.5 -25
s51 -39.167 66 -67.5s22.5 -59.5 22.5 -93.5c0 -38 -7.83301 -72.5 -23.5 -103.5s-38 -55.5 -67 -73.5s-63.833 -27 -104.5 -27h-312zM271 757.002l96 123h68l-96 -123h-68z" />
    <glyph glyph-name="sacute" unicode="&#x15b;" horiz-adv-x="522" 
d="M66 0l0.00292969 61h240c20.667 0 38 4.33301 52 13s24.833 20 32.5 34s11.5 28.333 11.5 43s-3.33301 28.167 -10 40.5s-16.334 22.5 -29.001 30.5s-28.667 12 -48 12h-107c-32.667 0 -60.834 5.5 -84.501 16.5s-41.667 26.833 -54 47.5s-18.5 44.667 -18.5 72
c0 24.667 6 47.667 18 69s29 38.5 51 51.5s47.667 19.5 77 19.5h231v-61h-224c-26 0 -46.333 -7.83301 -61 -23.5s-22 -33.5 -22 -53.5c0 -19.333 7.33301 -36.666 22 -51.999s36.667 -23 66 -23h100c36 0 66.167 -6 90.5 -18s42.666 -28.667 54.999 -50
s18.5 -46.333 18.5 -75c0 -26 -6.66699 -50.833 -20 -74.5s-31.5 -42.834 -54.5 -57.501s-49.833 -22 -80.5 -22h-252zM221.003 577l96 123h68l-96 -123h-68z" />
    <glyph glyph-name="Scircumflex" unicode="&#x15c;" horiz-adv-x="626" 
d="M74 0v64.002h305c27.333 0 50.833 6.33301 70.5 19s34.5 29.167 44.5 49.5s15 41.5 15 63.5s-4.83301 42.667 -14.5 62s-24 35 -43 47s-41.833 18 -68.5 18h-140c-40 0 -74.5 8.16699 -103.5 24.5s-51.333 38.5 -67 66.5s-23.5 59.333 -23.5 94s7.83301 66.5 23.5 95.5
s38 52.333 67 70s63.5 26.5 103.5 26.5h293v-64h-288c-26 0 -48.5 -6 -67.5 -18s-33.667 -27.5 -44 -46.5s-15.5 -38.833 -15.5 -59.5s4.83301 -40.334 14.5 -59.001s23.667 -33.834 42 -45.501s40.833 -17.5 67.5 -17.5h141c42 0 77.5 -8.33301 106.5 -25
s51 -39.167 66 -67.5s22.5 -59.5 22.5 -93.5c0 -38 -7.83301 -72.5 -23.5 -103.5s-38 -55.5 -67 -73.5s-63.833 -27 -104.5 -27h-312zM177 757.002l96 123h83l96 -123h-61l-77 93l-76 -93h-61z" />
    <glyph glyph-name="scircumflex" unicode="&#x15d;" horiz-adv-x="522" 
d="M66 0l0.00292969 61h240c20.667 0 38 4.33301 52 13s24.833 20 32.5 34s11.5 28.333 11.5 43s-3.33301 28.167 -10 40.5s-16.334 22.5 -29.001 30.5s-28.667 12 -48 12h-107c-32.667 0 -60.834 5.5 -84.501 16.5s-41.667 26.833 -54 47.5s-18.5 44.667 -18.5 72
c0 24.667 6 47.667 18 69s29 38.5 51 51.5s47.667 19.5 77 19.5h231v-61h-224c-26 0 -46.333 -7.83301 -61 -23.5s-22 -33.5 -22 -53.5c0 -19.333 7.33301 -36.666 22 -51.999s36.667 -23 66 -23h100c36 0 66.167 -6 90.5 -18s42.666 -28.667 54.999 -50
s18.5 -46.333 18.5 -75c0 -26 -6.66699 -50.833 -20 -74.5s-31.5 -42.834 -54.5 -57.501s-49.833 -22 -80.5 -22h-252zM130.003 577l96 123h83l96 -123h-61l-77 93l-76 -93h-61z" />
    <glyph glyph-name="Scedilla" unicode="&#x15e;" horiz-adv-x="626" 
d="M74 0v64.002h305c27.333 0 50.833 6.33301 70.5 19s34.5 29.167 44.5 49.5s15 41.5 15 63.5s-4.83301 42.667 -14.5 62s-24 35 -43 47s-41.833 18 -68.5 18h-140c-40 0 -74.5 8.16699 -103.5 24.5s-51.333 38.5 -67 66.5s-23.5 59.333 -23.5 94s7.83301 66.5 23.5 95.5
s38 52.333 67 70s63.5 26.5 103.5 26.5h293v-64h-288c-26 0 -48.5 -6 -67.5 -18s-33.667 -27.5 -44 -46.5s-15.5 -38.833 -15.5 -59.5s4.83301 -40.334 14.5 -59.001s23.667 -33.834 42 -45.501s40.833 -17.5 67.5 -17.5h141c42 0 77.5 -8.33301 106.5 -25
s51 -39.167 66 -67.5s22.5 -59.5 22.5 -93.5c0 -38 -7.83301 -72.5 -23.5 -103.5s-38 -55.5 -67 -73.5s-63.833 -27 -104.5 -27h-312zM211 -202.998l92 221h70l-95 -221h-67z" />
    <glyph glyph-name="scedilla" unicode="&#x15f;" horiz-adv-x="522" 
d="M66 0l0.00292969 61h240c20.667 0 38 4.33301 52 13s24.833 20 32.5 34s11.5 28.333 11.5 43s-3.33301 28.167 -10 40.5s-16.334 22.5 -29.001 30.5s-28.667 12 -48 12h-107c-32.667 0 -60.834 5.5 -84.501 16.5s-41.667 26.833 -54 47.5s-18.5 44.667 -18.5 72
c0 24.667 6 47.667 18 69s29 38.5 51 51.5s47.667 19.5 77 19.5h231v-61h-224c-26 0 -46.333 -7.83301 -61 -23.5s-22 -33.5 -22 -53.5c0 -19.333 7.33301 -36.666 22 -51.999s36.667 -23 66 -23h100c36 0 66.167 -6 90.5 -18s42.666 -28.667 54.999 -50
s18.5 -46.333 18.5 -75c0 -26 -6.66699 -50.833 -20 -74.5s-31.5 -42.834 -54.5 -57.501s-49.833 -22 -80.5 -22h-252zM160.003 -203l92 221h70l-95 -221h-67z" />
    <glyph glyph-name="Scaron" unicode="&#x160;" horiz-adv-x="628" 
d="M74 0v64.002h305c27.333 0 50.833 6.33301 70.5 19s34.5 29.167 44.5 49.5s15 41.5 15 63.5s-4.83301 42.667 -14.5 62s-24 35 -43 47s-41.833 18 -68.5 18h-140c-40 0 -74.5 8.16699 -103.5 24.5s-51.333 38.5 -67 66.5s-23.5 59.333 -23.5 94s7.83301 66.5 23.5 95.5
s38 52.333 67 70s63.5 26.5 103.5 26.5h293v-64h-288c-26 0 -48.5 -6 -67.5 -18s-33.667 -27.5 -44 -46.5s-15.5 -38.833 -15.5 -59.5s4.83301 -40.334 14.5 -59.001s23.667 -33.834 42 -45.501s40.833 -17.5 67.5 -17.5h141c42 0 77.5 -8.33301 106.5 -25
s51 -39.167 66 -67.5s22.5 -59.5 22.5 -93.5c0 -38 -7.83301 -72.5 -23.5 -103.5s-38 -55.5 -67 -73.5s-63.833 -27 -104.5 -27h-312zM280 757.002l-96 123h61l76 -93l77 93h61l-96 -123h-83z" />
    <glyph glyph-name="scaron" unicode="&#x161;" horiz-adv-x="522" 
d="M66 0l0.00292969 61h240c20.667 0 38 4.33301 52 13s24.833 20 32.5 34s11.5 28.333 11.5 43s-3.33301 28.167 -10 40.5s-16.334 22.5 -29.001 30.5s-28.667 12 -48 12h-107c-32.667 0 -60.834 5.5 -84.501 16.5s-41.667 26.833 -54 47.5s-18.5 44.667 -18.5 72
c0 24.667 6 47.667 18 69s29 38.5 51 51.5s47.667 19.5 77 19.5h231v-61h-224c-26 0 -46.333 -7.83301 -61 -23.5s-22 -33.5 -22 -53.5c0 -19.333 7.33301 -36.666 22 -51.999s36.667 -23 66 -23h100c36 0 66.167 -6 90.5 -18s42.666 -28.667 54.999 -50
s18.5 -46.333 18.5 -75c0 -26 -6.66699 -50.833 -20 -74.5s-31.5 -42.834 -54.5 -57.501s-49.833 -22 -80.5 -22h-252zM223.003 577l-96 123h61l76 -93l77 93h61l-96 -123h-83z" />
    <glyph glyph-name="uni0162" unicode="&#x162;" horiz-adv-x="570" 
d="M313 -203l94 226l60 -7v-16l-87 -203h-67zM422 0c-35.333 0 -65.999 7.49902 -91.999 22.499s-46 35.833 -60 62.5s-21 57 -21 91v460h-222v64h516v-64h-222v-470c0 -29.333 9.16699 -53.666 27.5 -72.999s43.166 -29 74.499 -29h44v-64h-45z" />
    <glyph glyph-name="uni0163" unicode="&#x163;" horiz-adv-x="401" 
d="M250 0c-45.333 0 -80.833 13 -106.5 39s-38.5 61.333 -38.5 106v493h70v-485c0 -29.333 7.5 -52 22.5 -68s37.167 -24 66.5 -24h98v-61h-112zM16 449v61h348v-61h-348zM126 -203l92 221h70l-95 -221h-67z" />
    <glyph glyph-name="Tcaron" unicode="&#x164;" horiz-adv-x="570" 
d="M422 0c-35.333 0 -65.999 7.49902 -91.999 22.499s-46 35.833 -60 62.5s-21 57 -21 91v460h-222v64h516v-64h-222v-470c0 -29.333 9.16699 -53.666 27.5 -72.999s43.166 -29 74.499 -29h44v-64h-45zM245.001 756.999l-96 123h61l76 -93l77 93h61l-96 -123h-83z" />
    <glyph glyph-name="tcaron" unicode="&#x165;" horiz-adv-x="537" 
d="M250 0c-45.333 0 -80.833 13 -106.5 39s-38.5 61.333 -38.5 106v493h70v-485c0 -29.333 7.5 -52 22.5 -68s37.167 -24 66.5 -24h98v-61h-112zM16 449v61h348v-61h-348zM442 437l36 124.002c-10.667 2.66699 -18.667 8.16699 -24 16.5s-8 17.166 -8 26.499
c0 13.333 4.5 24.166 13.5 32.499s19.833 12.5 32.5 12.5c14 0 25 -4.83301 33 -14.5s12 -20.5 12 -32.5s-3.33301 -27 -10 -45l-37 -120h-48z" />
    <glyph glyph-name="Tbar" unicode="&#x166;" horiz-adv-x="570" 
d="M422 0c-35.333 0 -65.999 7.49902 -91.999 22.499s-46 35.833 -60 62.5s-21 57 -21 91v206h-169v49h169v205h-222v64h516v-64h-222v-205h180v-49h-180v-216c0 -29.333 9.16699 -53.666 27.5 -72.999s43.166 -29 74.499 -29h44v-64h-45z" />
    <glyph glyph-name="tbar" unicode="&#x167;" horiz-adv-x="399" 
d="M250 0c-45.333 0 -80.833 13 -106.5 39s-38.5 61.333 -38.5 106v493h70v-485c0 -29.333 7.5 -52 22.5 -68s37.167 -24 66.5 -24h98v-61h-112zM23 452v58h321v-58h-321zM23 277v58h321v-58h-321z" />
    <glyph glyph-name="Utilde" unicode="&#x168;" 
d="M348 -13c-52.667 0 -99.333 11.5 -140 34.5s-72.667 55.5 -96 97.5s-35 92 -35 150v431h72v-441c0 -38 8.16699 -72.5 24.5 -103.5s39.333 -56 69 -75s64.834 -28.5 105.501 -28.5c41.333 0 76.833 9.33301 106.5 28s52.5 43.667 68.5 75s24 66 24 104v441h72v-431
c0 -58 -11.667 -108 -35 -150s-55.333 -74.5 -96 -97.5s-87.334 -34.5 -140.001 -34.5zM417.001 748c-17.333 0 -31.668 2.83301 -43.001 8.5s-20.5 13 -27.5 22l-20.5 25.5c-6.66699 9.33301 -13.834 17.5 -21.501 24.5s-17.5 10.5 -29.5 10.5
c-11.333 0 -21.166 -5 -29.499 -15s-12.5 -24 -12.5 -42v-24h-48v23c0 33.333 9 59.166 27 77.499s39.667 27.5 65 27.5c22.667 0 40.667 -5.5 54 -16.5s24.333 -22.167 33 -33.5c8 -10 15.833 -19.167 23.5 -27.5s18.167 -12.5 31.5 -12.5c11.333 0 21.333 4.83301 30 14.5
s13 23.834 13 42.501v24h48v-23c0 -33.333 -9.16699 -59.333 -27.5 -78s-40.166 -28 -65.499 -28z" />
    <glyph glyph-name="utilde" unicode="&#x169;" horiz-adv-x="621" 
d="M310 -13c-42.667 0 -81.668 9.16602 -117.001 27.499s-63.5 44.5 -84.5 78.5s-31.5 74 -31.5 120v297h70v-294c0 -35.333 7.83301 -65.666 23.5 -90.999s35.834 -44.5 60.501 -57.5s51 -19.5 79 -19.5c28.667 0 55.5 6.66699 80.5 20s45.167 32.5 60.5 57.5
s23 55.167 23 90.5v294h70v-297c0 -46 -10.5 -86 -31.5 -120s-49 -60.167 -84 -78.5s-74.5 -27.5 -118.5 -27.5zM382.999 578.999c-17.333 0 -31.668 2.83301 -43.001 8.5s-20.5 13 -27.5 22l-20.5 25.5c-6.66699 9.33301 -13.834 17.5 -21.501 24.5s-17.5 10.5 -29.5 10.5
c-11.333 0 -21.166 -5 -29.499 -15s-12.5 -24 -12.5 -42v-24h-48v23c0 33.333 9 59.166 27 77.499s39.667 27.5 65 27.5c22.667 0 40.667 -5.5 54 -16.5s24.333 -22.167 33 -33.5c8 -10 15.833 -19.167 23.5 -27.5s18.167 -12.5 31.5 -12.5c11.333 0 21.333 4.83301 30 14.5
s13 23.834 13 42.501v24h48v-23c0 -33.333 -9.16699 -59.333 -27.5 -78s-40.166 -28 -65.499 -28z" />
    <glyph glyph-name="Umacron" unicode="&#x16a;" 
d="M348 -13c-52.667 0 -99.333 11.5 -140 34.5s-72.667 55.5 -96 97.5s-35 92 -35 150v431h72v-441c0 -38 8.16699 -72.5 24.5 -103.5s39.333 -56 69 -75s64.834 -28.5 105.501 -28.5c41.333 0 76.833 9.33301 106.5 28s52.5 43.667 68.5 75s24 66 24 104v441h72v-431
c0 -58 -11.667 -108 -35 -150s-55.333 -74.5 -96 -97.5s-87.334 -34.5 -140.001 -34.5zM200.001 767v49h288v-49h-288z" />
    <glyph glyph-name="umacron" unicode="&#x16b;" horiz-adv-x="621" 
d="M310 -13c-42.667 0 -81.668 9.16602 -117.001 27.499s-63.5 44.5 -84.5 78.5s-31.5 74 -31.5 120v297h70v-294c0 -35.333 7.83301 -65.666 23.5 -90.999s35.834 -44.5 60.501 -57.5s51 -19.5 79 -19.5c28.667 0 55.5 6.66699 80.5 20s45.167 32.5 60.5 57.5
s23 55.167 23 90.5v294h70v-297c0 -46 -10.5 -86 -31.5 -120s-49 -60.167 -84 -78.5s-74.5 -27.5 -118.5 -27.5zM167.999 607.999v49h288v-49h-288z" />
    <glyph glyph-name="Ubreve" unicode="&#x16c;" 
d="M348 -13c-52.667 0 -99.333 11.5 -140 34.5s-72.667 55.5 -96 97.5s-35 92 -35 150v431h72v-441c0 -38 8.16699 -72.5 24.5 -103.5s39.333 -56 69 -75s64.834 -28.5 105.501 -28.5c41.333 0 76.833 9.33301 106.5 28s52.5 43.667 68.5 75s24 66 24 104v441h72v-431
c0 -58 -11.667 -108 -35 -150s-55.333 -74.5 -96 -97.5s-87.334 -34.5 -140.001 -34.5zM361.001 760c-22 0 -41.998 5.16699 -59.998 15.5s-32 24.833 -42 43.5s-15 40 -15 64h46c0 -24.667 6.66699 -44.334 20 -59.001s30.333 -22 51 -22
c21.333 0 38.666 7.33301 51.999 22s20 34.334 20 59.001h45c0 -24 -5 -45.333 -15 -64s-23.833 -33.167 -41.5 -43.5s-37.834 -15.5 -60.501 -15.5z" />
    <glyph glyph-name="ubreve" unicode="&#x16d;" horiz-adv-x="621" 
d="M310 -13c-42.667 0 -81.668 9.16602 -117.001 27.499s-63.5 44.5 -84.5 78.5s-31.5 74 -31.5 120v297h70v-294c0 -35.333 7.83301 -65.666 23.5 -90.999s35.834 -44.5 60.501 -57.5s51 -19.5 79 -19.5c28.667 0 55.5 6.66699 80.5 20s45.167 32.5 60.5 57.5
s23 55.167 23 90.5v294h70v-297c0 -46 -10.5 -86 -31.5 -120s-49 -60.167 -84 -78.5s-74.5 -27.5 -118.5 -27.5zM324.999 572.999c-22 0 -41.998 5.16699 -59.998 15.5s-32 24.833 -42 43.5s-15 40 -15 64h46c0 -24.667 6.66699 -44.334 20 -59.001s30.333 -22 51 -22
c21.333 0 38.666 7.33301 51.999 22s20 34.334 20 59.001h45c0 -24 -5 -45.333 -15 -64s-23.833 -33.167 -41.5 -43.5s-37.834 -15.5 -60.501 -15.5z" />
    <glyph glyph-name="Uring" unicode="&#x16e;" 
d="M348 -13c-52.667 0 -99.333 11.5 -140 34.5s-72.667 55.5 -96 97.5s-35 92 -35 150v431h72v-441c0 -38 8.16699 -72.5 24.5 -103.5s39.333 -56 69 -75s64.834 -28.5 105.501 -28.5c41.333 0 76.833 9.33301 106.5 28s52.5 43.667 68.5 75s24 66 24 104v441h72v-431
c0 -58 -11.667 -108 -35 -150s-55.333 -74.5 -96 -97.5s-87.334 -34.5 -140.001 -34.5zM345.001 748c-26.667 0 -49.167 9.16699 -67.5 27.5s-27.5 40.833 -27.5 67.5s9.16699 49.167 27.5 67.5s40.833 27.5 67.5 27.5s49.167 -9.16699 67.5 -27.5s27.5 -40.833 27.5 -67.5
s-9.16699 -49.167 -27.5 -67.5s-40.833 -27.5 -67.5 -27.5zM345.001 784c16.667 0 30.667 5.66699 42 17s17 25.333 17 42s-5.66699 30.667 -17 42s-25.333 17 -42 17c-16 0 -29.833 -5.66699 -41.5 -17s-17.5 -25.333 -17.5 -42s5.83301 -30.667 17.5 -42
s25.5 -17 41.5 -17z" />
    <glyph glyph-name="uring" unicode="&#x16f;" horiz-adv-x="621" 
d="M310 -13c-42.667 0 -81.668 9.16602 -117.001 27.499s-63.5 44.5 -84.5 78.5s-31.5 74 -31.5 120v297h70v-294c0 -35.333 7.83301 -65.666 23.5 -90.999s35.834 -44.5 60.501 -57.5s51 -19.5 79 -19.5c28.667 0 55.5 6.66699 80.5 20s45.167 32.5 60.5 57.5
s23 55.167 23 90.5v294h70v-297c0 -46 -10.5 -86 -31.5 -120s-49 -60.167 -84 -78.5s-74.5 -27.5 -118.5 -27.5zM313.999 566.999c-26.667 0 -49.167 9.16699 -67.5 27.5s-27.5 40.833 -27.5 67.5s9.16699 49.167 27.5 67.5s40.833 27.5 67.5 27.5
s49.167 -9.16699 67.5 -27.5s27.5 -40.833 27.5 -67.5s-9.16699 -49.167 -27.5 -67.5s-40.833 -27.5 -67.5 -27.5zM313.999 602.999c16.667 0 30.667 5.66699 42 17s17 25.333 17 42s-5.66699 30.667 -17 42s-25.333 17 -42 17c-16 0 -29.833 -5.66699 -41.5 -17
s-17.5 -25.333 -17.5 -42s5.83301 -30.667 17.5 -42s25.5 -17 41.5 -17z" />
    <glyph glyph-name="Uhungarumlaut" unicode="&#x170;" horiz-adv-x="705" 
d="M348 -13c-52.667 0 -99.333 11.5 -140 34.5s-72.667 55.5 -96 97.5s-35 92 -35 150v431h72v-441c0 -38 8.16699 -72.5 24.5 -103.5s39.333 -56 69 -75s64.834 -28.5 105.501 -28.5c41.333 0 76.833 9.33301 106.5 28s52.5 43.667 68.5 75s24 66 24 104v441h72v-431
c0 -58 -11.667 -108 -35 -150s-55.333 -74.5 -96 -97.5s-87.334 -34.5 -140.001 -34.5zM379.001 757l90 123h63l-90 -123h-63zM223.001 757l90 123h63l-90 -123h-63z" />
    <glyph glyph-name="uhungarumlaut" unicode="&#x171;" horiz-adv-x="621" 
d="M310 -13c-42.667 0 -81.668 9.16602 -117.001 27.499s-63.5 44.5 -84.5 78.5s-31.5 74 -31.5 120v297h70v-294c0 -35.333 7.83301 -65.666 23.5 -90.999s35.834 -44.5 60.501 -57.5s51 -19.5 79 -19.5c28.667 0 55.5 6.66699 80.5 20s45.167 32.5 60.5 57.5
s23 55.167 23 90.5v294h70v-297c0 -46 -10.5 -86 -31.5 -120s-49 -60.167 -84 -78.5s-74.5 -27.5 -118.5 -27.5zM347.999 576.999l90 123h63l-90 -123h-63zM191.999 576.999l90 123h63l-90 -123h-63z" />
    <glyph glyph-name="Uogonek" unicode="&#x172;" 
d="M348 -13c-52.667 0 -99.333 11.5 -140 34.5s-72.667 55.5 -96 97.5s-35 92 -35 150v431h72v-441c0 -38 8.16699 -72.5 24.5 -103.5s39.333 -56 69 -75s64.834 -28.5 105.501 -28.5c41.333 0 76.833 9.33301 106.5 28s52.5 43.667 68.5 75s24 66 24 104v441h72v-431
c0 -58 -11.667 -108 -35 -150s-55.333 -74.5 -96 -97.5s-87.334 -34.5 -140.001 -34.5zM541.001 -218c-36.667 0 -66.832 9.16602 -90.499 27.499s-35.5 45.833 -35.5 82.5c0 20 5.33301 40.833 16 62.5s23 42.167 37 61.5s26.667 35.333 38 48s18 20 20 22l25 -15
c-1.33301 -2 -6.5 -8.83301 -15.5 -20.5s-19 -26 -30 -43s-20.5 -34.833 -28.5 -53.5s-12 -36.667 -12 -54c0 -21.333 7 -38.333 21 -51s32.667 -19 56 -19c8 0 16 0.833008 24 2.5s16.667 3.83398 26 6.50098v-49c-4 -1.33301 -10.833 -3 -20.5 -5s-19.834 -3 -30.501 -3z
" />
    <glyph glyph-name="uogonek" unicode="&#x173;" horiz-adv-x="621" 
d="M310 -13c-42.667 0 -81.668 9.16602 -117.001 27.499s-63.5 44.5 -84.5 78.5s-31.5 74 -31.5 120v297h70v-294c0 -35.333 7.83301 -65.666 23.5 -90.999s35.834 -44.5 60.501 -57.5s51 -19.5 79 -19.5c28.667 0 55.5 6.66699 80.5 20s45.167 32.5 60.5 57.5
s23 55.167 23 90.5v294h70v-297c0 -46 -10.5 -86 -31.5 -120s-49 -60.167 -84 -78.5s-74.5 -27.5 -118.5 -27.5zM486.999 -218.001c-36.667 0 -66.832 9.16602 -90.499 27.499s-35.5 45.833 -35.5 82.5c0 20 5.33301 40.833 16 62.5s23 42.167 37 61.5s26.667 35.333 38 48
s18 20 20 22l25 -15c-1.33301 -2 -6.5 -8.83301 -15.5 -20.5s-19 -26 -30 -43s-20.5 -34.833 -28.5 -53.5s-12 -36.667 -12 -54c0 -21.333 7 -38.333 21 -51s32.667 -19 56 -19c8 0 16 0.833008 24 2.5s16.667 3.83398 26 6.50098v-49c-4 -1.33301 -10.833 -3 -20.5 -5
s-19.834 -3 -30.501 -3z" />
    <glyph glyph-name="Wcircumflex" unicode="&#x174;" horiz-adv-x="1126" 
d="M337 -13c-51.333 0 -96.665 10.666 -135.998 31.999s-70.166 52 -92.499 92s-33.5 87.333 -33.5 142v447h72v-453c0 -35.333 7.66699 -67.833 23 -97.5s37.333 -53.334 66 -71.001s62.334 -26.5 101.001 -26.5c39.333 0 73.166 8.83301 101.499 26.5
s50.166 41.334 65.499 71.001s23 62.167 23 97.5v453h72v-453c0 -35.333 7.83301 -67.833 23.5 -97.5s37.667 -53.334 66 -71.001s61.833 -26.5 100.5 -26.5c39.333 0 73.166 8.83301 101.499 26.5s50.166 41.334 65.499 71.001s23 62.167 23 97.5v453h72v-447
c0 -54.667 -11.167 -102 -33.5 -142s-53.166 -70.667 -92.499 -92s-84.666 -32 -135.999 -32c-32 0 -63.167 5.16699 -93.5 15.5s-56.833 26.333 -79.5 48s-40.334 48.834 -53.001 81.501c-12 -32.667 -29.667 -59.667 -53 -81s-49.833 -37.333 -79.5 -48
s-60.834 -16 -93.501 -16zM427.001 756.999l96 123h83l96 -123h-61l-77 93l-76 -93h-61z" />
    <glyph glyph-name="wcircumflex" unicode="&#x175;" horiz-adv-x="975" 
d="M238 -13c-29.333 0 -56.3379 6 -81.0049 18s-44.167 30.667 -58.5 56s-21.5 58.333 -21.5 99v350h70v-364c0 -22.667 4.33301 -41.167 13 -55.5s19.834 -25 33.501 -32s28.5 -10.5 44.5 -10.5c15.333 0 30 3.5 44 10.5s25.333 17.833 34 32.5s13 33 13 55v210
c0 38.667 7.16699 70.334 21.5 95.001s33.5 42.834 57.5 54.501s50.333 17.5 79 17.5s55 -5.83301 79 -17.5s43.167 -29.834 57.5 -54.501s21.5 -56.334 21.5 -95.001v-210c0 -22 4.33301 -40.333 13 -55s20.167 -25.5 34.5 -32.5s29.5 -10.5 45.5 -10.5
c15.333 0 29.833 3.5 43.5 10.5s24.834 17.833 33.501 32.5s13 33 13 55v364h70v-350c0 -40.667 -7.16699 -73.667 -21.5 -99s-33.666 -44 -57.999 -56s-51.166 -18 -80.499 -18c-30 0 -57.333 6 -82 18s-44.334 30.667 -59.001 56s-22 58.333 -22 99v206
c0 23.333 -4.16699 42 -12.5 56s-19.166 24.167 -32.499 30.5s-27.666 9.5 -42.999 9.5c-14.667 0 -28.667 -3.16699 -42 -9.5s-24.333 -16.5 -33 -30.5s-13 -32.667 -13 -56v-206c0 -40.667 -7.33301 -73.667 -22 -99s-34 -44 -58 -56s-51 -18 -81 -18zM350.995 577l96 123
h83l96 -123h-61l-77 93l-76 -93h-61z" />
    <glyph glyph-name="Ycircumflex" unicode="&#x176;" 
d="M311 0v206.999c-50.667 5.33301 -93.5 20.833 -128.5 46.5s-61.333 58.834 -79 99.501s-26.5 85.334 -26.5 134.001v212h72v-219c0 -37.333 7.66699 -72 23 -104s38 -57.833 68 -77.5s66 -29.5 108 -29.5c42.667 0 78.667 9.83301 108 29.5s51.833 45.5 67.5 77.5
s23.5 66.667 23.5 104v219h72v-212c0 -48.667 -9 -93.334 -27 -134.001s-44.5 -74 -79.5 -100s-78.167 -41.333 -129.5 -46v-207h-72zM211 756.999l96 123h83l96 -123h-61l-77 93l-76 -93h-61z" />
    <glyph glyph-name="ycircumflex" unicode="&#x177;" horiz-adv-x="621" 
d="M276 -203l-0.000976562 193c-37.333 4.66699 -71 16.5 -101 35.5s-53.833 44.5 -71.5 76.5s-26.5 69 -26.5 111v297h70v-294c0 -35.333 7.83301 -65.666 23.5 -90.999s35.834 -44.5 60.501 -57.5s51 -19.5 79 -19.5c28.667 0 55.5 6.66699 80.5 20s45.333 32.5 61 57.5
s23.5 55.167 23.5 90.5v294h69v-297c0 -42.667 -8.83301 -79.834 -26.5 -111.501s-41.5 -57 -71.5 -76s-63.333 -30.5 -100 -34.5v-194h-70zM172.999 577l96 123h83l96 -123h-61l-77 93l-76 -93h-61z" />
    <glyph glyph-name="Ydieresis" unicode="&#x178;" 
d="M436 760c-12 0 -22.333 4.33301 -31 13s-13 19 -13 31s4.33301 22.333 13 31s19 13 31 13s22.333 -4.33301 31 -13s13 -19 13 -31s-4.33301 -22.333 -13 -31s-19 -13 -31 -13zM259 760c-12 0 -22.333 4.33301 -31 13s-13 19 -13 31s4.33301 22.333 13 31s19 13 31 13
s22.333 -4.33301 31 -13s13 -19 13 -31s-4.33301 -22.333 -13 -31s-19 -13 -31 -13zM311 0v206.999c-50.667 5.33301 -93.5 20.833 -128.5 46.5s-61.333 58.834 -79 99.501s-26.5 85.334 -26.5 134.001v212h72v-219c0 -37.333 7.66699 -72 23 -104s38 -57.833 68 -77.5
s66 -29.5 108 -29.5c42.667 0 78.667 9.83301 108 29.5s51.833 45.5 67.5 77.5s23.5 66.667 23.5 104v219h72v-212c0 -48.667 -9 -93.334 -27 -134.001s-44.5 -74 -79.5 -100s-78.167 -41.333 -129.5 -46v-207h-72z" />
    <glyph glyph-name="Zacute" unicode="&#x179;" horiz-adv-x="614" 
d="M189 0c-42 0 -75.167 13.001 -99.5 39.001s-36.5 57 -36.5 93c0 25.333 5.5 46.666 16.5 63.999s28.5 35.333 52.5 54l318 252c16.667 12 28 23.167 34 33.5s9 22.833 9 37.5c0 10 -2.66699 19.833 -8 29.5s-12.666 17.667 -21.999 24s-20 9.5 -32 9.5h-344l1 64h346
c28.667 0 53 -6 73 -18s35.333 -27.667 46 -47s16 -40.666 16 -63.999c0 -26.667 -6 -49.5 -18 -68.5s-29.667 -37.167 -53 -54.5l-314 -250c-12 -8.66699 -21.333 -16.334 -28 -23.001s-11.5 -13.5 -14.5 -20.5s-4.5 -15.833 -4.5 -26.5c0 -9.33301 2.83301 -19 8.5 -29
s13.667 -18.333 24 -25s22.166 -10 35.499 -10h362v-64h-368zM272 757.001l96 123h68l-96 -123h-68z" />
    <glyph glyph-name="zacute" unicode="&#x17a;" horiz-adv-x="513" 
d="M143 0c-20 0 -37.833 4.83301 -53.5 14.5s-28.167 22.167 -37.5 37.5s-14 32.333 -14 51c0 21.333 5 40 15 56s25.667 30.333 47 43l248 154c14 8 22.833 16 26.5 24s5.5 16.667 5.5 26c0 11.333 -4.16699 21.333 -12.5 30s-19.833 13 -34.5 13h-270v61h292
c20 0 37.667 -4.83301 53 -14.5s27.5 -22.167 36.5 -37.5s13.5 -32.333 13.5 -51c0 -21.333 -4.83301 -40 -14.5 -56s-25.167 -30.333 -46.5 -43l-247 -154c-14 -8 -23.167 -16 -27.5 -24s-6.5 -16.667 -6.5 -26c0 -11.333 4.5 -21.333 13.5 -30s20.833 -13 35.5 -13h285
v-61h-307zM214 577l96 123h68l-96 -123h-68z" />
    <glyph glyph-name="Zdotaccent" unicode="&#x17b;" horiz-adv-x="614" 
d="M189 0c-42 0 -75.167 13.001 -99.5 39.001s-36.5 57 -36.5 93c0 25.333 5.5 46.666 16.5 63.999s28.5 35.333 52.5 54l318 252c16.667 12 28 23.167 34 33.5s9 22.833 9 37.5c0 10 -2.66699 19.833 -8 29.5s-12.666 17.667 -21.999 24s-20 9.5 -32 9.5h-344l1 64h346
c28.667 0 53 -6 73 -18s35.333 -27.667 46 -47s16 -40.666 16 -63.999c0 -26.667 -6 -49.5 -18 -68.5s-29.667 -37.167 -53 -54.5l-314 -250c-12 -8.66699 -21.333 -16.334 -28 -23.001s-11.5 -13.5 -14.5 -20.5s-4.5 -15.833 -4.5 -26.5c0 -9.33301 2.83301 -19 8.5 -29
s13.667 -18.333 24 -25s22.166 -10 35.499 -10h362v-64h-368zM315 760.001c-13.333 0 -25 5 -35 15s-15 21.667 -15 35c0 14 5 25.833 15 35.5s21.667 14.5 35 14.5c14 0 25.833 -4.83301 35.5 -14.5s14.5 -21.5 14.5 -35.5c0 -13.333 -4.83301 -25 -14.5 -35
s-21.5 -15 -35.5 -15z" />
    <glyph glyph-name="zdotaccent" unicode="&#x17c;" horiz-adv-x="513" 
d="M143 0c-20 0 -37.833 4.83301 -53.5 14.5s-28.167 22.167 -37.5 37.5s-14 32.333 -14 51c0 21.333 5 40 15 56s25.667 30.333 47 43l248 154c14 8 22.833 16 26.5 24s5.5 16.667 5.5 26c0 11.333 -4.16699 21.333 -12.5 30s-19.833 13 -34.5 13h-270v61h292
c20 0 37.667 -4.83301 53 -14.5s27.5 -22.167 36.5 -37.5s13.5 -32.333 13.5 -51c0 -21.333 -4.83301 -40 -14.5 -56s-25.167 -30.333 -46.5 -43l-247 -154c-14 -8 -23.167 -16 -27.5 -24s-6.5 -16.667 -6.5 -26c0 -11.333 4.5 -21.333 13.5 -30s20.833 -13 35.5 -13h285
v-61h-307zM264 601c-13.333 0 -25 5 -35 15s-15 21.667 -15 35c0 14 5 25.833 15 35.5s21.667 14.5 35 14.5c14 0 25.833 -4.83301 35.5 -14.5s14.5 -21.5 14.5 -35.5c0 -13.333 -4.83301 -25 -14.5 -35s-21.5 -15 -35.5 -15z" />
    <glyph glyph-name="Zcaron" unicode="&#x17d;" horiz-adv-x="614" 
d="M189 0c-42 0 -75.167 13.001 -99.5 39.001s-36.5 57 -36.5 93c0 25.333 5.5 46.666 16.5 63.999s28.5 35.333 52.5 54l318 252c16.667 12 28 23.167 34 33.5s9 22.833 9 37.5c0 10 -2.66699 19.833 -8 29.5s-12.666 17.667 -21.999 24s-20 9.5 -32 9.5h-344l1 64h346
c28.667 0 53 -6 73 -18s35.333 -27.667 46 -47s16 -40.666 16 -63.999c0 -26.667 -6 -49.5 -18 -68.5s-29.667 -37.167 -53 -54.5l-314 -250c-12 -8.66699 -21.333 -16.334 -28 -23.001s-11.5 -13.5 -14.5 -20.5s-4.5 -15.833 -4.5 -26.5c0 -9.33301 2.83301 -19 8.5 -29
s13.667 -18.333 24 -25s22.166 -10 35.499 -10h362v-64h-368zM268 757.001l-96 123h61l76 -93l77 93h61l-96 -123h-83z" />
    <glyph glyph-name="zcaron" unicode="&#x17e;" horiz-adv-x="513" 
d="M143 0c-20 0 -37.833 4.83301 -53.5 14.5s-28.167 22.167 -37.5 37.5s-14 32.333 -14 51c0 21.333 5 40 15 56s25.667 30.333 47 43l248 154c14 8 22.833 16 26.5 24s5.5 16.667 5.5 26c0 11.333 -4.16699 21.333 -12.5 30s-19.833 13 -34.5 13h-270v61h292
c20 0 37.667 -4.83301 53 -14.5s27.5 -22.167 36.5 -37.5s13.5 -32.333 13.5 -51c0 -21.333 -4.83301 -40 -14.5 -56s-25.167 -30.333 -46.5 -43l-247 -154c-14 -8 -23.167 -16 -27.5 -24s-6.5 -16.667 -6.5 -26c0 -11.333 4.5 -21.333 13.5 -30s20.833 -13 35.5 -13h285
v-61h-307zM220 577l-96 123h61l76 -93l77 93h61l-96 -123h-83z" />
    <glyph glyph-name="longs" unicode="&#x17f;" horiz-adv-x="383" 
d="M102 0v449h-90v60h90v77c0 45.333 12.833 80.833 38.5 106.5s61.167 38.5 106.5 38.5h116v-61h-103c-28.667 0 -50.667 -8 -66 -24s-23 -38.667 -23 -68v-578h-69z" />
    <glyph glyph-name="uni018F" unicode="&#x18f;" horiz-adv-x="707" 
d="M341 -13c-60 0 -112.33 12.998 -156.997 38.998s-79.334 65 -104.001 117s-37.667 116.667 -39 194c0 6 0.166992 12 0.5 18s0.5 12 0.5 18h543c-5.33301 52.667 -21.333 98.334 -48 137.001s-62.667 68.834 -108 90.501s-99.333 32.5 -162 32.5h-138v67h138
c80.667 0 150.167 -14.833 208.5 -44.5s103.166 -71.5 134.499 -125.5s47 -117.667 47 -191c0 -68.667 -13.333 -129.5 -40 -182.5s-63.834 -94.5 -111.501 -124.5s-102.5 -45 -164.5 -45zM337.003 51.998c48.667 0 91.168 11.5 127.501 34.5s64.833 54.167 85.5 93.5
s32 82.666 34 129.999h-474c2 -53.333 12.167 -99.166 30.5 -137.499s44.166 -68 77.499 -89s73 -31.5 119 -31.5z" />
    <glyph glyph-name="florin" unicode="&#x192;" horiz-adv-x="361" 
d="M72 429v61h252v-61h-252zM18 -203l0.000976562 64h66c19.333 0 34.333 5.66699 45 17s16 26.333 16 45l2 686c0 38 10.667 67.667 32 89s51 32 89 32h75v-64h-67c-18.667 0 -33.334 -5.5 -44.001 -16.5s-16 -26.167 -16 -45.5l-1 -686
c0 -37.333 -10.833 -66.833 -32.5 -88.5s-51.5 -32.5 -89.5 -32.5h-75z" />
    <glyph glyph-name="Ohorn" unicode="&#x1a0;" horiz-adv-x="820" 
d="M410 -13c-54.667 0 -104.334 9.33301 -149.001 28s-82.834 44.667 -114.501 78s-56 72 -73 116s-25.5 91 -25.5 141s8.5 97 25.5 141s41.333 82.667 73 116s69.834 59.333 114.501 78s94.334 28 149.001 28c55.333 0 105.166 -9.33301 149.499 -28
s82.333 -44.667 114 -78s56 -72 73 -116s25.5 -91 25.5 -141s-8.5 -97 -25.5 -141s-41.333 -82.667 -73 -116s-69.667 -59.333 -114 -78s-94.166 -28 -149.499 -28zM410 52c42 0 80.667 7.33301 116 22s66 35.5 92 62.5s46.167 58.667 60.5 95s21.5 75.833 21.5 118.5
c0 43.333 -7.16699 83 -21.5 119s-34.5 67.5 -60.5 94.5s-56.667 48 -92 63s-74 22.5 -116 22.5c-41.333 0 -79.666 -7.5 -114.999 -22.5s-66.166 -36 -92.499 -63s-46.666 -58.667 -60.999 -95s-21.5 -75.833 -21.5 -118.5s7.16699 -82.167 21.5 -118.5
s34.666 -68 60.999 -95s57.166 -47.833 92.499 -62.5s73.666 -22 114.999 -22zM638 580l-0.00195312 44h36c16.667 0 29.834 5.33301 39.501 16s14.834 26 15.501 46v22h60v-23c-0.666992 -36 -10.167 -62.5 -28.5 -79.5s-45.833 -25.5 -82.5 -25.5h-40z" />
    <glyph glyph-name="ohorn" unicode="&#x1a1;" horiz-adv-x="630" 
d="M315 -13c-51.333 0 -97 11.832 -137 35.499s-71.333 55.834 -94 96.501s-34 86 -34 136s11.333 95.333 34 136s54 72.834 94 96.501s85.667 35.5 137 35.5s96.833 -11.833 136.5 -35.5s71 -55.667 94 -96s34.5 -85.833 34.5 -136.5c0 -50 -11.5 -95.333 -34.5 -136
s-54.333 -72.834 -94 -96.501s-85.167 -35.5 -136.5 -35.5zM315 47.999c38 0 71.667 9.16699 101 27.5s52.166 43.166 68.499 74.499s24.5 66.333 24.5 105s-8.16699 73.667 -24.5 105s-39.166 56.166 -68.499 74.499s-63 27.5 -101 27.5
c-38.667 0 -72.5 -9.16699 -101.5 -27.5s-51.667 -43.166 -68 -74.499s-24.5 -66.333 -24.5 -105s8.16699 -73.667 24.5 -105s39 -56.166 68 -74.499s62.833 -27.5 101.5 -27.5zM424 448.999l-0.00195312 44h36c16.667 0 29.834 5.33301 39.501 16s14.834 26 15.501 46v22
h60v-23c-0.666992 -36 -10.167 -62.5 -28.5 -79.5s-45.833 -25.5 -82.5 -25.5h-40z" />
    <glyph glyph-name="Uhorn" unicode="&#x1af;" horiz-adv-x="729" 
d="M348 -13c-52.667 0 -99.333 11.5 -140 34.5s-72.667 55.5 -96 97.5s-35 92 -35 150v431h72v-441c0 -38 8.16699 -72.5 24.5 -103.5s39.333 -56 69 -75s64.834 -28.5 105.501 -28.5c41.333 0 76.833 9.33301 106.5 28s52.5 43.667 68.5 75s24 66 24 104v441h72v-431
c0 -58 -11.667 -108 -35 -150s-55.333 -74.5 -96 -97.5s-87.334 -34.5 -140.001 -34.5zM578.001 656l-0.00195312 44h36c16.667 0 29.834 5.33301 39.501 16s14.834 26 15.501 46v22h60v-23c-0.666992 -36 -10.167 -62.5 -28.5 -79.5s-45.833 -25.5 -82.5 -25.5h-40z" />
    <glyph glyph-name="uhorn" unicode="&#x1b0;" horiz-adv-x="655" 
d="M310 -13c-42.667 0 -81.668 9.16602 -117.001 27.499s-63.5 44.5 -84.5 78.5s-31.5 74 -31.5 120v297h70v-294c0 -35.333 7.83301 -65.666 23.5 -90.999s35.834 -44.5 60.501 -57.5s51 -19.5 79 -19.5c28.667 0 55.5 6.66699 80.5 20s45.167 32.5 60.5 57.5
s23 55.167 23 90.5v294h70v-297c0 -46 -10.5 -86 -31.5 -120s-49 -60.167 -84 -78.5s-74.5 -27.5 -118.5 -27.5zM497.999 465.999l-0.00195312 44h36c16.667 0 29.834 5.33301 39.501 16s14.834 26 15.501 46v22h60v-23c-0.666992 -36 -10.167 -62.5 -28.5 -79.5
s-45.833 -25.5 -82.5 -25.5h-40z" />
    </font>
</defs>
</svg>
